<?xml version="1.0" encoding="UTF-8" standalone="no"?>
<!-- Generator: Adobe Illustrator 12.0.0, SVG Export Plug-In . SVG Version: 6.00 Build 51448)  -->
<svg
   xmlns:dc="http://purl.org/dc/elements/1.1/"
   xmlns:cc="http://web.resource.org/cc/"
   xmlns:rdf="http://www.w3.org/1999/02/22-rdf-syntax-ns#"
   xmlns:svg="http://www.w3.org/2000/svg"
   xmlns="http://www.w3.org/2000/svg"
   xmlns:sodipodi="http://inkscape.sourceforge.net/DTD/sodipodi-0.dtd"
   xmlns:inkscape="http://www.inkscape.org/namespaces/inkscape"
   version="1.0"
   width="50"
   height="100"
   viewBox="0 0 319.927 654.708"
   overflow="visible"
   enable-background="new 0 0 319.927 654.708"
   xml:space="preserve"
   id="svg1367"
   sodipodi:version="0.32"
   inkscape:version="0.42+devel"
   sodipodi:docname="ap.svg"
   sodipodi:docbase="C:\Documents and Settings\Administrator\My Documents\ikonas\pareizi"><metadata
   id="metadata1426"><rdf:RDF><cc:Work
       rdf:about=""><dc:format>image/svg+xml</dc:format><dc:type
         rdf:resource="http://purl.org/dc/dcmitype/StillImage" /></cc:Work></rdf:RDF></metadata><defs
   id="defs1424" /><sodipodi:namedview
   inkscape:window-height="975"
   inkscape:window-width="1280"
   inkscape:pageshadow="2"
   inkscape:pageopacity="0.0"
   borderopacity="1.0"
   bordercolor="#666666"
   pagecolor="#ffffff"
   id="base"
   inkscape:zoom="1"
   inkscape:cx="179.21962"
   inkscape:cy="-136.54338"
   inkscape:window-x="-4"
   inkscape:window-y="-4"
   inkscape:current-layer="svg1367" />
<g
   id="Layer_8">
	<g
   id="Layer_3">
	</g>
</g>
<g
   id="Layer_2">
</g>
<g
   id="Layer_4">
</g>
<g
   id="Layer_5">
</g>
<g
   id="Layer_6">
</g>
<g
   id="Layer_7">
</g>
<g
   id="Layer_9"
   transform="matrix(1.078852,0.000000,0.000000,1.078852,-39.59509,-51.62506)">
	<g
   id="g1377">
		<path
   d="M 257.263,464.708 C 257.263,506.866 221.335,541.042 177.016,541.042 C 132.696,541.042 96.768,506.866 96.768,464.708 C 96.768,422.552 132.696,388.376 177.016,388.376 C 221.335,388.376 257.263,422.552 257.263,464.708 z M 177.013,397.024 C 137.526,397.024 105.516,427.473 105.516,465.031 C 105.516,502.592 137.526,533.04 177.013,533.04 C 216.499,533.04 248.509,502.592 248.509,465.031 C 248.509,427.474 216.5,397.024 177.013,397.024 z "
   id="path1379"
   style="fill:#100910" />
		<g
   id="g1381">
			<linearGradient
   id="XMLID_3_"
   gradientUnits="userSpaceOnUse"
   x1="152.8882"
   y1="303.19681"
   x2="102.7375"
   y2="303.19681">
				<stop
   offset="0"
   style="stop-color:#8C8C8C"
   id="stop1384" />
				<stop
   offset="0.9944"
   style="stop-color:#EAEAEA"
   id="stop1386" />
			</linearGradient>
			<path
   d="M 88.089,490.743 C 86.598,498.792 136.871,499.816 135.017,489.669 C 135.277,470.535 139.789,113.68 139.789,111.434 C 139.789,109.188 90.527,108.206 90.387,111.434 C 90.247,114.662 89.018,485.731 88.089,490.743 z "
   id="path1388"
   style="fill:url(#XMLID_3_)" />
			<linearGradient
   id="XMLID_4_"
   gradientUnits="userSpaceOnUse"
   x1="135.7617"
   y1="532.94922"
   x2="87.0327"
   y2="532.94922">
				<stop
   offset="0"
   style="stop-color:#3F3F3F"
   id="stop1391" />
				<stop
   offset="1"
   style="stop-color:#C8C7C3"
   id="stop1393" />
			</linearGradient>
			<path
   d="M 88.446,489.658 C 89.067,496.329 135.327,497.735 135.017,489.669 C 134.707,481.603 135.762,548.454 135.762,564.587 C 135.762,580.721 87.205,581.808 87.05,563.036 C 86.895,544.266 87.826,482.987 88.446,489.658 z "
   id="path1395"
   style="fill:url(#XMLID_4_)" />
			<path
   d="M 90.562,113.56 C 91.7,109.292 139.21,111.426 140.348,114.556 C 141.431,117.532 144.136,97.711 144.276,85.08 C 144.416,72.449 87.295,67.116 87.014,84.939 C 86.734,102.763 89.547,117.366 90.562,113.56 z "
   id="path1397"
   style="fill:#525051" />
		</g>
		<polygon
   points="309.516,579.208 186.516,646.708 106.016,591.208 105.016,596.708 189.516,654.708 310.535,582.897 309.516,579.208 "
   id="polygon1399"
   style="fill:#8c8c8c" />
		<polygon
   points="100.8,533.437 194.115,587.754 319.927,523.224 226.148,482.833 100.8,533.437 "
   id="polygon1401"
   style="fill:#d8d8d8" />
		<polygon
   points="100.8,533.437 103.121,593.325 189.472,652.285 194.115,587.754 100.8,533.437 "
   id="polygon1403"
   style="fill:#efefef" />
		<polygon
   points="194.063,587.771 319.875,523.24 311.983,579.414 189.42,652.302 194.063,587.771 "
   id="polygon1405"
   style="fill:#b2b2b2" />
		<g
   id="g1407">
			<path
   d="M 123.646,572.687 C 124.599,577.171 122.792,580.807 119.609,580.807 C 116.427,580.807 113.074,577.171 112.121,572.687 C 111.168,568.203 112.975,564.567 116.157,564.567 C 119.34,564.566 122.693,568.202 123.646,572.687 z "
   id="path1409"
   style="stroke:#000000" />
			<polygon
   points="110.721,586.612 121.886,580.678 114.509,564.416 103.042,570.552 110.721,586.612 "
   id="polygon1411" />
			<path
   d="M 112.416,578.686 C 113.369,583.17 111.562,586.806 108.379,586.806 C 105.197,586.806 101.844,583.17 100.891,578.686 C 99.938,574.202 101.745,570.566 104.927,570.566 C 108.11,570.565 111.463,574.201 112.416,578.686 z "
   id="path1413"
   style="fill:#3f3f3f;stroke:#000000" />
		</g>
		<g
   id="g1415">
			<path
   d="M 179.312,612.354 C 180.265,616.838 178.458,620.474 175.277,620.474 C 172.093,620.474 168.742,616.838 167.789,612.354 C 166.836,607.87 168.643,604.234 171.824,604.234 C 175.007,604.233 178.359,607.869 179.312,612.354 z "
   id="path1417"
   style="stroke:#000000" />
			<polygon
   points="166.388,626.279 177.552,620.345 170.175,604.083 158.709,610.219 166.388,626.279 "
   id="polygon1419" />
			<path
   d="M 168.083,618.353 C 169.036,622.837 167.228,626.473 164.046,626.473 C 160.864,626.473 157.51,622.837 156.557,618.353 C 155.604,613.869 157.411,610.233 160.593,610.233 C 163.777,610.232 167.13,613.868 168.083,618.353 z "
   id="path1421"
   style="fill:#3f3f3f;stroke:#000000" />
		</g>
	</g>
</g>
</svg>