<?xml version="1.0" encoding="UTF-8" standalone="no"?>
<!-- Generator: Adobe Illustrator 12.0.0, SVG Export Plug-In . SVG Version: 6.00 Build 51448)  -->
<svg
   xmlns:dc="http://purl.org/dc/elements/1.1/"
   xmlns:cc="http://web.resource.org/cc/"
   xmlns:rdf="http://www.w3.org/1999/02/22-rdf-syntax-ns#"
   xmlns:svg="http://www.w3.org/2000/svg"
   xmlns="http://www.w3.org/2000/svg"
   xmlns:sodipodi="http://inkscape.sourceforge.net/DTD/sodipodi-0.dtd"
   xmlns:inkscape="http://www.inkscape.org/namespaces/inkscape"
   version="1.0"
   width="50"
   height="38.830002"
   viewBox="0 0 47.583 42.834"
   overflow="visible"
   enable-background="new 0 0 47.583 42.834"
   xml:space="preserve"
   id="svg1416"
   sodipodi:version="0.32"
   inkscape:version="0.42+devel"
   sodipodi:docname="bridge.svg"
   sodipodi:docbase="C:\Documents and Settings\Administrator\My Documents\ikonas\pareizi"><metadata
   id="metadata1488"><rdf:RDF><cc:Work
       rdf:about=""><dc:format>image/svg+xml</dc:format><dc:type
         rdf:resource="http://purl.org/dc/dcmitype/StillImage" /></cc:Work></rdf:RDF></metadata><defs
   id="defs1486" /><sodipodi:namedview
   inkscape:window-height="975"
   inkscape:window-width="1280"
   inkscape:pageshadow="2"
   inkscape:pageopacity="0.0"
   borderopacity="1.0"
   bordercolor="#666666"
   pagecolor="#ffffff"
   id="base"
   inkscape:zoom="8.7313817"
   inkscape:cx="23.7915"
   inkscape:cy="21.417"
   inkscape:window-x="-4"
   inkscape:window-y="-4"
   inkscape:current-layer="svg1416" />


<g
   id="g1490"
   transform="matrix(1.551010,0.000000,0.000000,1.551010,-10.81408,-12.16376)"><g
     id="Layer_4">
	<linearGradient
   y2="18.887699"
   x2="13.1782"
   y1="23.262699"
   x1="15.6782"
   gradientUnits="userSpaceOnUse"
   id="XMLID_4_">
		<stop
   id="stop1420"
   style="stop-color:#8C8C8C"
   offset="0" />
		<stop
   id="stop1422"
   style="stop-color:#000000"
   offset="1" />
	</linearGradient>
	<polyline
   style="fill:url(#XMLID_4_)"
   id="polyline1424"
   points="8.568,24.771 17,19.75 17.167,11.917 8.583,17.25 8.568,24.771  " />
	<linearGradient
   y2="24.1182"
   x2="22.810101"
   y1="26.6182"
   x1="24.185101"
   gradientUnits="userSpaceOnUse"
   id="XMLID_5_">
		<stop
   id="stop1427"
   style="stop-color:#8C8C8C"
   offset="0" />
		<stop
   id="stop1429"
   style="stop-color:#000000"
   offset="1" />
	</linearGradient>
	<polyline
   style="fill:url(#XMLID_5_)"
   id="polyline1431"
   points="17.901,29.438 26.333,24.417 26.501,16.584 17.917,21.917 17.901,29.438  " />
	<linearGradient
   y2="31.553699"
   x2="38.060101"
   y1="25.991199"
   x1="32.435101"
   gradientUnits="userSpaceOnUse"
   id="XMLID_6_">
		<stop
   id="stop1434"
   style="stop-color:#3F3F3F"
   offset="0" />
		<stop
   id="stop1436"
   style="stop-color:#000000"
   offset="1" />
	</linearGradient>
	<polyline
   style="fill:url(#XMLID_6_)"
   id="polyline1438"
   points="29.671,35.07 38.569,29.75 38.811,20.486 29.755,25.864 29.671,35.07  " />
</g><g
     id="virsa">
	<path
   style="fill:#3f3f3f"
   id="path1441"
   d="M 4.833,13.75 C 5.25,14 29.755,25.864 29.755,25.864 L 38.811,20.486 L 14,8.5 L 4.833,13.75 z " />
</g><g
     id="sans">
	<path
   style="fill:#666666"
   id="path1444"
   d="M 4.833,13.75 L 5.146,23.099 L 8.568,24.771 C 8.568,24.771 8.5,19.583 10.334,19.083 C 11.91,18.653 13.043,19.375 13.803,20.442 C 15.037,22.176 14.412,27.614 14.412,27.614 L 18.006,29.38 C 18.006,29.38 18.084,24.834 20.126,24 C 22.293,23.292 23.459,24.375 24.334,26.333 C 25.496,28.933 24.74,32.661 24.74,32.661 L 29.74,35.083 L 29.756,25.864 L 4.833,13.75 z " />
	<g
   id="g1446">
		<polygon
   style="fill:#8c8c8c"
   id="polygon1448"
   points="28.878,21.327 31.194,19.904 16.602,12.765 19.336,11.084 4.994,8.254 11.296,15.972 14.214,14.188 28.878,21.327 " />
		<polygon
   style="fill:#8c8c8c"
   id="polygon1450"
   points="15.959,12.392 13.645,13.815 28.237,20.954 25.502,22.634 39.845,25.465 33.542,17.747 30.624,19.531 15.959,12.392 " />
	</g>
</g></g>
<g
   id="grid"
   display="none"
   style="display:none">
	<line
   display="inline"
   x1="37.25"
   y1="10.167"
   x2="37.25"
   y2="42.834"
   id="line1453"
   style="display:inline" />
	<line
   display="inline"
   x1="18"
   y1="7.5"
   x2="18"
   y2="40.167"
   id="line1455"
   style="display:inline" />
	<line
   display="inline"
   x1="24.75"
   y1="9.5830002"
   x2="24.75"
   y2="42.25"
   id="line1457"
   style="display:inline" />
	<line
   display="inline"
   x1="14.417"
   y1="6.75"
   x2="14.417"
   y2="39.417"
   id="line1459"
   style="display:inline" />
	<line
   display="inline"
   x1="7.6669998"
   y1="3.3329999"
   x2="7.6669998"
   y2="36.000999"
   id="line1461"
   style="display:inline" />
	<line
   display="inline"
   x1="3.5829999"
   y1="0"
   x2="3.5829999"
   y2="32.667"
   id="line1463"
   style="display:inline" />
	<line
   display="inline"
   x1="2.563"
   y1="8.7320004"
   x2="44.73"
   y2="29.315001"
   id="line1465"
   style="display:inline" />
	<line
   display="inline"
   x1="0"
   y1="11.417"
   x2="42.167"
   y2="32"
   id="line1467"
   style="display:inline" />
	<line
   display="inline"
   x1="0.167"
   y1="20.667"
   x2="42.333"
   y2="41.25"
   id="line1469"
   style="display:inline" />
	<line
   display="inline"
   x1="2.263"
   y1="21.122"
   x2="24.263"
   y2="7.8720002"
   id="line1471"
   style="display:inline" />
	<line
   display="inline"
   x1="21.987"
   y1="30.587999"
   x2="43.987"
   y2="17.337999"
   id="line1473"
   style="display:inline" />
	<line
   display="inline"
   x1="25.583"
   y1="37.583"
   x2="47.583"
   y2="24.333"
   id="line1475"
   style="display:inline" />
	<line
   display="inline"
   x1="4.7350001"
   y1="27.104"
   x2="26.736"
   y2="13.854"
   id="line1477"
   style="display:inline" />
	<line
   display="inline"
   x1="11"
   y1="33.666"
   x2="33"
   y2="20.416"
   id="line1479"
   style="display:inline" />
	<line
   display="inline"
   x1="4.5689998"
   y1="8.0430002"
   x2="46.736"
   y2="28.625999"
   id="line1481"
   style="display:inline" />
	<line
   display="inline"
   x1="22.750999"
   y1="40.333"
   x2="44.750999"
   y2="27.083"
   id="line1483"
   style="display:inline" />
</g>
</svg>