<?xml version="1.0" encoding="UTF-8" standalone="no"?>
<!-- Generator: Adobe Illustrator 12.0.0, SVG Export Plug-In . SVG Version: 6.00 Build 51448)  -->
<svg
   xmlns:dc="http://purl.org/dc/elements/1.1/"
   xmlns:cc="http://web.resource.org/cc/"
   xmlns:rdf="http://www.w3.org/1999/02/22-rdf-syntax-ns#"
   xmlns:svg="http://www.w3.org/2000/svg"
   xmlns="http://www.w3.org/2000/svg"
   xmlns:xlink="http://www.w3.org/1999/xlink"
   xmlns:sodipodi="http://inkscape.sourceforge.net/DTD/sodipodi-0.dtd"
   xmlns:inkscape="http://www.inkscape.org/namespaces/inkscape"
   version="1.0"
   width="50.499001"
   height="32.400002pt"
   viewBox="0 0 50.499 44.25"
   overflow="visible"
   enable-background="new 0 0 50.499 44.25"
   xml:space="preserve"
   id="svg1360"
   sodipodi:version="0.32"
   inkscape:version="0.42+devel"
   sodipodi:docname="client.svg"
   sodipodi:docbase="C:\Documents and Settings\Administrator\My Documents\ikonas\pareizi"><metadata
   id="metadata1397"><rdf:RDF><cc:Work
       rdf:about=""><dc:format>image/svg+xml</dc:format><dc:type
         rdf:resource="http://purl.org/dc/dcmitype/StillImage" /></cc:Work></rdf:RDF></metadata><defs
   id="defs1395" /><sodipodi:namedview
   inkscape:window-height="975"
   inkscape:window-width="1280"
   inkscape:pageshadow="2"
   inkscape:pageopacity="0.0"
   borderopacity="1.0"
   bordercolor="#666666"
   pagecolor="#ffffff"
   id="base"
   inkscape:zoom="8.4519774"
   inkscape:cx="25.2495"
   inkscape:cy="22.125"
   inkscape:window-x="-4"
   inkscape:window-y="-4"
   inkscape:current-layer="svg1360" />
<g
   id="Layer_1"
   display="none"
   style="display:none">
	<image
   width="588"
   height="551"
   xlink:href="13CF8591.jpg"
   transform="matrix(6.720000e-2,0.000000,0.000000,7.170000e-2,5.665500,0.000000)"
   id="image1363">
	</image>
</g>
<g
   id="Layer_2">
</g>
<g
   id="Layer_3">
</g>
<g
   id="Layer_4">
</g>
<g
   id="Layer_5"
   transform="matrix(1.088614,0.000000,0.000000,1.088614,-2.202726,-3.834529)">
	<g
   id="g1369">
		<path
   d="M 50.499,26.848 C 50.499,34.931 45.121,41.484 38.488,41.484 C 31.854,41.484 26.478,34.931 26.478,26.848 C 26.478,18.763 31.854,12.211 38.488,12.211 C 45.121,12.21 50.499,18.763 50.499,26.848 z M 38.342,13.572 C 32.326,13.572 27.449,19.363 27.449,26.506 C 27.449,33.651 32.326,39.442 38.342,39.442 C 44.358,39.442 49.236,33.651 49.236,26.506 C 49.235,19.363 44.357,13.572 38.342,13.572 z "
   id="path1371"
   style="fill:#272928" />
		<path
   d="M 13.878,38.317 C 13.708,37.465 13.732,10.551 13.684,10.308 C 13.635,10.065 13.83,8.581 15.045,8.558 C 16.261,8.534 40.477,9.141 41.595,9.239 C 42.713,9.337 43.151,10.406 43.248,10.892 C 43.345,11.379 41.473,41.624 41.205,42.79 C 40.937,43.958 39.989,44.177 39.455,44.249 C 38.92,44.322 16.674,40.577 15.434,40.165 C 14.194,39.751 14.048,39.168 13.878,38.317 z "
   id="path1373"
   style="fill:#666666" />
		<linearGradient
   id="XMLID_2_"
   gradientUnits="userSpaceOnUse"
   x1="18.1826"
   y1="17.9536"
   x2="38.769798"
   y2="31.1336">
			<stop
   offset="0"
   style="stop-color:#D1CFC2"
   id="stop1376" />
			<stop
   offset="1"
   style="stop-color:#E1E3E0"
   id="stop1378" />
		</linearGradient>
		<path
   d="M 13.64,38.08 C 13.47,37.228 13.494,10.314 13.445,10.071 C 13.396,9.827 13.591,8.345 14.807,8.32 C 16.022,8.296 40.238,8.904 41.356,9.001 C 42.475,9.098 42.913,10.168 43.01,10.654 C 43.107,11.14 41.235,41.385 40.968,42.553 C 40.7,43.719 39.752,43.939 39.217,44.012 C 38.683,44.085 16.435,40.34 15.196,39.926 C 13.956,39.515 13.81,38.932 13.64,38.08 z "
   id="path1380"
   style="fill:url(#XMLID_2_)" />
		<path
   d="M 24.846,9.354 C 24.846,9.354 40.804,9.739 41.481,10.075 C 42.16,10.411 42.232,10.162 41.163,9.715 C 40.093,9.268 24.846,9.354 24.846,9.354 z "
   id="path1382"
   style="fill:#ffffff" />
		<path
   d="M 41.43,26.431 C 41.43,26.431 40.511,42.366 40.151,43.033 C 39.794,43.699 40.042,43.781 40.524,42.726 C 41.005,41.671 41.43,26.431 41.43,26.431 z "
   id="path1384"
   style="fill:#ffffff" />
		<line
   x1="22.782"
   y1="23.145"
   x2="21.927999"
   y2="26.447001"
   id="line1386"
   style="fill:none;stroke:#8c8c8c" />
		<line
   x1="20.1"
   y1="18.132"
   x2="16.077999"
   y2="31.231001"
   id="line1388"
   style="fill:none;stroke:#8c8c8c" />
		<line
   x1="15.956"
   y1="10.5"
   x2="9.0089998"
   y2="33.964001"
   id="line1390"
   style="fill:none;stroke:#8c8c8c" />
		<line
   x1="10.837"
   y1="4.2360001"
   x2="0.47799999"
   y2="37.951"
   id="line1392"
   style="fill:none;stroke:#8c8c8c" />
	</g>
</g>
</svg>