<?xml version="1.0" encoding="UTF-8" standalone="no"?>
<!-- Generator: Adobe Illustrator 12.0.0, SVG Export Plug-In . SVG Version: 6.00 Build 51448)  -->
<svg
   xmlns:dc="http://purl.org/dc/elements/1.1/"
   xmlns:cc="http://web.resource.org/cc/"
   xmlns:rdf="http://www.w3.org/1999/02/22-rdf-syntax-ns#"
   xmlns:svg="http://www.w3.org/2000/svg"
   xmlns="http://www.w3.org/2000/svg"
   xmlns:sodipodi="http://inkscape.sourceforge.net/DTD/sodipodi-0.dtd"
   xmlns:inkscape="http://www.inkscape.org/namespaces/inkscape"
   version="1.0"
   baseProfile="basic"
   width="50"
   height="50"
   viewBox="0 0 467.52 439.44"
   overflow="visible"
   enable-background="new 0 0 467.52 439.44"
   xml:space="preserve"
   id="svg1434"
   sodipodi:version="0.32"
   inkscape:version="0.42+devel"
   sodipodi:docname="clock.svg"
   sodipodi:docbase="C:\Documents and Settings\Administrator\My Documents\ikonas\pareizi"><metadata
   id="metadata1481"><rdf:RDF><cc:Work
       rdf:about=""><dc:format>image/svg+xml</dc:format><dc:type
         rdf:resource="http://purl.org/dc/dcmitype/StillImage" /></cc:Work></rdf:RDF></metadata><defs
   id="defs1479" /><sodipodi:namedview
   inkscape:window-height="975"
   inkscape:window-width="1280"
   inkscape:pageshadow="2"
   inkscape:pageopacity="0.0"
   borderopacity="1.0"
   bordercolor="#666666"
   pagecolor="#ffffff"
   id="base"
   inkscape:zoom="1"
   inkscape:cx="73.550712"
   inkscape:cy="44.895995"
   inkscape:window-x="-4"
   inkscape:window-y="-4"
   inkscape:current-layer="svg1434" />








<g
   id="g1483"
   transform="matrix(4.695441,0.000000,0.000000,4.497014,-868.8020,-750.7259)"><g
     id="Group_1_1_">
	<g
   id="Shape_1_copy_2">
		<path
   style="fill:#3f3f3f"
   id="path1438"
   d="M 267.391,193.318 C 225.507,147.246 155.486,194.213 207.694,244.279 C 253.461,288.169 311.534,241.876 267.391,193.318 z " />
	</g>
	<g
   id="Shape_1">
		<path
   style="fill:#a0a0a0"
   id="path1441"
   d="M 264.518,193.201 C 223.828,147.482 155.801,194.088 206.522,243.771 C 250.985,287.324 307.403,241.386 264.518,193.201 z " />
	</g>
	<g
   id="Shape_1_copy_3">
		<path
   style="fill:#ffffff"
   id="path1444"
   d="M 260.971,196.305 C 222.088,156.473 159.718,199.146 208.03,242.309 C 250.38,280.146 301.951,238.285 260.971,196.305 z " />
	</g>
</g><g
     id="Shape_2_1_">
	<g
   id="Shape_2_2_">
		<polygon
   id="polygon1448"
   points="228.753,219.488 208.343,211.185 202.611,209.364 207.486,212.577 227.413,223.184 230.413,222.755 231.057,222.059 228.753,219.488 " />
	</g>
</g><g
     id="Shape_3_1_">
	<g
   id="Shape_3">
		<polygon
   id="polygon1452"
   points="230.199,224.201 228.967,224.522 212.307,242.254 211.718,243.11 230.628,226.879 231.003,224.844 230.199,224.201 " />
	</g>
</g><g
     id="Shape_4_1_">
	<g
   id="Shape_4_2_">
		<polygon
   id="polygon1456"
   points="244.397,212.962 233.146,222.273 233.307,222.487 245.452,213.082 244.397,212.962 " />
	</g>
</g><g
     id="Shape_5_1_">
	<g
   id="Shape_5">
		<path
   id="path1460"
   d="M 230.467,222.809 C 229.236,224.363 231.486,225.648 232.717,224.523 C 233.949,223.397 231.699,221.255 230.467,222.809 z " />
	</g>
</g><g
     id="Shape_6_1_">
	<g
   id="Shape_6_2_">
		<polygon
   id="polygon1464"
   points="228.538,182.786 227.253,183 228.324,191.459 228.967,191.245 228.538,182.786 " />
	</g>
</g><g
     id="Shape_8_1_">
	<g
   id="Shape_8">
		<path
   id="path1468"
   d="M 274.286,231.186 L 263.144,229.473 C 263.144,229.473 262.864,229.926 264.153,230.27 C 267.424,231.142 274.393,232.471 274.393,232.471 L 274.286,231.186 z " />
	</g>
</g><g
     id="Shape_9_1_">
	<g
   id="Shape_9_2_">
		<polygon
   id="polygon1472"
   points="200.147,215.98 191.576,213.196 191.79,214.802 200.361,216.944 200.147,215.98 " />
	</g>
</g><g
     id="Shape_7_1_">
	<g
   id="Shape_7">
		<polygon
   id="polygon1476"
   points="234.538,248.532 233.467,250.995 234.538,256.671 235.181,256.456 234.538,248.532 " />
	</g>
</g></g>
</svg>