<?xml version="1.0" encoding="UTF-8" standalone="no"?>
<!-- Generator: Adobe Illustrator 12.0.0, SVG Export Plug-In . SVG Version: 6.00 Build 51448)  -->
<svg
   xmlns:dc="http://purl.org/dc/elements/1.1/"
   xmlns:cc="http://web.resource.org/cc/"
   xmlns:rdf="http://www.w3.org/1999/02/22-rdf-syntax-ns#"
   xmlns:svg="http://www.w3.org/2000/svg"
   xmlns="http://www.w3.org/2000/svg"
   xmlns:sodipodi="http://inkscape.sourceforge.net/DTD/sodipodi-0.dtd"
   xmlns:inkscape="http://www.inkscape.org/namespaces/inkscape"
   version="1.0"
   width="40"
   height="50"
   viewBox="0 0 420.48 564.48"
   overflow="visible"
   enable-background="new 0 0 420.48 564.48"
   xml:space="preserve"
   id="svg1513"
   sodipodi:version="0.32"
   inkscape:version="0.42+devel"
   sodipodi:docname="dns.svg"
   sodipodi:docbase="C:\Documents and Settings\Administrator\My Documents\ikonas\pareizi"><metadata
   id="metadata1604"><rdf:RDF><cc:Work
       rdf:about=""><dc:format>image/svg+xml</dc:format><dc:type
         rdf:resource="http://purl.org/dc/dcmitype/StillImage" /></cc:Work></rdf:RDF></metadata><defs
   id="defs1602" /><sodipodi:namedview
   inkscape:window-height="975"
   inkscape:window-width="1280"
   inkscape:pageshadow="2"
   inkscape:pageopacity="0.0"
   borderopacity="1.0"
   bordercolor="#666666"
   pagecolor="#ffffff"
   id="base"
   inkscape:zoom="6.8927338"
   inkscape:cx="30.21408"
   inkscape:cy="25.050914"
   inkscape:window-x="-4"
   inkscape:window-y="-4"
   inkscape:current-layer="svg1513" />







<g
   id="g1606"
   transform="matrix(1.091332,0.000000,0.000000,1.091332,-39.44001,-34.53179)"><g
     enable-background="new    "
     id="Kaja">
	<g
   id="Shape_14">
		<g
   id="g1517">
			<path
   style="fill:#a0a0a0"
   id="path1519"
   d="M 353.67,381.636 L 117.87,537.155 C 117.87,537.155 115.381,541.821 141.201,543.998 C 167.021,546.176 189.419,531.246 189.419,531.246 C 189.419,531.246 334.383,437.623 341.849,428.292 C 349.315,418.961 347.449,419.272 351.182,411.186 C 354.915,403.097 353.67,381.636 353.67,381.636 z " />
		</g>
	</g>
</g><g
     enable-background="new    "
     id="Ena">
	<g
   id="Shape_13">
		<g
   id="g1523">
			<path
   style="fill:#777777"
   id="path1525"
   d="M 350.871,382.258 L 141.823,523.781 C 141.823,523.781 138.401,524.092 154.267,526.891 C 170.132,529.69 177.287,530.312 194.085,518.804 C 210.883,507.295 320.073,439.8 332.827,429.225 C 345.582,418.65 349.919,405.273 350.87,397.188 C 352.737,381.325 350.871,382.258 350.871,382.258 z " />
		</g>
	</g>
</g><g
     enable-background="new    "
     id="Prieksha">
	<g
   id="Shape_12">
		<g
   id="g1529">
			<path
   style="fill:#545454"
   id="path1531"
   d="M 122.864,177.164 L 378.321,59.964 L 377.915,55.895 L 322.868,38.127 C 322.868,38.127 312.656,33.751 305.101,36.769 C 297.546,39.787 226.186,70.545 226.186,70.545 C 226.186,70.545 53.086,142.026 48.358,143.891 C 43.63,145.756 25.65,161.574 26.05,180.419 C 26.45,199.264 28.491,278.086 28.491,278.086 C 28.491,278.086 31.612,484.059 31.745,490.918 C 31.878,497.776 34.999,499.464 34.999,499.464 L 42.728,505.568 L 98.863,538.53 L 111.473,542.599 L 99.677,520.217 L 100.084,211.346 L 122.864,177.164 z " />
		</g>
	</g>
</g><g
     enable-background="new    "
     id="Sans_Mala">
	<g
   id="Shape_10">
		<g
   id="g1535">
			<path
   style="fill:#545454"
   id="path1537"
   d="M 374.253,55.081 C 369.778,56.302 270.931,100.252 270.931,100.252 C 270.931,100.252 109.44,169.84 102.118,178.385 C 94.796,186.931 87.881,195.477 87.474,214.196 C 87.067,232.916 87.474,503.534 87.474,519.405 C 87.474,535.276 91.135,534.869 91.135,534.869 C 91.135,534.869 100.898,542.6 112.695,543.008 C 124.491,543.415 364.426,377.924 367.786,371.684 C 371.146,365.445 393.779,70.139 394.186,67.29 C 394.592,64.44 378.728,53.86 374.253,55.081 z " />
		</g>
	</g>
</g><g
     enable-background="new    "
     id="Sans">
	<g
   id="Sans_Liels">
		<g
   id="g1541">
			<path
   style="fill:#3e3e3e"
   id="path1543"
   d="M 382.08,59.04 C 371.52,59.52 136.8,169.92 120.48,177.6 C 104.16,185.28 99.36,204 99.84,213.6 C 100.32,223.2 101.28,375.84 101.28,375.84 C 101.28,375.84 99.84,519.84 99.84,529.44 C 99.84,539.041 112.32,545.76 117.12,542.88 C 121.92,540 367.68,372 367.68,372 C 367.68,372 395.519,78.843 396,73.92 C 396.481,68.997 392.64,58.56 382.08,59.04 z " />
		</g>
	</g>
	<g
   id="Sans_Mazs">
		<g
   id="g1546">
			<linearGradient
   y2="309.7886"
   x2="395.24081"
   y1="309.7886"
   x1="122.8643"
   gradientUnits="userSpaceOnUse"
   id="XMLID_9_">
				<stop
   id="stop1549"
   style="stop-color:#606060"
   offset="0" />
				<stop
   id="stop1551"
   style="stop-color:#5B5B5B"
   offset="1" />
			</linearGradient>
			<path
   style="fill:url(#XMLID_9_)"
   id="path1553"
   d="M 382.416,87.039 C 372.707,87.48 156.879,188.995 141.873,196.056 C 126.867,203.118 122.453,220.331 122.894,229.158 C 123.335,237.986 124.218,378.339 124.218,378.339 C 124.218,378.339 122.894,510.749 122.894,519.575 C 122.894,528.403 134.369,534.582 138.782,531.934 C 143.197,529.286 363.906,379.209 364.296,378.689 C 364.686,378.169 369.371,375.957 370.933,362.162 C 372.495,348.367 394.852,105.42 395.215,100.721 C 395.578,96.022 392.126,86.598 382.416,87.039 z " />
		</g>
	</g>
</g><g
     enable-background="new    "
     id="Faceplate">
	<g
   id="Shape_7">
		<g
   id="g1557">
			<polygon
   style="fill:#eaeaea"
   id="polygon1559"
   points="35.04,189.12 40.32,492 87.84,520.32 87.84,214.08 35.04,189.12 " />
		</g>
	</g>
</g><g
     enable-background="new    "
     id="Apaksha">
	<g
   id="Shape_8">
		<g
   id="g1563">
			<path
   style="fill:#a0a0a0"
   id="path1565"
   d="M 87.783,519.624 L 40.446,491.372 C 40.446,491.372 39.667,503.279 44.24,506.024 C 48.813,508.768 78.565,526.886 94.572,536.674 C 88.535,533.381 87.783,519.624 87.783,519.624 z " />
		</g>
	</g>
</g><g
     enable-background="new    "
     id="Jumts">
	<g
   id="Shape_9">
		<g
   id="g1569">
			<path
   style="fill:#a0a0a0"
   id="path1571"
   d="M 88.139,214.932 L 87.706,214.723 C 87.846,215.379 88.139,214.932 88.139,214.932 z M 331.737,50.107 C 321.726,46.098 311.227,42.909 295.395,49.387 C 279.563,55.865 109.368,125.681 109.368,125.681 C 109.368,125.681 69.788,141.876 59.353,146.194 C 48.918,150.513 41.002,161.669 37.404,171.026 C 33.806,180.382 35.245,189.38 35.245,189.38 L 87.705,214.723 C 87.524,213.879 87.594,211.209 88.858,203.416 C 91.017,190.1 103.251,175.705 115.844,170.307 C 128.438,164.909 297.913,88.614 297.913,88.614 C 297.913,88.614 337.85,71.106 352.602,64.628 C 367.356,58.151 341.748,54.116 331.737,50.107 z " />
		</g>
	</g>
	<g
   id="g1573">
		
			<radialGradient
   gradientUnits="userSpaceOnUse"
   gradientTransform="matrix(0.954400,0.000000,0.000000,1.000000,9.288500,3.306383e-15)"
   r="201.36391"
   cy="488.8696"
   cx="452.92529"
   id="XMLID_10_">
			<stop
   id="stop1576"
   style="stop-color:#8C8C8C"
   offset="0" />
			<stop
   id="stop1578"
   style="stop-color:#FFFFFF"
   offset="1" />
		</radialGradient>
		<path
   style="fill:url(#XMLID_10_)"
   id="path1580"
   d="M 431.832,411.524 C 431.832,477.568 379.067,531.11 313.985,531.11 C 248.902,531.11 196.136,477.568 196.136,411.524 C 196.136,345.489 248.902,291.948 313.985,291.948 C 379.067,291.948 431.832,345.489 431.832,411.524 z " />
		<g
   id="XMLID_2_">
			<g
   id="g1583">
				<path
   id="path1585"
   d="M 428.842,381.875 C 427.682,380.078 426.59,378.246 425.573,376.378 C 424.634,374.149 423.565,371.953 422.425,369.957 C 421.518,367.896 420.694,365.797 419.949,363.656 C 415.956,358.723 404.967,351.507 399.694,347.862 C 398.89,353.963 404.083,357.483 407.391,360.828 C 410.74,360.368 412.98,362.216 414.02,364.984 C 414.02,364.988 414.02,364.988 414.02,364.988 C 411.499,376.353 407.199,379.846 402.302,378.586 C 393.589,368.353 386.1,352.551 378.807,343.586 C 378.307,342.974 377.399,342.134 376.25,341.149 C 375.634,338.777 373.614,337.804 371.182,337.024 L 371.182,337.02 C 366.381,333.188 361.212,329.055 361.225,327.615 C 365.494,326.543 373.634,330.555 378.227,326.803 C 371.894,311.981 355.076,323.118 357.176,332.467 C 348.515,331.563 342.73,316.905 334.081,318.301 C 333.997,319.377 334.133,320.27 334.433,321.014 C 325.74,319.682 310.962,328.691 302.405,330.567 C 301.773,329.796 301.173,328.975 300.657,328.139 C 305.322,321.182 302.897,325.491 313.827,320.734 C 313.663,318.338 313.051,316.378 310.583,316.269 C 312.539,310.264 324.024,311.065 332.861,308.968 C 333.809,308.744 334.725,308.489 335.597,308.184 C 336.986,308.056 338.133,307.516 339.034,306.556 C 339.038,306.556 339.038,306.552 339.038,306.552 C 340.347,305.712 341.427,304.656 342.186,303.312 C 336.217,299.883 340.654,309.34 336.513,299.671 C 323.659,304.291 342.518,307.62 322.743,303.312 C 324.968,298.071 328.912,296.002 333.757,295.895 C 334.805,296.002 335.853,296.119 336.902,296.243 C 338.378,296.419 339.93,296.683 341.554,297.035 C 355.432,300.904 372.418,313.313 379.631,315.218 C 380.995,315.578 382.343,316.046 383.671,316.611 C 383.675,316.615 383.675,316.615 383.68,316.619 C 389.376,320.428 394.965,324.643 400.19,329.165 C 413.953,344.306 424.122,367.573 428.842,381.875 z M 396.859,369.738 C 396.331,368.242 395.506,367.021 394.426,366.097 C 394.962,367.573 395.787,368.793 396.859,369.738 z " />
				<path
   id="path1587"
   d="M 413.472,386.74 C 412.865,390.793 411.872,394.697 410.664,398.517 C 407.419,405.022 403.734,411.227 401.394,417.955 C 398.877,425.177 397.33,436.534 394.149,446.739 C 394.145,446.743 394.145,446.751 394.141,446.759 C 390.573,453.616 385.24,461.154 380.379,467.274 C 380.339,467.298 380.299,467.318 380.259,467.338 C 380.195,467.45 380.127,467.558 380.063,467.67 C 380.059,467.674 380.055,467.678 380.051,467.686 C 377.658,470.679 375.395,473.311 373.53,475.332 C 342.305,509.248 348.978,451.389 347.046,436.566 C 346.107,429.385 344.406,422.524 341.886,416.5 C 341.886,416.496 341.886,416.492 341.886,416.488 C 340.802,411.259 338.829,407.075 335.389,405.238 C 334.701,404.37 333.973,403.542 333.217,402.762 C 331.948,399.221 328.948,397.501 325.075,396.837 C 325.075,396.837 325.071,396.833 325.067,396.833 C 318.207,393.592 309.713,393.348 299.476,397.404 C 288.991,401.565 281.713,390.708 279.689,380.963 C 279.413,378.526 279.281,376.134 279.197,373.985 C 279.197,373.977 279.197,373.969 279.197,373.965 C 279.258,373.385 279.345,372.828 279.462,372.305 C 280.317,368.468 284.002,359.587 288.523,351.394 C 294.944,345.078 302.065,339.72 300.985,335.3 C 301.793,334.835 302.565,334.552 303.301,334.491 C 304.177,333.951 306.629,333.463 309.802,333.143 C 309.274,333.575 308.73,334.027 308.169,334.491 C 317.902,334.459 323.688,333.219 329.568,333.827 C 329.568,333.827 329.572,333.827 329.576,333.827 C 332.812,334.607 334.976,335.855 334.896,337.735 C 349.294,336.783 346.658,351.781 355.143,340.572 C 367.561,345.421 372.877,344.484 379.582,351.29 C 379.582,351.294 379.582,351.298 379.586,351.298 C 380.642,356.49 387.047,365.52 393.056,372.517 C 393.984,374.145 394.952,375.737 395.996,377.257 C 399.08,381.766 400.916,383.498 402.757,384.274 C 403.685,386.935 407.033,386.167 409.974,385.663 C 410.997,385.908 412.148,386.248 413.472,386.74 z " />
				<path
   id="path1589"
   d="M 358.969,517.817 C 359.318,517.861 359.657,517.913 359.993,517.969 C 357.341,527.246 313.919,528.487 305.742,526.47 C 309.818,526.05 314.443,525.098 319.319,523.965 C 332.766,522.518 346.408,520.914 358.969,517.817 z " />
				<path
   id="path1591"
   d="M 332.862,308.969 C 332.402,308.99 331.966,308.969 331.554,308.917 C 332.074,308.91 332.514,308.925 332.862,308.969 z " />
				<path
   id="path1593"
   d="M 219.479,343.402 C 230.745,323.372 246.955,310.69 265.498,303.337 C 247.595,313.454 232.125,326.919 219.479,343.402 z " />
				<path
   id="path1595"
   d="M 228.776,481.1 C 229.701,490.986 246.47,503.555 253.891,512.701 C 240.665,509.448 229.016,496.11 220.003,481.852 C 229.548,494.87 243.733,508.28 251.875,511.096 C 244.298,503.351 228.396,489.897 227.571,479.896 C 227.719,479.68 227.88,479.412 228.055,479.087 C 228.088,480.036 228.312,480.724 228.776,481.1 z " />
				<path
   id="path1597"
   d="M 227.572,479.896 C 228.396,489.897 244.299,503.351 251.876,511.096 C 243.734,508.28 229.549,494.869 220.004,481.852 C 216.615,476.488 213.599,470.995 211.015,465.858 C 210.527,464.342 210.226,462.934 210.155,461.666 C 208.207,459.414 206.018,454.877 203.954,449.084 C 200.565,436.139 195.573,406.459 198.113,391.821 C 198.117,391.816 198.117,391.812 198.117,391.808 C 199.213,389.1 200.765,387.064 202.866,385.944 C 205.511,396.221 224.617,422.817 236.482,421.577 C 239.926,425.729 239.475,436.03 237.539,446.884 C 233.799,459.947 227.865,473.716 228.058,479.088 C 227.88,479.412 227.72,479.68 227.572,479.896 z " />
			</g>
			<g
   id="g1599">
			</g>
		</g>
	</g>
</g></g>
</svg>