<?xml version="1.0" encoding="UTF-8" standalone="no"?>
<!-- Generator: Adobe Illustrator 12.0.0, SVG Export Plug-In . SVG Version: 6.00 Build 51448)  -->
<svg
   xmlns:dc="http://purl.org/dc/elements/1.1/"
   xmlns:cc="http://web.resource.org/cc/"
   xmlns:rdf="http://www.w3.org/1999/02/22-rdf-syntax-ns#"
   xmlns:svg="http://www.w3.org/2000/svg"
   xmlns="http://www.w3.org/2000/svg"
   xmlns:sodipodi="http://inkscape.sourceforge.net/DTD/sodipodi-0.dtd"
   xmlns:inkscape="http://www.inkscape.org/namespaces/inkscape"
   version="1.0"
   width="50"
   height="50"
   viewBox="0 0 481.158 452.618"
   overflow="visible"
   enable-background="new 0 0 481.158 452.618"
   xml:space="preserve"
   id="svg1693"
   sodipodi:version="0.32"
   inkscape:version="0.42+devel"
   sodipodi:docname="files2.svg"
   sodipodi:docbase="C:\Documents and Settings\Administrator\My Documents\ikonas\pareizi"><metadata
   id="metadata1762"><rdf:RDF><cc:Work
       rdf:about=""><dc:format>image/svg+xml</dc:format><dc:type
         rdf:resource="http://purl.org/dc/dcmitype/StillImage" /></cc:Work></rdf:RDF></metadata><defs
   id="defs1760" /><sodipodi:namedview
   inkscape:window-height="540"
   inkscape:window-width="742"
   inkscape:pageshadow="2"
   inkscape:pageopacity="0.0"
   borderopacity="1.0"
   bordercolor="#666666"
   pagecolor="#ffffff"
   id="base"
   inkscape:zoom="5.2033016"
   inkscape:cx="36.915316"
   inkscape:cy="17.188084"
   inkscape:window-x="132"
   inkscape:window-y="132"
   inkscape:current-layer="svg1693" />
<g
   id="Layer_4"
   transform="translate(21.09575,-7.397734)">
	<g
   id="g1696">
		<g
   id="Shape_14">
			<g
   id="g1699">
				<path
   d="M 284.523,300.416 L 79.746,435.476 C 79.746,435.476 77.585,439.528 100.008,441.416 C 122.431,443.308 141.881,430.342 141.881,430.342 C 141.881,430.342 267.774,349.038 274.256,340.936 C 280.74,332.831 279.119,333.101 282.362,326.079 C 285.603,319.055 284.523,300.416 284.523,300.416 z "
   id="path1701"
   style="fill:#a0a0a0" />
			</g>
		</g>
		<g
   id="Shape_13">
			<g
   id="g1704">
				<path
   d="M 282.09,300.957 L 100.547,423.86 C 100.547,423.86 97.575,424.128 111.354,426.561 C 125.131,428.991 131.346,429.532 145.934,419.538 C 160.522,409.544 255.346,350.928 266.422,341.745 C 277.499,332.559 281.265,320.944 282.091,313.924 C 283.711,300.148 282.09,300.957 282.09,300.957 z "
   id="path1706"
   style="fill:#777777" />
			</g>
		</g>
		<g
   id="Shape_12">
			<g
   id="g1709">
				<path
   d="M 84.083,122.846 L 305.93,21.066 L 305.578,17.532 L 257.772,2.102 C 257.772,2.102 248.904,-1.698 242.343,0.922 C 235.782,3.542 173.811,30.255 173.811,30.255 C 173.811,30.255 23.485,92.332 19.379,93.951 C 15.273,95.57 -0.341,109.308 0.006,125.674 C 0.353,142.039 2.126,210.49 2.126,210.49 C 2.126,210.49 4.836,389.365 4.953,395.323 C 5.068,401.278 7.779,402.743 7.779,402.743 L 14.491,408.045 L 63.24,436.668 L 74.192,440.205 L 63.947,420.767 L 64.3,152.533 L 84.083,122.846 z "
   id="path1711"
   style="fill:#545454" />
			</g>
		</g>
		<g
   id="Shape_10">
			<g
   id="g1714">
				<path
   d="M 302.397,16.825 C 298.51,17.885 212.669,56.053 212.669,56.053 C 212.669,56.053 72.424,116.485 66.066,123.907 C 59.708,131.329 53.702,138.75 53.349,155.006 C 52.995,171.263 53.349,406.277 53.349,420.061 C 53.349,433.843 56.528,433.489 56.528,433.489 C 56.528,433.489 65.007,440.206 75.251,440.557 C 85.495,440.911 293.862,297.194 296.781,291.773 C 299.698,286.357 319.353,29.902 319.708,27.428 C 320.06,24.953 306.283,15.765 302.397,16.825 z "
   id="path1716"
   style="fill:#545454" />
			</g>
		</g>
		<g
   id="Sans_Liels">
			<g
   id="g1719">
				<path
   d="M 309.193,20.264 C 300.024,20.681 96.185,116.556 82.013,123.225 C 67.84,129.895 63.671,146.152 64.088,154.489 C 64.505,162.826 65.338,295.383 65.338,295.383 C 65.338,295.383 64.088,420.439 64.088,428.777 C 64.088,437.112 74.926,442.95 79.095,440.447 C 83.264,437.948 296.69,292.051 296.69,292.051 C 296.69,292.051 320.866,37.463 321.283,33.187 C 321.7,28.911 318.364,19.847 309.193,20.264 z "
   id="path1721"
   style="fill:#3e3e3e" />
			</g>
		</g>
		<g
   id="Sans_Mazs">
			<g
   id="g1724">
				
					<linearGradient
   id="XMLID_2_"
   gradientUnits="userSpaceOnUse"
   x1="58.508801"
   y1="238.0215"
   x2="295.05029"
   y2="238.0215"
   gradientTransform="translate(25.57420,0.000000)">
					<stop
   offset="0"
   style="stop-color:#606060"
   id="stop1727" />
					<stop
   offset="1"
   style="stop-color:#5B5B5B"
   id="stop1729" />
				</linearGradient>
				<path
   d="M 309.485,44.579 C 301.053,44.962 113.622,133.121 100.59,139.253 C 87.558,145.386 83.725,160.334 84.109,168 C 84.491,175.666 85.258,297.553 85.258,297.553 C 85.258,297.553 84.109,412.544 84.109,420.209 C 84.109,427.876 94.075,433.241 97.906,430.94 C 101.741,428.641 293.409,298.309 293.75,297.859 C 294.089,297.406 298.158,295.486 299.513,283.506 C 300.869,271.527 320.285,60.541 320.602,56.461 C 320.917,52.38 317.918,44.196 309.485,44.579 z "
   id="path1731"
   style="fill:url(#XMLID_2_)" />
			</g>
		</g>
		<g
   id="Shape_7">
			<g
   id="g1734">
				<polygon
   points="7.813,133.229 12.398,396.262 53.667,420.855 53.667,154.905 7.813,133.229 "
   id="polygon1736"
   style="fill:#eaeaea" />
			</g>
		</g>
		<g
   id="Shape_8">
			<g
   id="g1739">
				<path
   d="M 53.617,420.249 L 12.508,395.716 C 12.508,395.716 11.832,406.055 15.803,408.44 C 19.774,410.823 45.613,426.557 59.513,435.057 C 54.271,432.197 53.617,420.249 53.617,420.249 z "
   id="path1741"
   style="fill:#a0a0a0" />
			</g>
		</g>
		<g
   id="Shape_9">
			<g
   id="g1744">
				<path
   d="M 53.926,155.646 L 53.55,155.464 C 53.672,156.034 53.926,155.646 53.926,155.646 z M 265.475,12.506 C 256.78,9.025 247.662,6.255 233.913,11.881 C 220.165,17.506 72.362,78.137 72.362,78.137 C 72.362,78.137 37.989,92.202 28.927,95.952 C 19.865,99.702 12.991,109.391 9.866,117.517 C 6.741,125.642 7.991,133.456 7.991,133.456 L 53.55,155.464 C 53.393,154.731 53.453,152.412 54.551,145.645 C 56.426,134.081 67.05,121.58 77.987,116.892 C 88.924,112.204 236.101,45.947 236.101,45.947 C 236.101,45.947 270.784,30.742 283.595,25.117 C 296.408,19.491 274.167,15.987 265.475,12.506 z "
   id="path1746"
   style="fill:#a0a0a0" />
			</g>
		</g>
	</g>
</g>
<g
   id="Layer_2"
   transform="translate(-9.247163,7.397734)">
	<g
   id="g1749">
		<path
   d="M 140.956,233.888 C 137.479,213.941 149.352,204.837 161.019,203.714 C 176.083,201.471 195.853,198.186 209.113,196.168 C 224.175,193.876 226.029,206.884 226.029,206.884 L 230.883,230.125 C 230.883,230.125 399.862,200.816 408.151,201.347 C 426.933,202.551 428.137,237.668 428.137,237.668 L 449.432,413.557 L 181.758,451.632 C 181.758,451.632 141.472,236.849 140.956,233.888 z "
   id="path1751"
   style="fill:#b2b2b2" />
		<polyline
   points="209.302,439.782 217.468,250.053 480.119,208.649     474.114,394.087 209.302,439.782   "
   id="polyline1753"
   style="fill:#dbdbdb;stroke:#3f3f3f;stroke-width:2" />
		<polyline
   points="183.027,451.632 191.194,268.932 453.844,229.063     447.839,407.63 183.027,451.632   "
   id="polyline1755"
   style="fill:#ffffff;stroke:#3f3f3f;stroke-width:2" />
		<path
   d="M 183.027,451.632 C 183.027,451.632 198.111,339.462 200.565,324.221 C 203.018,308.979 208.261,306.384 216.046,305.25 C 235.938,302.352 271.724,297.2 274.798,297.2 C 279.074,297.2 275.663,274.094 282.216,273.169 C 287.393,272.439 409.653,255.199 460.75,247.992 C 482.228,244.125 480.663,259.98 476.639,287.45 C 472.614,314.919 458.06,414.227 458.06,414.227 L 183.027,451.632 z "
   id="path1757"
   style="fill:#3f3f3f" />
	</g>
</g>
</svg>