<?xml version="1.0" encoding="UTF-8" standalone="no"?>
<!-- Generator: Adobe Illustrator 12.0.0, SVG Export Plug-In . SVG Version: 6.00 Build 51448)  -->
<svg
   xmlns:dc="http://purl.org/dc/elements/1.1/"
   xmlns:cc="http://web.resource.org/cc/"
   xmlns:rdf="http://www.w3.org/1999/02/22-rdf-syntax-ns#"
   xmlns:svg="http://www.w3.org/2000/svg"
   xmlns="http://www.w3.org/2000/svg"
   xmlns:sodipodi="http://inkscape.sourceforge.net/DTD/sodipodi-0.dtd"
   xmlns:inkscape="http://www.inkscape.org/namespaces/inkscape"
   version="1.0"
   width="50"
   height="50"
   viewBox="0 0 415.249 424.898"
   overflow="visible"
   enable-background="new 0 0 415.249 424.898"
   xml:space="preserve"
   id="svg1384"
   sodipodi:version="0.32"
   inkscape:version="0.42+devel"
   sodipodi:docname="globe.svg"
   sodipodi:docbase="C:\Documents and Settings\Administrator\My Documents\ikonas\pareizi"><metadata
   id="metadata1424"><rdf:RDF><cc:Work
       rdf:about=""><dc:format>image/svg+xml</dc:format><dc:type
         rdf:resource="http://purl.org/dc/dcmitype/StillImage" /></cc:Work></rdf:RDF></metadata><defs
   id="defs1422">
	
</defs><sodipodi:namedview
   inkscape:window-height="480"
   inkscape:window-width="640"
   inkscape:pageshadow="2"
   inkscape:pageopacity="0.0"
   borderopacity="1.0"
   bordercolor="#666666"
   pagecolor="#ffffff"
   id="base" />
<g
   id="Layer_3">
</g>

<g
   id="Layer_2"
   transform="translate(6.758392,5.631994)">
	<radialGradient
   id="XMLID_2_"
   cx="55.438999"
   cy="120.6489"
   r="294.0152"
   gradientUnits="userSpaceOnUse">
		<stop
   offset="0"
   style="stop-color:#FFFFFF"
   id="stop1389" />
		<stop
   offset="0.1623"
   style="stop-color:#FAFAFA"
   id="stop1391" />
		<stop
   offset="0.3591"
   style="stop-color:#EBEBEB"
   id="stop1393" />
		<stop
   offset="0.5739"
   style="stop-color:#D2D2D2"
   id="stop1395" />
		<stop
   offset="0.7998"
   style="stop-color:#B1B1B1"
   id="stop1397" />
		<stop
   offset="1"
   style="stop-color:#8C8C8C"
   id="stop1399" />
	</radialGradient>
	<circle
   style="fill:url(#XMLID_2_)"
   sodipodi:ry="201.5"
   sodipodi:rx="201.5"
   sodipodi:cy="206.149"
   sodipodi:cx="205.939"
   cx="205.939"
   cy="206.149"
   r="201.5"
   id="circle1401" />
</g><g
   id="XMLID_4_"
   transform="translate(6.758392,5.631994)">
		<g
   id="g1405">
			<path
   id="path1407"
   d="M 395.64899,137.797 C 399.66683,146.78915 403.89779,156.23176 403.42592,166.30836 C 403.29231,169.07196 402.7793,171.81991 401.869,174.434 C 402.7082,168.67317 401.55392,162.69237 398.58172,157.68174 C 395.44528,152.18219 391.61142,147.00662 389.6535,140.91315 C 387.5719,135.44645 386.19251,129.08021 381.2483,125.38187 C 379.76143,124.46076 376.11589,121.71684 376.76079,125.30424 C 376.5547,130.52725 379.25326,135.54839 378.11959,140.79945 C 376.74041,147.86224 372.11565,154.28977 365.87089,157.86102 C 363.11041,159.45073 359.17881,160.04808 356.73436,157.54386 C 352.71179,153.33782 352.76176,146.77178 348.65136,142.60559 C 345.5819,139.32192 342.34333,136.07897 340.39583,131.96102 C 337.00519,125.6783 334.52401,118.53294 328.80164,113.89136 C 324.89537,110.30608 319.74175,107.82762 317.09512,103.04402 C 316.40871,102.36438 317.00912,106.08101 318.16246,106.68011 C 320.31154,108.65448 323.42411,109.56269 324.84831,112.30303 C 328.97587,118.7575 328.45754,127.16396 333.0663,133.37674 C 335.19399,135.70797 338.63596,136.5015 340.26041,139.37917 C 344.08252,144.58057 346.1624,151.29316 351.77542,154.99026 C 353.14137,156.14128 355.28518,156.79775 356.2329,158.13808 C 356.29818,160.45281 357.40944,163.62699 359.0005,164.81825 C 363.96232,165.39476 368.74259,162.83192 373.68335,163.74271 C 375.83295,163.88203 377.04153,165.47396 376.843,167.58608 C 377.14569,173.92331 372.66699,179.00144 370.97532,184.83409 C 369.03785,190.62744 368.03819,196.85926 364.76563,202.11337 C 362.77005,204.76934 359.59257,206.45141 358.27296,209.62816 C 354.68097,216.52877 353.28061,224.36621 349.339,231.109 C 352.25387,243.59449 351.06606,257.61544 343.67196,268.38693 C 340.87576,272.4327 337.15442,275.88689 332.748,278.109 C 330.40363,285.20411 325.46211,291.36135 324.60012,298.95245 C 324.28399,301.82531 320.30998,302.2081 318.232,303.685 C 313.00701,312.57524 307.23485,321.80041 298.27053,327.36993 C 293.50277,330.45178 287.6078,330.8244 282.64379,333.50058 C 278.92834,335.04913 274.96396,337.33384 270.79984,336.42055 C 267.46578,335.50984 265.61171,332.2116 264.322,329.261 C 264.99589,316.92479 262.32112,304.64421 258.49308,292.9823 C 257.18206,289.1025 255.6908,285.28051 253.951,281.572 C 253.27971,275.94787 254.87595,270.34686 257.31273,265.31915 C 259.45816,260.87683 260.94359,255.88906 259.97495,250.93015 C 258.87348,244.25621 256.78725,237.77558 254.41766,231.45468 C 251.97392,225.74745 248.84708,220.35982 246.44943,214.62989 C 244.56911,211.11474 242.28942,207.18688 243.43677,203.05549 C 244.90806,200.75548 243.77637,197.93138 241.05444,197.26635 C 238.92269,197.19855 238.02017,195.62449 239.06737,193.763 C 240.85328,191.98503 239.33084,190.73074 237.70458,189.59734 C 233.03261,185.70202 227.49454,181.84952 221.1396,182.04427 C 215.71931,182.38385 211.52359,186.66767 206.11786,187.14892 C 203.36888,187.34376 200.19538,187.54177 197.88704,185.78578 C 196.17618,184.02739 194.06978,182.42408 191.47971,182.53117 C 184.90227,182.0522 179.46759,186.44802 173.33254,187.94944 C 168.89289,189.15721 164.62355,186.65926 161.07831,184.26466 C 157.83564,181.89753 154.57649,179.15387 152.87784,175.42801 C 151.81301,171.93316 152.66987,167.87311 150.29303,164.81264 C 147.84963,160.95586 143.49164,158.61326 141.60756,154.3777 C 140.38684,150.33132 142.60098,146.36778 143.92142,142.64185 C 145.33249,139.10543 146.12483,135.08011 144.62913,131.42475 C 143.16369,127.8482 144.92566,124.12253 146.39069,120.86925 C 148.788,116.14225 151.55439,111.46002 155.41169,107.77094 C 161.54046,102.44499 169.93826,99.960114 174.88645,93.241711 C 178.1016,88.925044 179.44001,83.051231 184.25968,80.065995 C 185.38251,79.603673 187.31674,78.45897 184.87249,78.274315 C 181.13634,78.941209 183.74787,74.306873 185.96773,74.21852 C 187.02274,73.763822 190.28778,74.648765 187.8508,73.463646 C 184.6614,72.234536 180.58244,74.160601 177.922,71.442 C 179.2766,66.420224 179.80876,61.204996 181.377,56.237 C 187.9143,54.204004 194.76615,52.03341 201.68526,53.271911 C 204.10562,53.846212 202.82577,49.285235 201.14725,48.566625 C 200.06371,47.459588 196.63516,46.916659 197.69557,45.002733 C 199.40497,42.147315 203.27153,41.431884 206.263,42.411 C 212.329,35.428763 221.97932,32.929548 230.92667,33.011767 C 232.66216,32.823109 236.61372,33.651794 236.93317,33.374241 C 234.73087,33.258807 232.50137,32.995586 230.5767,31.821478 C 226.31674,29.487979 222.84382,25.679783 218.014,24.441 C 219.24501,19.584842 223.57007,16.475878 227.78573,14.293583 C 229.60059,13.307446 231.44987,12.381908 233.218,11.312 C 230.61885,9.5988754 227.72974,7.70384 224.78061,7.0258873 C 206.12561,5.5482745 187.27117,6.191691 168.79766,9.2251648 C 160.14618,10.731077 151.63741,12.95254 143.15247,15.193858 C 137.37099,16.893404 131.43157,18.545747 126.26864,21.742034 C 123.69212,23.706884 121.62269,26.37462 118.5364,27.620946 C 113.60129,29.958111 108.16095,31.504789 104.00026,35.210827 C 99.336882,38.939095 95.553175,43.878072 90.136658,46.588263 C 87.173256,47.782304 83.774838,48.361316 81.567903,50.896664 C 67.817783,63.524225 55.23384,77.409133 43.828,92.183 C 50.89906,79.830772 59.793753,68.485596 70.303702,58.873248 C 74.823431,54.543065 78.905597,49.596299 84.321095,46.332117 C 86.98472,45.074704 90.081175,44.727878 92.392745,42.757018 C 98.65771,38.230956 103.39542,31.593993 110.68757,28.536141 C 115.17092,26.666582 119.36279,24.217767 123.67013,21.993007 C 136.62989,15.313876 151.03457,12.429821 165.14561,9.3047598 C 181.2829,5.7944003 197.86402,4.067368 214.37427,5.0432652 C 218.5308,5.5090158 222.86058,4.0291971 226.89172,5.500708 C 229.56771,6.7555312 231.66558,9.1199973 234.66349,9.7107827 C 241.99021,12.114129 249.77904,11.970744 257.34863,12.890011 C 262.72899,14.206232 266.98271,18.09015 272.17293,19.909989 C 282.89403,24.225625 294.06525,28.028891 303.35419,35.124929 C 307.04235,37.934259 311.0965,40.273311 315.52945,41.678932 C 319.36484,43.140715 323.58963,44.057482 326.76902,46.792554 C 328.10975,48.472107 328.25196,50.931116 330.1356,52.230032 C 334.50547,56.311973 340.46556,58.110676 344.87217,62.124228 C 349.57752,66.929424 352.75049,73.010109 357.58794,77.708785 C 368.16417,89.01708 379.11744,100.31583 386.65517,113.97153 C 390.78553,121.14198 392.20202,129.39176 395.29926,136.9833 C 395.41324,137.25564 395.52978,137.52694 395.64899,137.797 z M 401.17899,157.842 C 396.8138,144.73131 392.08396,131.74087 387.09896,118.85459 C 381.09787,104.71013 369.97321,93.742075 359.53831,82.810141 C 354.0558,77.13028 348.76853,71.247525 344.09305,64.878625 C 340.67165,60.179354 335.11181,58.005906 330.61743,54.584648 C 328.04333,53.021837 327.22465,49.950401 325.146,47.94 C 320.72815,43.875379 314.35023,44.004808 309.12085,41.612161 C 300.99177,37.979816 295.14081,30.725126 286.96985,27.146512 C 280.43138,24.182256 273.85055,21.310265 267.3015,18.36925 C 264.3042,17.2827 261.13613,15.3667 257.85263,16.3985 C 254.05679,17.432716 250.12703,16.295117 246.38767,15.529088 C 242.39601,14.563598 238.50834,13.23048 234.594,12 C 229.93415,15.354196 223.84207,17.200744 220.76352,22.382536 C 218.85966,24.748262 223.65301,24.038295 224.92039,25.326728 C 227.60104,26.541506 229.94591,28.630433 231.139,31.355 C 233.83716,30.385077 237.05716,31.156979 239.47826,29.411857 C 240.80561,27.311778 238.2989,24.284186 239.42713,21.74925 C 239.70624,19.887636 242.40177,17.009879 243.81622,18.077075 C 244.90215,20.274233 244.82806,22.752683 244.965,25.135 C 247.51016,26.091307 249.3701,23.694358 251.62631,23.250432 C 254.76852,23.265547 251.48289,26.408593 251.22249,28.062367 C 250.33761,29.765968 249.33545,32.067597 247.46772,32.671478 C 244.08796,31.68902 240.78677,33.28483 237.95466,34.986709 C 235.98916,36.718956 233.81995,35.736758 231.6281,35.178239 C 225.34598,33.769253 218.71981,35.573781 213.47517,39.158839 C 210.96004,40.780113 208.62904,42.661608 206.26,44.484 C 204.34723,43.241871 199.3678,43.754712 199.72785,45.897015 C 202.41862,45.96037 204.22342,48.442865 204.5487,50.923217 C 205.46082,52.995767 204.40419,54.220034 202.2467,54.298111 C 196.28241,55.642244 189.8721,54.539985 184.13479,56.925373 C 181.25878,57.610385 182.15485,60.626367 181.80637,62.836699 C 181.53836,65.605406 180.86976,68.414033 179.298,70.75 C 184.33092,71.48913 190.07972,70.88798 194.12832,74.54725 C 195.78484,75.131927 197.84278,73.358699 199.46265,72.61856 C 206.7907,68.05166 211.0973,59.58523 219.32148,56.296917 C 220.81127,55.900198 222.98499,55.216264 221.45951,53.339454 C 221.62147,50.778659 225.17351,53.374367 226.83449,53.054986 C 229.4125,53.319915 232.0111,53.250537 234.593,53.469 C 238.80916,58.958893 245.9257,60.526736 251.63886,63.903937 C 253.29684,65.197626 256.70931,66.505889 256.43803,68.746189 C 255.22271,70.143559 251.93136,68.954948 251.873,71.44 C 254.11198,71.025387 257.16795,71.926111 258.84482,71.810993 C 259.47938,68.812998 258.29522,65.494089 255.60862,63.883337 C 250.99534,60.746045 244.63477,60.336287 241.01766,55.740207 C 239.64826,53.917135 239.24301,51.554533 239.434,49.325 C 242.81465,48.593114 246.01923,50.552361 248.12165,53.05363 C 250.8829,56.1657 253.81878,59.886866 258.28334,60.31469 C 261.73132,59.984852 262.56965,64.45479 264.10027,66.821439 C 266.31012,68.247204 269.45341,69.118473 271.73363,70.896118 C 273.89676,72.220283 276.28999,73.263132 278.835,73.515 C 278.24115,70.495267 274.27388,69.609138 274.02666,66.418261 C 273.51554,63.959934 276.09531,62.410685 278.17596,62.057812 C 280.16741,61.172008 283.75294,62.317051 284.29242,59.621748 C 284.89361,57.447546 284.29216,54.780991 286.00722,53.043302 C 288.57795,52.453279 291.45435,53.082994 294.13469,53.241249 C 300.57808,54.048505 307.46149,55.489649 312.27988,60.155314 C 313.7036,61.631813 316.09769,64.335762 312.83022,65.109504 C 307.26361,67.787616 300.91746,66.322274 295.08946,65.517127 C 292.00854,65.100209 288.82855,64.520105 285.745,65.22 C 285.99447,69.635965 289.30045,73.543728 293.23892,75.31236 C 297.58021,77.201928 302.46893,73.880659 306.69242,76.24019 C 309.90454,78.07826 312.89835,80.792769 314.22897,84.318948 C 314.84991,86.567827 311.94886,89.054499 314.32712,90.961906 C 315.98351,92.076715 317.43622,94.74144 314.776,95.636 C 317.55495,97.057123 320.18027,99.522053 320.28131,102.84953 C 321.12631,104.26527 323.13104,105.08291 324.33555,106.38573 C 332.71227,113.70944 339.02386,122.97497 345.65737,131.81557 C 351.14005,139.92921 353.29111,150.11264 360.397,157.151 C 365.97625,156.16735 371.20327,152.67523 373.57895,147.43386 C 376.94333,140.17502 376.39043,131.85863 375.28408,124.14633 C 375.59485,121.79575 373.52895,120.94921 371.87439,119.88005 C 370.42274,118.90973 368.99694,117.82425 367.996,116.371 C 368.32963,118.63653 366.92836,122.37155 364.27494,121.63384 C 359.4713,116.88737 353.52055,112.47124 351.72578,105.61472 C 351.35169,103.93067 350.86027,100.86287 351.67057,99.959098 C 362.78946,107.69973 372.62644,117.13106 383.897,124.666 C 389.046,129.04723 390.57861,135.9055 392.43066,142.09093 C 394.10539,147.88232 396.27462,153.97772 401.17899,157.842 z M 374.914,166.138 C 370.24824,164.27202 365.44178,166.65998 360.70555,166.7154 C 358.30581,166.92715 355.95966,166.1101 355.8623,163.32576 C 355.34748,160.25248 353.948,157.84021 351.04892,156.58952 C 344.58497,151.62811 342.11208,143.29725 336.1984,137.84154 C 333.92615,136.12928 331.4203,134.48676 330.21902,131.78757 C 326.90841,125.76816 327.75189,118.03152 323.02976,112.69969 C 319.83923,109.09563 314.92209,106.60815 313.67509,101.61058 C 312.92957,100.18327 314.2798,96.482398 311.88986,98.443142 C 309.27605,100.01506 305.72998,101.08193 303.027,99.093 C 301.01465,97.412217 302.54826,94.502281 301.53044,92.438502 C 298.88819,92.2124 295.90599,93.23039 293.10037,92.739284 C 286.85864,92.284133 281.09357,89.672831 275.376,87.343 C 273.49518,89.907794 277.23377,92.725409 275.55588,95.364562 C 273.90267,97.284876 271.01983,96.979914 268.72005,97.053066 C 266.50768,97.151143 264.34022,97.341655 263.60834,94.790842 C 258.91998,87.758859 251.06039,82.332533 242.37437,82.450225 C 239.58559,83.156585 241.45264,79.067159 239.90958,77.550155 C 238.0939,74.074349 233.72174,73.427886 230.17908,73.528983 C 220.12329,73.885256 210.7195,77.932657 200.88991,79.611102 C 198.00905,80.228814 195.16086,79.042188 192.96311,77.228209 C 191.2729,75.73154 188.71844,75.59818 186.906,76.972 C 189.78122,76.667154 189.14979,79.929913 187.08384,80.628603 C 177.64524,88.904033 171.25164,100.41945 160.36906,107.07625 C 158.65892,108.50909 155.83522,108.61673 155.00486,110.88145 C 151.8577,116.42382 148.4166,121.79813 145.436,127.435 C 148.00621,132.9496 147.00171,139.22013 145.37732,144.84276 C 144.48445,148.20354 143.53479,151.58824 143.36,155.08 C 148.41236,158.80361 152.73628,163.99495 153.88398,170.31807 C 154.45689,172.76319 153.7401,175.56855 156.53867,176.64364 C 160.38756,179.85852 162.84685,185.0318 167.96539,186.49654 C 172.98551,187.8418 177.84572,185.23455 182.43956,183.52645 C 186.80381,181.84473 191.95306,179.89419 196.44225,182.25548 C 198.63368,182.95042 199.30393,185.94852 201.75483,185.80372 C 207.67117,186.43106 212.52446,182.32892 217.99079,180.90544 C 224.02795,179.53705 230.21123,181.91428 235.01742,185.50983 C 237.481,187.25916 239.78609,189.21712 242.204,191.027 C 242.72419,192.63634 238.54366,195.01391 241.15553,195.19078 C 243.77512,195.20219 245.18477,197.86356 245.16088,200.21272 C 245.43898,203.88649 244.51919,207.77125 246.23358,211.21983 C 251.23655,224.087 259.01193,236.02094 261.36258,249.81233 C 262.24749,254.56249 262.00815,259.73161 259.4222,263.94268 C 257.01459,267.83577 255.04716,272.24923 255.37436,276.9339 C 255.55077,283.40868 261.22038,288.24513 261.17707,294.75033 C 261.12435,297.96757 261.17248,301.23157 262.25404,304.30503 C 263.86066,310.24368 266.94082,315.89723 267.0887,322.15405 C 266.89728,324.99342 265.4956,327.92982 266.8321,330.70323 C 267.61969,333.44012 270.16495,335.7491 273.13848,335.41219 C 278.89136,334.8303 283.64828,331.1464 288.81043,328.8783 C 292.19066,327.52195 295.69578,326.36191 298.71571,324.25815 C 306.77312,318.93805 312.63042,310.87497 316.856,302.309 C 319.69661,302.05597 321.60136,299.72432 323.765,298.158 C 323.40114,293.63239 325.30748,289.36917 327.66224,285.62911 C 329.03573,283.29721 330.2515,280.81072 330.674,278.112 C 340.94268,272.32517 347.27324,261.11109 348.7985,249.62254 C 349.70499,243.24049 349.31261,236.71111 347.954,230.422 C 354.03936,212.26602 366.46701,196.96605 372.05391,178.60463 C 373.32527,174.5306 374.28608,170.35955 374.914,166.138 z M 365.23199,120.517 C 366.83846,117.75632 366.89857,113.95948 364.53798,111.59726 C 361.25086,107.98197 356.27469,106.60825 352.793,103.237 C 354.09351,109.35332 358.60292,113.97273 362.94648,118.15862 C 363.72146,118.93183 364.48994,119.71199 365.23199,120.517 z M 346.573,137.10699 C 346.05448,135.09488 343.40459,131.20155 342.59891,131.35897 C 343.44803,133.55159 344.7846,135.56867 346.573,137.10699 z M 309.936,93.561996 C 311.41909,93.295738 315.37595,94.463268 313.25789,92.10129 C 311.93556,90.116713 311.34762,87.55845 312.39783,85.31931 C 312.88592,83.53744 310.30262,82.231072 309.23314,80.884495 C 305.13374,77.095423 299.21337,76.0919 293.83788,76.905341 C 291.53537,75.797613 289.24061,73.642929 287.02725,72.016744 C 285.28205,70.342194 282.17939,66.976049 284.99442,64.96242 C 288.21485,62.353303 292.69046,63.289638 296.44533,63.838162 C 301.39692,64.587903 306.60976,66.206417 311.51907,64.44335 C 314.10618,63.563969 310.40092,60.880916 309.26577,59.860482 C 303.57415,55.98981 296.47773,55.323982 289.82377,54.52232 C 288.17374,54.456831 285.5632,53.359873 286.67799,55.994962 C 287.04895,58.617942 285.86517,61.545709 283.22638,62.485375 C 280.92036,63.816938 276.21794,63.714725 276.07151,67.017141 C 276.36155,69.842544 280.5607,69.680369 280.87193,72.493207 C 279.6152,74.24226 276.42484,74.260585 274.28387,73.93022 C 268.58812,72.760197 263.49383,68.853754 260.72465,63.761643 C 259.99514,61.33195 256.46207,62.43009 254.66023,60.840649 C 249.65258,58.298529 246.61084,53.109419 241.51,50.707 C 241.61925,54.792358 245.32666,57.345219 248.68295,58.907907 C 252.41086,60.824064 256.79481,61.877184 259.66711,65.114111 C 261.91154,67.846132 260.48957,71.603586 258.79,74.207 C 256.12086,73.09672 252.6837,74.001416 250.46559,71.863461 C 248.34628,69.317939 251.91151,68.230208 253.89305,67.97578 C 255.65579,66.774326 251.61527,66.307033 250.73666,65.499482 C 244.71087,62.728282 238.39945,59.91114 233.905,54.858 C 229.64901,53.90345 225.06607,54.635256 221.42178,57.06387 C 218.64759,58.791544 215.80957,60.690137 212.48,61.078 C 211.28931,66.286077 206.80819,69.744523 202.40784,72.261661 C 199.94921,73.741596 197.42029,75.140267 195.199,76.973 C 207.72199,76.977466 219.68262,72.306843 232.19108,72.092614 C 234.28716,72.436667 237.34798,71.128983 238.71164,73.036422 C 240.31592,75.257479 241.61822,77.74022 242.2,80.434 C 249.86492,81.518863 258.07188,84.213715 262.73851,90.805014 C 264.2665,92.577542 264.4155,95.760791 267.36469,95.428767 C 269.59063,95.715584 272.20701,95.860205 273.996,94.253 C 273.8263,91.637279 272.62772,88.735477 274.03663,86.281452 C 275.69272,84.21127 278.77083,85.806137 280.71747,86.670355 C 282.95305,87.80281 284.59252,89.919363 286.87303,90.907018 C 291.92839,91.605439 297.03212,88.995495 302.03684,90.51764 C 303.8594,90.996546 304.97623,92.389696 303.49085,93.912352 C 302.3586,96.379624 304.79472,98.879469 307.34233,98.402174 C 309.40352,98.812639 312.1418,97.142646 309.91625,95.265125 C 309.21781,94.805729 309.31283,94.018893 309.936,93.561996 z M 249.806,26.516001 C 247.74101,27.483921 244.77965,27.36027 243.61822,25.102341 C 242.59475,23.849148 242.64508,21.171393 241.97988,20.46992 C 239.94137,22.347356 241.20404,25.298577 242.02967,27.457196 C 242.18064,29.211808 239.22402,29.980719 239.436,32.047 C 242.20158,30.578142 245.67489,31.601461 248.30599,29.863501 C 249.31266,29.06316 249.67468,27.741172 249.806,26.516001 z "
   style="fill:#3f3f3f" />
			<path
   id="path1409"
   d="M 388.043,121.213 C 392.61028,133.35363 397.10915,145.52393 401.179,157.842 C 395.81877,153.60444 393.75435,146.78782 391.96143,140.48107 C 390.26173,134.7212 388.55878,128.37909 383.63169,124.48758 C 372.38506,116.92368 362.55141,107.49283 351.414,99.781 C 350.49797,105.44661 353.40295,110.8984 357.26328,114.83945 C 359.56481,117.32052 362.1588,119.5042 364.543,121.902 C 367.526,122.08293 367.97247,117.71409 368.15993,116.59859 C 369.9029,118.94085 372.59601,120.23341 374.914,121.902 C 376.24694,129.84592 377.09635,138.33155 374.19384,146.03982 C 372.27012,151.29926 367.64014,155.33516 362.23237,156.70835 C 359.14697,158.08642 357.82144,153.54238 356.07995,151.69986 C 351.45147,144.36625 349.15202,135.7027 343.55661,128.95259 C 336.60496,119.73486 329.83724,110.0088 320.308,103.236 C 320.34251,100.00639 318.02224,97.367828 315.29598,95.939694 C 314.20621,95.432328 317.66523,94.270008 316.04979,92.874437 C 314.24991,91.193937 312.33046,88.881141 314.09278,86.425531 C 315.01155,83.854355 312.79823,81.558454 311.25285,79.767631 C 308.81623,77.262404 305.56049,74.799743 301.84725,75.404158 C 298.46728,75.786704 294.6942,76.640448 291.67966,74.511283 C 288.55746,72.455442 285.91025,69.073913 285.747,65.221 C 290.85737,64.229267 295.97687,65.923701 301.05867,66.365272 C 305.69767,66.892254 310.95871,66.952091 314.777,63.842 C 312.29885,58.223123 306.0919,55.668565 300.48857,54.328499 C 295.88823,53.248807 291.15277,52.842366 286.436,52.781 C 284.33035,54.11133 284.88228,56.938156 284.41339,59.04936 C 284.40672,62.052609 280.91811,61.285913 278.88914,61.906246 C 276.73562,62.228411 273.79722,63.423996 273.99314,66.044451 C 273.98626,68.846294 276.84054,70.05037 278.23457,72.066659 C 280.08381,74.764064 275.44559,72.683309 274.27311,72.248421 C 270.9036,70.70343 268.00832,68.122811 264.321,67.296 C 262.78812,64.925079 261.98617,60.440536 258.73587,60.360799 C 254.21805,60.140939 251.10754,56.496207 248.37397,53.326592 C 246.30138,50.855764 243.26938,48.703527 239.87503,49.264872 C 238.70451,50.590156 239.78415,53.714795 240.74078,55.335354 C 243.79448,59.74174 249.49381,60.538573 253.94778,62.895419 C 256.82522,64.183515 259.25475,66.982064 258.99009,70.293018 C 259.53771,73.617657 255.74998,70.716029 253.82821,71.394078 C 252.5313,71.742186 251.02295,71.217959 252.56798,70.060218 C 253.96821,69.596389 258.24184,69.231022 255.89572,67.089651 C 249.8685,61.149565 240.30691,60.45091 234.8433,53.794551 C 232.93167,52.888116 230.28547,53.493482 228.09337,53.167125 C 225.87748,53.458636 223.26923,51.547001 221.45617,52.6541 C 222.39304,54.545766 221.80925,55.975088 219.58101,56.19364 C 211.89003,59.147777 207.55774,66.667064 201.1854,71.445874 C 199.16997,72.952121 196.91743,74.155236 194.511,74.902 C 190.8248,71.173862 185.29713,71.439751 180.46948,70.89076 C 178.03675,71.001624 181.31863,68.246782 181.10031,66.76503 C 181.87259,64.01784 181.96533,61.14504 182.065,58.311 C 185.33534,55.470871 189.97392,55.536229 194.05218,55.176378 C 197.68698,54.907571 201.45645,54.883157 204.876,53.47 C 204.70584,50.726253 204.08077,47.179368 201.08964,46.181008 C 200.01865,45.966288 198.64775,45.899856 200.07354,44.766046 C 202.64028,42.329795 206.26942,45.92857 208.32574,42.887266 C 213.76433,38.533315 220.16343,34.468124 227.40543,34.709347 C 230.0944,34.753462 232.75839,35.307266 235.293,36.19 C 238.91378,34.91015 242.11568,31.805773 246.22607,32.458599 C 248.53859,33.453011 249.79578,30.591692 250.77741,28.976379 C 251.39984,27.249064 253.03005,25.031511 252.95417,23.587536 C 250.53247,22.263985 248.85951,25.424318 246.47277,25.2935 C 243.5344,25.506715 245.56863,21.246906 244.328,19.432813 C 244.08374,15.932722 240.50927,18.904316 239.77629,20.731756 C 238.70533,23.251828 239.38484,26.079579 240.126,28.591 C 238.67261,30.88367 235.59128,30.486153 233.25409,30.897835 C 230.38939,32.428415 230.25174,28.564129 228.13781,27.361634 C 225.85915,25.421875 222.9678,24.381834 220.08,23.751 C 222.17857,18.718247 227.41808,16.342261 231.84459,13.762889 C 233.43634,12.709562 234.91041,11.436127 236.78294,12.695744 C 242.86404,14.610877 249.04389,16.727743 255.48057,16.830264 C 257.82976,16.521698 260.25076,15.518844 262.57118,16.583268 C 269.48709,18.955004 275.95054,22.440549 282.70847,25.208188 C 287.54748,27.213549 292.20608,29.688377 296.29646,32.986118 C 301.51181,37.006287 306.74029,41.46842 313.29447,43.067222 C 317.7939,44.276728 322.88542,45.116816 326.04034,48.902969 C 327.51848,51.190937 328.88293,53.65197 331.30087,55.101151 C 335.66964,58.2081 340.84248,60.429857 344.09505,64.879625 C 349.45648,72.219497 355.68906,78.853144 361.99651,85.378095 C 372.22993,96.036897 382.78754,107.11385 388.043,121.213 z "
   style="fill:#3f3f3f" />
			<path
   id="path1411"
   d="M 371.453,258.07001 C 373.83491,257.98536 370.84689,260.55551 370.88883,261.9406 C 367.44004,270.04034 362.479,277.36339 358.62977,285.26363 C 356.07372,290.06335 353.21078,294.99166 348.648,298.155 C 347.90414,292.20646 350.25773,286.46195 353.263,281.46401 C 355.17304,277.94345 357.60946,274.33634 357.40001,270.15238 C 357.34281,268.16034 357.91334,265.5884 360.21367,265.14819 C 361.42921,264.57455 363.51909,265.4954 361.22986,266.17768 C 359.80696,266.86659 360.3398,268.4384 361.77652,267.1801 C 365.91223,265.27661 368.68685,261.52434 371.453,258.07001 z "
   style="fill:#3f3f3f" />
			<path
   id="path1413"
   d="M 356.93701,166.138 C 362.78474,168.20103 368.77851,163.9151 374.61746,166.03191 C 375.12788,167.4806 374.11353,169.79417 373.91983,171.5598 C 371.21153,184.43686 364.91363,196.14705 358.58167,207.54489 C 354.54204,214.91992 350.65057,222.43262 347.952,230.419 C 350.73714,242.96066 349.36984,256.94029 341.92357,267.69012 C 338.99813,271.93048 335.15946,275.56227 330.672,278.109 C 329.78554,284.24365 324.49035,288.68715 323.88953,294.91212 C 323.98745,297.16219 323.63996,298.91266 321.47297,300.01236 C 319.89293,302.11203 316.49863,301.44566 315.89292,304.20392 C 311.02603,313.36785 304.13199,322.00823 294.58933,326.55675 C 291.47176,327.91668 288.19314,328.903 285.2493,330.65235 C 281.16476,332.66285 277.06358,335.40952 272.35194,335.40576 C 269.02784,335.37995 267.00871,332.19232 266.391,329.26 C 265.76281,326.13433 267.67422,323.09305 266.94423,319.94625 C 265.92462,312.87301 262.0531,306.52693 261.25041,299.41172 C 261.07822,295.98436 261.55254,292.38497 259.95797,289.19614 C 258.06759,284.88725 255.13344,280.73668 255.34743,275.81678 C 255.32423,271.40401 257.32764,267.37912 259.55374,263.69565 C 262.36591,259.0182 262.15881,253.29004 261.05606,248.13095 C 258.22672,234.30601 250.21589,222.37362 245.50961,209.21795 C 244.4845,205.21183 246.15324,200.83228 244.31416,197.00033 C 243.71925,195.17282 240.94324,195.46299 240.19614,194.8483 C 240.82463,193.28931 243.67933,191.2434 240.96553,190.0808 C 235.6381,185.88581 230.03804,181.03394 222.94448,180.57835 C 219.08096,180.10935 215.40411,181.57522 212.01526,183.24818 C 208.33112,184.99948 204.15842,186.61562 200.041,185.494 C 197.87947,182.29451 193.87966,180.56916 190.06575,181.27443 C 183.35466,182.16336 177.58612,186.64072 170.75002,186.88567 C 166.68923,186.98761 163.35261,184.23488 160.91608,181.26264 C 158.95693,179.02016 157.02684,176.6455 154.419,175.123 C 154.40009,168.77164 151.71972,162.51192 147.02927,158.21174 C 145.64608,156.45564 142.39892,155.61553 143.56287,152.89255 C 144.54797,145.64279 148.24438,138.56059 146.61677,131.1137 C 145.87973,128.86198 144.98281,126.80578 146.83873,124.85016 C 149.72959,119.66534 152.91957,114.65394 155.798,109.462 C 164.87045,105.59264 171.39947,97.893468 177.63077,90.550502 C 181.13993,86.462329 184.73765,82.396825 188.979,79.045 C 189.68993,77.517096 187.2368,76.812653 187.14791,76.824111 C 189.18869,75.317646 191.83284,76.075771 193.5649,77.651611 C 195.83207,79.568749 198.91956,80.153407 201.77643,79.472936 C 211.64476,77.600978 221.17927,73.543883 231.34417,73.528829 C 234.73908,73.536499 238.81573,74.631748 240.17323,78.115334 C 241.32571,79.886147 239.70469,83.487752 242.88126,82.452578 C 251.69859,82.540361 259.51438,88.283222 264.09601,95.523215 C 265.02736,98.158706 268.35846,96.638147 270.5394,97.035856 C 272.47357,96.921875 275.26368,96.800279 275.89748,94.547142 C 276.55327,92.07578 273.65654,89.671664 275.374,87.34 C 282.42948,90.271186 289.8197,93.503116 297.64722,92.712303 C 299.49045,92.401254 302.58048,91.418548 301.90578,94.53199 C 301.68159,96.675995 302.04443,99.427845 304.62637,99.888288 C 307.75598,100.96467 310.68994,99.001728 313.396,97.704 C 312.87365,101.59967 314.86771,105.34571 317.77126,107.82286 C 320.80154,110.53165 324.27785,113.1061 325.68933,117.09438 C 327.93667,122.8217 327.83236,129.57975 332.0122,134.45287 C 334.26056,136.64876 337.20113,138.11696 338.94291,140.83166 C 343.50043,146.62129 346.40041,154.10844 353.0599,157.93459 C 355.83089,159.50711 355.30083,163.60169 356.937,166.138 L 356.93701,166.138 z "
   style="fill:#3f3f3f" />
			<path
   id="path1415"
   d="M 247.04201,397.686 C 257.58587,395.17236 267.52099,389.65649 278.57695,389.65543 C 280.08267,389.86973 283.01649,389.3898 283.53334,390.51534 C 281.88057,394.52386 277.31493,395.9894 273.4935,397.1104 C 261.47655,400.28248 248.9608,400.4287 236.64905,401.49772 C 229.42247,401.98541 222.24884,403.01008 215.14716,404.42195 C 207.22474,405.90131 198.95529,406.62664 191.057,404.602 C 209.76583,402.77775 228.69501,402.11001 247.04201,397.686 z "
   style="fill:#3f3f3f" />
			<path
   id="path1417"
   d="M 74.933998,349.306 C 83.050362,358.93717 90.292964,369.31927 99.124,378.336 C 91.674913,375.73142 86.538347,369.35978 81.640903,363.51056 C 77.135268,358.00345 72.403531,352.45238 66.134064,348.88532 C 61.096947,345.85632 55.601653,342.87354 52.607774,337.57109 C 47.252358,328.96182 44.691325,318.66136 37.652237,311.11247 C 33.50042,306.39307 28.671704,301.44769 28.006506,294.86921 C 27.20471,292.31494 24.75688,290.30315 23.815339,287.64182 C 19.20984,278.11181 18.019358,267.31779 13.144754,257.89535 C 10.997351,253.73166 9.5933651,249.23899 8.8606278,244.6189 C 5.9061273,227.63347 7.5157048,210.29282 9.4768922,193.29247 C 10.138698,186.97697 11.246478,180.69963 11.554712,174.35398 C 11.590381,171.15549 11.634381,167.2348 14.63491,165.27193 C 16.177943,164.04903 16.016289,167.79194 17.445282,168.4986 C 19.174751,170.48812 21.551474,171.71803 23.783,173.046 C 24.978029,178.82465 26.524991,185.19623 31.354265,189.06726 C 33.09227,190.4331 35.506276,190.75043 35.500255,193.39083 C 37.344895,198.52701 41.580754,202.65428 42.239711,208.24296 C 42.371511,209.95484 42.11307,211.63099 44.338916,211.17631 C 49.132788,211.74067 52.742981,215.93104 57.688123,215.90975 C 59.870832,215.38738 59.638168,218.41786 60.778191,219.66638 C 62.483909,223.09056 65.971676,225.57523 69.845008,225.65578 C 72.075476,225.28266 73.779448,225.82209 74.655983,228.05733 C 76.114373,230.3403 77.270383,232.79739 78.39,235.259 C 72.691458,244.74449 71.853832,256.11043 71.468116,266.9099 C 71.178598,273.87709 71.362318,280.88406 70.587605,287.81886 C 69.541856,290.16195 69.997621,294.7387 66.520959,294.15024 C 62.70526,294.72154 60.542572,298.68818 60.593916,302.27937 C 60.535382,305.8406 61.732481,309.66667 64.565,311.98 C 63.068488,316.41553 61.976019,321.09635 62.49,325.806 C 61.728629,329.06748 59.374391,322.06052 57.656,325.117 C 57.81101,328.94282 59.863564,332.99894 63.71277,334.22036 C 65.780563,334.1493 66.901683,335.84745 65.183189,337.39552 C 62.595603,338.59051 62.636962,341.56696 64.991418,342.96384 C 67.278849,345.88416 70.101716,348.9688 74.059702,349.24027 C 74.350223,349.27266 74.641933,349.29418 74.933998,349.306 z "
   style="fill:#3f3f3f" />
		</g>
		<g
   id="g1419">
		</g>
	</g>
</svg>