<?xml version="1.0" encoding="UTF-8" standalone="no"?>
<!-- Generator: Adobe Illustrator 12.0.0, SVG Export Plug-In . SVG Version: 6.00 Build 51448)  -->
<svg
   xmlns:dc="http://purl.org/dc/elements/1.1/"
   xmlns:cc="http://web.resource.org/cc/"
   xmlns:rdf="http://www.w3.org/1999/02/22-rdf-syntax-ns#"
   xmlns:svg="http://www.w3.org/2000/svg"
   xmlns="http://www.w3.org/2000/svg"
   xmlns:xlink="http://www.w3.org/1999/xlink"
   xmlns:sodipodi="http://inkscape.sourceforge.net/DTD/sodipodi-0.dtd"
   xmlns:inkscape="http://www.inkscape.org/namespaces/inkscape"
   version="1.0"
   width="48"
   height="50"
   viewBox="0 0 413.431 433.854"
   overflow="visible"
   enable-background="new 0 0 413.431 433.854"
   xml:space="preserve"
   id="svg1550"
   sodipodi:version="0.32"
   inkscape:version="0.42+devel"
   sodipodi:docname="globe2.svg"
   sodipodi:docbase="C:\Documents and Settings\Administrator\My Documents\ikonas\pareizi"><metadata
   id="metadata1602"><rdf:RDF><cc:Work
       rdf:about=""><dc:format>image/svg+xml</dc:format><dc:type
         rdf:resource="http://purl.org/dc/dcmitype/StillImage" /></cc:Work></rdf:RDF></metadata><defs
   id="defs1600">
	

	<radialGradient
   gradientUnits="userSpaceOnUse"
   r="294.0152"
   cy="125.5044"
   cx="59.100601"
   id="XMLID_3_">
		<stop
   id="stop1554"
   style="stop-color:#FFFFFF"
   offset="0" />
		<stop
   id="stop1556"
   style="stop-color:#FAFAFA"
   offset="0.1623" />
		<stop
   id="stop1558"
   style="stop-color:#EBEBEB"
   offset="0.3591" />
		<stop
   id="stop1560"
   style="stop-color:#D2D2D2"
   offset="0.5739" />
		<stop
   id="stop1562"
   style="stop-color:#B1B1B1"
   offset="0.7998" />
		<stop
   id="stop1564"
   style="stop-color:#8C8C8C"
   offset="1" />
	</radialGradient>
	
<radialGradient
   inkscape:collect="always"
   xlink:href="#XMLID_3_"
   id="radialGradient1647"
   gradientUnits="userSpaceOnUse"
   cx="59.100601"
   cy="125.5044"
   r="294.0152" /></defs><sodipodi:namedview
   inkscape:window-height="975"
   inkscape:window-width="1280"
   inkscape:pageshadow="2"
   inkscape:pageopacity="0.0"
   borderopacity="1.0"
   bordercolor="#666666"
   pagecolor="#ffffff"
   id="base"
   inkscape:zoom="10.271625"
   inkscape:cx="29.398131"
   inkscape:cy="16.828495"
   inkscape:window-x="-4"
   inkscape:window-y="-4"
   inkscape:current-layer="svg1550" />

<g
   id="g1628"
   transform="matrix(1.029347,0.000000,0.000000,1.067077,-9.379105,-8.286843)"><circle
     cx="209.601"
     cy="211.004"
     r="201.5"
     id="circle1566"
     sodipodi:cx="209.601"
     sodipodi:cy="211.004"
     sodipodi:rx="201.5"
     sodipodi:ry="201.5"
     style="fill:url(#radialGradient1647)" /><g
     id="XMLID_4_">
		<g
   id="g1570">
			<path
   d="M 237.868,36.292 C 237.1,36.326 236.373,36.292 235.679,36.203 C 236.548,36.189 237.289,36.216 237.868,36.292 z "
   id="path1572" />
			<radialGradient
   id="XMLID_5_"
   cx="162.09129"
   cy="18.2397"
   r="139.8127"
   gradientUnits="userSpaceOnUse">
				<stop
   offset="0"
   style="stop-color:#FFFFFF"
   id="stop1575" />
				<stop
   offset="1"
   style="stop-color:#000000"
   id="stop1577" />
			</radialGradient>
			<path
   d="M 239.917,34.906 C 244.654,35.4 248.063,33.548 250.152,29.348 C 246.581,30.158 244.283,29.327 243.265,26.864 C 243.245,25.67 243.036,24.407 242.645,23.097 C 242.645,24.62 242.847,25.876 243.265,26.864 C 243.333,29.911 242.215,32.593 239.917,34.906 z M 256.291,15.453 C 310.283,20.284 421.132,116.7 400.223,178.01 C 401.605,166.42 387.563,130.32 375.663,126.601 C 371.242,152.745 362.382,159.208 352.376,154.817 C 349.512,152.93 346.602,150.899 343.73,148.737 C 333.859,139.439 323.786,122.6 316.32,105.761 C 314.723,122.469 328.596,137.366 343.73,148.737 C 346.655,151.496 349.559,153.589 352.376,154.817 C 361.452,160.815 370.017,165.425 374.982,168.28 C 380.655,185.737 351.951,237.091 349.29,255.116 C 346.251,275.743 321.602,305.262 308.841,321.546 C 269.578,371.645 266.486,312.207 254.242,285.686 C 252.302,265.094 263.137,259.948 255.61,237.749 C 253.528,231.622 240.483,213.637 244.694,204.408 C 237.942,163.436 168.614,210.206 154.444,168.369 C 148.824,151.798 145.071,142.795 155.455,123.678 C 162.739,110.277 188.014,92.449 183.984,80.757 C 184.718,78.259 186.288,76.619 190.122,77.278 C 181.558,68.845 169.463,49.535 203.768,56.439 C 203.572,52.651 201.752,50.106 198.31,48.802 C 201.126,41.144 226.171,36.286 235.679,36.203 C 236.373,36.292 237.101,36.327 237.868,36.292 C 237.289,36.216 236.548,36.189 235.679,36.203 C 229.069,35.325 225.646,29.177 218.773,27.262 C 222.035,20.819 227.035,16.42 233.779,14.067 C 233.698,13.985 233.611,13.902 233.53,13.827 C 241.137,14.217 248.737,14.78 256.291,15.453 z M 310.182,100.896 C 317.122,76.242 288.458,91.557 283.574,69.641 C 288.31,61.16 304.301,71.871 312.224,66.862 C 300.048,40.952 280.286,64.81 280.844,75.892 C 275.413,79.392 267.49,74.369 259.889,68.152 C 259.182,67.226 258.184,66.444 257.019,65.737 C 251.116,60.68 245.638,55.451 241.966,53.66 C 242.303,60.776 251.527,62.409 257.019,65.737 C 257.969,66.553 258.925,67.363 259.889,68.152 C 261.479,70.217 261.634,73.01 259.02,77.278 C 255.941,76.015 250.416,77.244 250.153,73.113 C 250.497,70.917 254.048,71.988 254.924,70.334 C 223.336,55.156 221.51,58.786 196.262,80.057 C 213.532,80.002 273.151,87.173 273.413,92.127 C 273.412,83.817 309.623,101.15 310.182,100.896 z M 364.066,123.822 C 369.106,113.632 356.371,111.292 351.79,106.454 C 353.649,114.517 359.377,118.641 364.066,123.822 z M 345.651,140.496 C 344.755,137.936 343.38,135.857 341.554,134.245 C 342.457,136.804 343.825,138.883 345.651,140.496 z "
   id="path1579"
   style="fill:url(#XMLID_5_)" />
			<path
   d="M 343.73,148.737 C 346.601,150.899 349.511,152.93 352.376,154.817 C 349.56,153.588 346.655,151.496 343.73,148.737 z "
   id="path1581" />
			<path
   d="M 359.296,271.791 C 363.764,270.179 366.499,266.795 369.188,263.364 C 365.394,269.794 353.704,298.14 347.7,302.353 C 347.444,299.677 350.753,285.129 354.654,276.155 C 356.09,274.57 357.645,273.06 359.229,271.557 C 359.242,271.632 359.262,271.708 359.296,271.791 z "
   id="path1583" />
			<path
   d="M 359.977,269.011 C 363.386,269.423 358.953,269.903 359.229,271.557 C 357.645,273.06 356.089,274.57 354.654,276.155 C 356.398,272.126 358.258,269.224 359.977,269.011 z "
   id="path1585" />
			<path
   d="M 281.889,394.487 C 282.455,394.562 283.021,394.652 283.574,394.748 C 279.147,410.668 205.951,412.795 192.172,409.336 C 198.978,408.63 206.679,407.003 214.812,405.062 C 237.552,402.556 260.616,399.792 281.889,394.487 z "
   id="path1587" />
			<path
   d="M 214.811,405.061 C 237.317,399.702 263.07,391.934 281.889,394.487 C 260.616,399.792 237.552,402.556 214.811,405.061 z "
   id="path1589" />
			<path
   d="M 257.019,65.736 C 258.184,66.443 259.182,67.225 259.889,68.151 C 258.925,67.362 257.969,66.553 257.019,65.736 z "
   id="path1591" />
			<path
   d="M 242.646,23.097 C 243.038,24.408 243.247,25.67 243.266,26.864 C 242.848,25.875 242.646,24.62 242.646,23.097 z "
   id="path1593" />
			<path
   d="M 75.521,229.412 C 81.188,236.384 80.682,253.352 77.67,271.454 C 71.289,294.332 60.71,318.801 61.276,328.182 C 61.006,328.676 60.757,329.094 60.515,329.452 C 61.91,346.62 88.667,369.669 101.442,382.939 C 71.498,372.455 40.793,325.945 27.599,293.509 C 20.598,271.708 6.482,209.328 10.134,179.733 C 11.953,174.511 14.783,170.518 18.901,168.28 C 23.287,185.88 55.576,231.552 75.521,229.412 z "
   id="path1595" />
		</g>
		<g
   id="g1597">
		</g>
	</g></g>
</svg>