<?xml version="1.0" encoding="UTF-8" standalone="no"?>
<!-- Generator: Adobe Illustrator 12.0.0, SVG Export Plug-In . SVG Version: 6.00 Build 51448)  -->
<svg
   xmlns:dc="http://purl.org/dc/elements/1.1/"
   xmlns:cc="http://web.resource.org/cc/"
   xmlns:rdf="http://www.w3.org/1999/02/22-rdf-syntax-ns#"
   xmlns:svg="http://www.w3.org/2000/svg"
   xmlns="http://www.w3.org/2000/svg"
   xmlns:sodipodi="http://sodipodi.sourceforge.net/DTD/sodipodi-0.dtd"
   xmlns:inkscape="http://www.inkscape.org/namespaces/inkscape"
   version="1.0"
   width="45"
   height="45"
   viewBox="0 0 339.6 330.8"
   overflow="visible"
   enable-background="new 0 0 339.6 330.8"
   xml:space="preserve"
   id="svg1953"
   sodipodi:version="0.32"
   inkscape:version="0.44"
   sodipodi:docname="imac.svg"
   sodipodi:docbase="Z:\docs\Vectors\Dude\ikonas\svg"><metadata
   id="metadata1981"><rdf:RDF><cc:Work
       rdf:about=""><dc:format>image/svg+xml</dc:format><dc:type
         rdf:resource="http://purl.org/dc/dcmitype/StillImage" /></cc:Work></rdf:RDF></metadata><defs
   id="defs1979" /><sodipodi:namedview
   inkscape:window-height="809"
   inkscape:window-width="1123"
   inkscape:pageshadow="2"
   inkscape:pageopacity="0.0"
   guidetolerance="10.0"
   gridtolerance="10.0"
   objecttolerance="10.0"
   borderopacity="1.0"
   bordercolor="#666666"
   pagecolor="#ffffff"
   id="base"
   width="45px"
   inkscape:zoom="1"
   inkscape:cx="159.84524"
   inkscape:cy="133.88183"
   inkscape:window-x="337"
   inkscape:window-y="167"
   inkscape:current-layer="Layer_3"
   height="45px" />
<g
   id="Layer_6"
   transform="matrix(3.705982,0,0,3.705982,-465.7395,-445.4481)">
	<path
   d="M 173.639,196.116 L 191.218,197.969 C 191.218,197.969 191.139,202.098 191.139,203.515 C 191.139,204.931 190.219,205.994 189.015,206.276 C 189.015,206.276 179.528,209.109 175.987,209.039 C 172.447,208.968 169.192,208.756 167.067,208.473 C 164.942,208.189 153.076,206.36 151.729,206.163 C 151.344,206.105 151.415,204.498 152.57,204.473 C 154.622,204.424 160.1,203.888 161.303,203.745 C 162.507,203.603 171.223,203.18 172.324,201.711 C 173.194,200.548 173.672,200.524 173.672,198.472 L 173.639,196.116 z "
   id="path1956"
   style="fill:#d8d8d8" />
	<path
   d="M 173.454,196.258 L 190.518,197.391 C 190.518,197.391 190.446,200.86 190.446,202.277 C 190.446,203.693 189.527,204.755 188.323,205.038 C 188.323,205.038 178.835,207.87 175.295,207.8 C 171.756,207.729 168.499,207.517 166.375,207.234 C 164.25,206.951 154.054,205.391 152.709,205.179 C 151.364,204.967 151.571,204.404 153.674,204.246 C 155.721,204.093 159.506,203.906 160.709,203.764 C 161.912,203.622 170.834,203.055 171.826,201.993 C 172.817,200.931 173.597,200.648 173.597,198.595 L 173.454,196.258 z "
   id="path1958"
   style="fill:#eaeaea" />
</g>
<g
   id="Layer_5"
   transform="matrix(3.705982,0,0,3.705982,-465.7395,-445.4481)">
	<path
   d="M 200.791,120.935 C 200.791,120.935 201.42,120.778 203.711,121.029 C 206.003,121.28 208.263,122.724 208.388,123.478 C 208.514,124.231 204.994,193.998 204.618,195.944 C 204.241,197.891 203.423,198.479 202.481,198.544 C 201.54,198.606 191.589,198.396 189.491,197.843 C 190.087,198 197.678,198.587 198.469,197.371 C 199.473,195.834 199.348,195.77 199.473,194.139 C 199.599,192.506 203.334,125.142 203.398,123.385 C 203.46,121.627 201.922,121.218 202.236,121.344 C 202.549,121.469 200.791,120.935 200.791,120.935"
   id="path1961"
   style="fill:#e2e2e2" />
</g>
<g
   id="Layer_4"
   transform="matrix(3.705982,0,0,3.705982,-465.7395,-445.4481)">
	<path
   d="M 141.746,123.352 C 141.746,123.352 190.243,121.042 197.276,120.904 C 200.479,120.841 203.618,120.37 203.618,123.384 C 203.618,126.397 200.248,190.704 199.599,195.206 C 199.096,198.689 195.392,198.502 193.447,198.313 C 190.447,198.023 140.93,192.851 138.419,192.599 C 135.908,192.348 135.656,191.187 135.405,188.927 C 135.154,186.667 138.45,130.603 138.45,128.092 C 138.45,125.581 139.988,123.415 141.746,123.352 z "
   id="path1964"
   style="fill:#f2f2f2" />
</g>
<g
   id="Layer_3"
   transform="matrix(3.705982,0,0,3.705982,-465.7395,-445.4481)">
	<polygon
   points="142.06,128.155 198.813,126.146 195.8,178.129 139.548,174.111 142.06,128.155 "
   id="polygon1967"
   style="fill:#666" />
</g>
<g
   id="Layer_7"
   transform="matrix(3.705982,0,0,3.705982,-465.7395,-445.4481)">
	<g
   id="g1970">
		<path
   d="M 168.974,185.854 C 168.795,186.183 168.711,186.331 168.493,186.618 C 168.184,187.018 167.759,187.514 167.276,187.484 C 166.847,187.457 166.757,187.166 166.175,187.128 C 165.593,187.09 165.452,187.358 165.024,187.322 C 164.543,187.283 164.207,186.784 163.961,186.343 C 163.273,185.112 163.292,183.727 163.821,183.028 C 164.196,182.532 164.753,182.263 165.255,182.301 C 165.766,182.337 166.067,182.64 166.489,182.67 C 166.9,182.7 167.17,182.437 167.76,182.48 C 168.207,182.511 168.662,182.79 168.969,183.234 C 167.82,183.761 167.886,185.351 168.974,185.854 z "
   id="path1972"
   style="fill:#cecece" />
		<g
   id="g1974">
			<path
   d="M 167.346,181.978 C 167.58,181.718 167.772,181.341 167.741,180.938 C 167.389,180.937 166.963,181.131 166.702,181.405 C 166.466,181.653 166.258,182.032 166.3,182.419 C 166.682,182.457 167.094,182.258 167.346,181.978 z "
   id="path1976"
   style="fill:#cecece" />
		</g>
	</g>
</g>
</svg>