<?xml version="1.0" encoding="UTF-8" standalone="no"?>
<!-- Generator: Adobe Illustrator 12.0.0, SVG Export Plug-In . SVG Version: 6.00 Build 51448)  -->
<svg
   xmlns:dc="http://purl.org/dc/elements/1.1/"
   xmlns:cc="http://web.resource.org/cc/"
   xmlns:rdf="http://www.w3.org/1999/02/22-rdf-syntax-ns#"
   xmlns:svg="http://www.w3.org/2000/svg"
   xmlns="http://www.w3.org/2000/svg"
   xmlns:sodipodi="http://inkscape.sourceforge.net/DTD/sodipodi-0.dtd"
   xmlns:inkscape="http://www.inkscape.org/namespaces/inkscape"
   version="1.0"
   id="Layer_1"
   width="50"
   height="50"
   viewBox="0 0 443.422 453.299"
   overflow="visible"
   enable-background="new 0 0 443.422 453.299"
   xml:space="preserve"
   sodipodi:version="0.32"
   inkscape:version="0.42+devel"
   sodipodi:docname="laptop.svg"
   sodipodi:docbase="C:\Documents and Settings\Administrator\My Documents\ikonas\pareizi"><metadata
   id="metadata1430"><rdf:RDF><cc:Work
       rdf:about=""><dc:format>image/svg+xml</dc:format><dc:type
         rdf:resource="http://purl.org/dc/dcmitype/StillImage" /></cc:Work></rdf:RDF></metadata><defs
   id="defs1428" /><sodipodi:namedview
   inkscape:window-height="975"
   inkscape:window-width="1280"
   inkscape:pageshadow="2"
   inkscape:pageopacity="0.0"
   borderopacity="1.0"
   bordercolor="#666666"
   pagecolor="#ffffff"
   id="base"
   inkscape:zoom="1"
   inkscape:cx="31.13822"
   inkscape:cy="29.377406"
   inkscape:window-x="-4"
   inkscape:window-y="-4"
   inkscape:current-layer="Layer_1" />






<g
   id="g1432"
   transform="matrix(5.721254,0.000000,0.000000,5.721254,-1052.127,-1067.082)"><g
     id="Layer_3">
	
		<linearGradient
   gradientTransform="matrix(1.000000,0.000000,0.000000,-1.000000,-1.022500,452.1743)"
   y2="233.3746"
   x2="246.1702"
   y1="250.9485"
   x1="224.2827"
   gradientUnits="userSpaceOnUse"
   id="XMLID_3_">
		<stop
   id="stop1390"
   style="stop-color:#666666"
   offset="0" />
		<stop
   id="stop1392"
   style="stop-color:#535353"
   offset="0.2369" />
		<stop
   id="stop1394"
   style="stop-color:#202020"
   offset="0.7168" />
		<stop
   id="stop1396"
   style="stop-color:#000000"
   offset="1" />
	</linearGradient>
	<path
   style="fill:url(#XMLID_3_)"
   id="path1398"
   d="M 215.62,224.924 C 216.119,224.508 216.617,221.102 216.617,221.102 C 216.617,221.102 219.857,191.942 220.272,189.367 C 220.687,186.792 257.158,198.256 258.404,199.419 C 259.65,200.582 252.52,236.668 252.673,239.711 C 252.756,241.372 245.278,237.717 244.115,238.382 C 242.952,239.046 221.768,229.658 222.93,230.074 C 224.093,230.49 215.121,225.339 215.62,224.924 z " />
</g><g
     id="Layer_6">
	<path
   style="fill:#666666"
   id="path1401"
   d="M 221.341,264.303 C 220.044,264.003 220.31,261.218 220.177,261.463 C 220.044,261.708 185.202,243.685 185.202,243.685 C 185.202,243.685 184.028,243.951 186.123,246.245 C 188.537,251.674 222.638,264.602 221.341,264.303 z " />
</g><g
     id="Layer_5">
	<path
   style="fill:#3f3f3f"
   id="path1404"
   d="M 220.338,261.959 C 220.338,261.959 219.756,265.033 222.581,264.119 C 225.405,263.205 244.348,251.491 247.006,249.913 C 249.664,248.335 250.329,248.252 250.993,247.172 C 251.658,246.092 251.242,245.178 251.325,244.43 C 251.408,243.683 246.092,246.341 246.092,246.341 L 220.338,261.959 z " />
</g><g
     id="Layer_4">
	
		<linearGradient
   gradientTransform="matrix(1.000000,0.000000,0.000000,-1.000000,-1.022500,452.1743)"
   y2="205.1656"
   x2="223.51981"
   y1="222.7395"
   x1="201.63229"
   gradientUnits="userSpaceOnUse"
   id="XMLID_4_">
		<stop
   id="stop1408"
   style="stop-color:#666666"
   offset="0" />
		<stop
   id="stop1410"
   style="stop-color:#535353"
   offset="0.2369" />
		<stop
   id="stop1412"
   style="stop-color:#202020"
   offset="0.7168" />
		<stop
   id="stop1414"
   style="stop-color:#000000"
   offset="1" />
	</linearGradient>
	<path
   style="fill:url(#XMLID_4_)"
   id="path1416"
   d="M 199.867,254.455 C 199.867,254.455 183.897,244.798 184.977,243.7 C 186.057,242.603 214.012,228.845 214.655,229.815 C 214.712,229.901 213.824,228.802 215.32,227.874 C 216.815,226.946 251.376,241.798 250.877,242.389 C 250.379,242.98 251.708,243.148 251.459,244.413 C 251.209,245.68 246.973,246.607 246.474,246.354 C 245.976,246.101 224.043,261.206 220.721,262.049 C 217.399,262.892 199.867,254.455 199.867,254.455 z " />
</g><g
     id="Layer_7">
	<path
   style="fill:#8c8c8c"
   id="path1419"
   d="M 198.589,238.465 C 198.672,239.462 228.33,252.671 229.908,252.754 C 231.487,252.837 243.948,244.529 245.526,243.781 C 247.105,243.034 216.117,230.406 214.456,230.905 C 212.795,231.404 198.506,237.468 198.589,238.465 z " />
</g><g
     id="Layer_8">
	<polygon
   style="fill:#8c8c8c"
   id="polygon1422"
   points="203.989,247.354 210.469,250.594 215.038,247.687 208.974,244.696 203.989,247.354 " />
</g><g
     id="Layer_2">
	<polygon
   style="fill:#e8e8e8"
   id="polygon1425"
   points="217.863,224.758 221.601,192.025 256.161,201.579 250.595,237.551 217.863,224.758 " />
</g></g>
</svg>