<?xml version="1.0" encoding="UTF-8" standalone="no"?>
<!-- Generator: Adobe Illustrator 12.0.0, SVG Export Plug-In . SVG Version: 6.00 Build 51448)  -->
<svg
   xmlns:dc="http://purl.org/dc/elements/1.1/"
   xmlns:cc="http://web.resource.org/cc/"
   xmlns:rdf="http://www.w3.org/1999/02/22-rdf-syntax-ns#"
   xmlns:svg="http://www.w3.org/2000/svg"
   xmlns="http://www.w3.org/2000/svg"
   xmlns:sodipodi="http://inkscape.sourceforge.net/DTD/sodipodi-0.dtd"
   xmlns:inkscape="http://www.inkscape.org/namespaces/inkscape"
   version="1.0"
   width="40pt"
   height="40pt"
   viewBox="0 0 354.128 448.359"
   overflow="visible"
   enable-background="new 0 0 354.128 448.359"
   xml:space="preserve"
   id="svg2049"
   sodipodi:version="0.32"
   inkscape:version="0.42+devel"
   sodipodi:docname="news.svg"
   sodipodi:docbase="C:\Documents and Settings\Administrator\My Documents\ikonas\pareizi"><metadata
   id="metadata2076"><rdf:RDF><cc:Work
       rdf:about=""><dc:format>image/svg+xml</dc:format><dc:type
         rdf:resource="http://purl.org/dc/dcmitype/StillImage" /></cc:Work></rdf:RDF></metadata><defs
   id="defs2074" /><sodipodi:namedview
   inkscape:window-height="540"
   inkscape:window-width="742"
   inkscape:pageshadow="2"
   inkscape:pageopacity="0.0"
   borderopacity="1.0"
   bordercolor="#666666"
   pagecolor="#ffffff"
   id="base"
   inkscape:zoom="6.2843322"
   inkscape:cx="26.82967"
   inkscape:cy="23.902797"
   inkscape:window-x="22"
   inkscape:window-y="22"
   inkscape:current-layer="svg2049" />
<g
   id="Layer_4">
	<g
   id="Layer_3">
		<polygon
   points="1.241,216.03 200.036,159.332 352.82,207.56 326.956,220.87 207.773,175.758 21.291,228.147 1.241,216.03 "
   id="polygon2053"
   style="fill:#b2b2b2;stroke:#000000" />
	</g>
	<g
   id="g2055">
		<path
   d="M 37.208,51.945 L 274.845,0.624 C 274.845,0.624 264.803,308.55 261.457,311.897 C 258.11,315.244 76.255,378.837 76.255,378.837 L 37.208,51.945 z "
   id="path2057"
   style="fill:#8c8c8c;stroke:#000000" />
		<path
   d="M 24.581,86.191 L 262.218,34.871 C 262.218,34.871 252.178,342.794 248.831,346.143 C 245.484,349.49 70.092,399.554 70.092,399.554 L 24.581,86.191 z "
   id="path2059"
   style="fill:#b2b2b2;stroke:#000000" />
		<path
   d="M 54.807,105.94 L 272.817,58.857 C 272.817,58.857 263.606,341.349 260.537,344.42 C 257.466,347.489 90.631,405.831 90.631,405.831 L 54.807,105.94 z "
   id="path2061"
   style="fill:#ffffff;stroke:#000000" />
		<path
   d="M 90.652,123.709 L 308.661,76.626 C 308.661,76.626 299.452,359.118 296.38,362.188 C 293.31,365.258 126.475,423.6 126.475,423.6 L 90.652,123.709 z "
   id="path2063"
   style="fill:#ffffff;stroke:#000000" />
	</g>
	<polygon
   points="131.731,174.755 141.858,230.454 202.62,215.264 210.215,157.033 131.731,174.755 "
   id="polygon2065"
   style="fill:#b2b2b2;stroke:#000000" />
</g>
<g
   id="Layer_2">
	<path
   d="M 159.784,301.723 C 165.816,301.723 352.82,207.56 352.82,207.56 L 337.572,357.939 L 158.778,447.506 L 159.784,301.723 z "
   id="path2068"
   style="fill:#8c8c8c;stroke:#000000" />
	<polygon
   points="159.784,301.723 158.778,447.506 10.354,363.855 1.241,216.03 159.784,301.723 "
   id="polygon2070"
   style="fill:#b2b2b2;stroke:#000000" />
</g>
<g
   id="Layer_5">
</g>
</svg>