<?xml version="1.0" encoding="UTF-8" standalone="no"?>
<!-- Generator: Adobe Illustrator 12.0.0, SVG Export Plug-In . SVG Version: 6.00 Build 51448)  -->
<svg
   xmlns:dc="http://purl.org/dc/elements/1.1/"
   xmlns:cc="http://web.resource.org/cc/"
   xmlns:rdf="http://www.w3.org/1999/02/22-rdf-syntax-ns#"
   xmlns:svg="http://www.w3.org/2000/svg"
   xmlns="http://www.w3.org/2000/svg"
   xmlns:sodipodi="http://inkscape.sourceforge.net/DTD/sodipodi-0.dtd"
   xmlns:inkscape="http://www.inkscape.org/namespaces/inkscape"
   version="1.0"
   width="34pt"
   height="40pt"
   viewBox="0 0 420.48 564.48"
   overflow="visible"
   enable-background="new 0 0 420.48 564.48"
   xml:space="preserve"
   id="svg2511"
   sodipodi:version="0.32"
   inkscape:version="0.42+devel"
   sodipodi:docname="ntp.svg"
   sodipodi:docbase="C:\Documents and Settings\Administrator\My Documents\ikonas\pareizi"><metadata
   id="metadata2630"><rdf:RDF><cc:Work
       rdf:about=""><dc:format>image/svg+xml</dc:format><dc:type
         rdf:resource="http://purl.org/dc/dcmitype/StillImage" /></cc:Work></rdf:RDF></metadata><defs
   id="defs2628" /><sodipodi:namedview
   inkscape:window-height="604"
   inkscape:window-width="851"
   inkscape:pageshadow="2"
   inkscape:pageopacity="0.0"
   borderopacity="1.0"
   bordercolor="#666666"
   pagecolor="#ffffff"
   id="base"
   inkscape:zoom="6.1736918"
   inkscape:cx="29.516069"
   inkscape:cy="27.109058"
   inkscape:window-x="132"
   inkscape:window-y="132"
   inkscape:current-layer="svg2511" />








<g
   id="g2632"
   transform="matrix(1.057441,0.000000,0.000000,1.073618,-55.72064,-37.37334)"><g
     enable-background="new    "
     id="Kaja">
	<g
   id="Shape_14">
		<g
   id="g2515">
			<path
   style="fill:#a0a0a0"
   id="path2517"
   d="M 353.67,381.636 L 117.87,537.155 C 117.87,537.155 115.381,541.821 141.201,543.998 C 167.021,546.176 189.419,531.246 189.419,531.246 C 189.419,531.246 334.383,437.623 341.849,428.292 C 349.315,418.961 347.449,419.272 351.182,411.186 C 354.915,403.097 353.67,381.636 353.67,381.636 z " />
		</g>
	</g>
</g><g
     enable-background="new    "
     id="Ena">
	<g
   id="Shape_13">
		<g
   id="g2521">
			<path
   style="fill:#777777"
   id="path2523"
   d="M 350.871,382.258 L 141.823,523.781 C 141.823,523.781 138.401,524.092 154.267,526.891 C 170.132,529.69 177.287,530.312 194.085,518.804 C 210.883,507.295 320.073,439.8 332.827,429.225 C 345.582,418.65 349.919,405.273 350.87,397.188 C 352.737,381.325 350.871,382.258 350.871,382.258 z " />
		</g>
	</g>
</g><g
     enable-background="new    "
     id="Prieksha">
	<g
   id="Shape_12">
		<g
   id="g2527">
			<path
   style="fill:#545454"
   id="path2529"
   d="M 122.864,177.164 L 378.321,59.964 L 377.915,55.895 L 322.868,38.127 C 322.868,38.127 312.656,33.751 305.101,36.769 C 297.546,39.787 226.186,70.545 226.186,70.545 C 226.186,70.545 53.086,142.026 48.358,143.891 C 43.63,145.756 25.65,161.574 26.05,180.419 C 26.45,199.264 28.491,278.086 28.491,278.086 C 28.491,278.086 31.612,484.059 31.745,490.918 C 31.878,497.776 34.999,499.464 34.999,499.464 L 42.728,505.568 L 98.863,538.53 L 111.473,542.599 L 99.677,520.217 L 100.084,211.346 L 122.864,177.164 z " />
		</g>
	</g>
</g><g
     enable-background="new    "
     id="Sans_Mala">
	<g
   id="Shape_10">
		<g
   id="g2533">
			<path
   style="fill:#545454"
   id="path2535"
   d="M 374.253,55.081 C 369.778,56.302 270.931,100.252 270.931,100.252 C 270.931,100.252 109.44,169.84 102.118,178.385 C 94.796,186.931 87.881,195.477 87.474,214.196 C 87.067,232.916 87.474,503.534 87.474,519.405 C 87.474,535.276 91.135,534.869 91.135,534.869 C 91.135,534.869 100.898,542.6 112.695,543.008 C 124.491,543.415 364.426,377.924 367.786,371.684 C 371.146,365.445 393.779,70.139 394.186,67.29 C 394.592,64.44 378.728,53.86 374.253,55.081 z " />
		</g>
	</g>
</g><g
     enable-background="new    "
     id="Sans">
	<g
   id="Sans_Liels">
		<g
   id="g2539">
			<path
   style="fill:#3e3e3e"
   id="path2541"
   d="M 382.08,59.04 C 371.52,59.52 136.8,169.92 120.48,177.6 C 104.16,185.28 99.36,204 99.84,213.6 C 100.32,223.2 101.28,375.84 101.28,375.84 C 101.28,375.84 99.84,519.84 99.84,529.44 C 99.84,539.041 112.32,545.76 117.12,542.88 C 121.92,540 367.68,372 367.68,372 C 367.68,372 395.519,78.843 396,73.92 C 396.481,68.997 392.64,58.56 382.08,59.04 z " />
		</g>
	</g>
	<g
   id="Sans_Mazs">
		<g
   id="g2544">
			<linearGradient
   y2="309.7886"
   x2="395.24081"
   y1="309.7886"
   x1="122.8643"
   gradientUnits="userSpaceOnUse"
   id="XMLID_8_">
				<stop
   id="stop2547"
   style="stop-color:#606060"
   offset="0" />
				<stop
   id="stop2549"
   style="stop-color:#5B5B5B"
   offset="1" />
			</linearGradient>
			<path
   style="fill:url(#XMLID_8_)"
   id="path2551"
   d="M 382.416,87.039 C 372.707,87.48 156.879,188.995 141.873,196.056 C 126.867,203.118 122.453,220.331 122.894,229.158 C 123.335,237.986 124.218,378.339 124.218,378.339 C 124.218,378.339 122.894,510.749 122.894,519.575 C 122.894,528.403 134.369,534.582 138.782,531.934 C 143.197,529.286 363.906,379.209 364.296,378.689 C 364.686,378.169 369.371,375.957 370.933,362.162 C 372.495,348.367 394.852,105.42 395.215,100.721 C 395.578,96.022 392.126,86.598 382.416,87.039 z " />
		</g>
	</g>
</g><g
     enable-background="new    "
     id="Faceplate">
	<g
   id="Shape_7">
		<g
   id="g2555">
			<polygon
   style="fill:#eaeaea"
   id="polygon2557"
   points="35.04,189.12 40.32,492 87.84,520.32 87.84,214.08 35.04,189.12 " />
		</g>
	</g>
</g><g
     enable-background="new    "
     id="Apaksha">
	<g
   id="Shape_8">
		<g
   id="g2561">
			<path
   style="fill:#a0a0a0"
   id="path2563"
   d="M 87.783,519.624 L 40.446,491.372 C 40.446,491.372 39.667,503.279 44.24,506.024 C 48.813,508.768 78.565,526.886 94.572,536.674 C 88.535,533.381 87.783,519.624 87.783,519.624 z " />
		</g>
	</g>
</g><g
     enable-background="new    "
     id="Jumts">
	<g
   id="Shape_9">
		<g
   id="g2567">
			<path
   style="fill:#a0a0a0"
   id="path2569"
   d="M 88.139,214.932 L 87.706,214.723 C 87.846,215.379 88.139,214.932 88.139,214.932 z M 331.737,50.107 C 321.726,46.098 311.227,42.909 295.395,49.387 C 279.563,55.865 109.368,125.681 109.368,125.681 C 109.368,125.681 69.788,141.876 59.353,146.194 C 48.918,150.513 41.002,161.669 37.404,171.026 C 33.806,180.382 35.245,189.38 35.245,189.38 L 87.705,214.723 C 87.524,213.879 87.594,211.209 88.858,203.416 C 91.017,190.1 103.251,175.705 115.844,170.307 C 128.438,164.909 297.913,88.614 297.913,88.614 C 297.913,88.614 337.85,71.106 352.602,64.628 C 367.356,58.151 341.748,54.116 331.737,50.107 z " />
		</g>
	</g>
</g><g
     id="Layer_9">
	<g
   id="Shape_1_copy_2">
		<g
   id="g2573">
			<path
   style="fill:#666666"
   id="path2575"
   d="M 430.416,353.125 C 303.173,213.158 90.445,355.843 249.056,507.945 C 388.098,641.282 564.525,500.643 430.416,353.125 z " />
		</g>
	</g>
	<g
   id="Shape_1">
		<g
   id="g2578">
			<path
   style="fill:#a0a0a0"
   id="path2580"
   d="M 421.688,352.768 C 298.069,213.874 91.401,355.464 245.494,506.402 C 380.575,638.716 551.977,499.156 421.688,352.768 z " />
		</g>
	</g>
	<g
   id="Shape_1_copy_3">
		<g
   id="g2583">
			<path
   style="fill:#ffffff"
   id="path2585"
   d="M 410.913,362.197 C 292.785,241.188 103.303,370.83 250.074,501.958 C 378.738,616.908 535.413,489.734 410.913,362.197 z " />
		</g>
	</g>
	<g
   id="Shape_2">
		<g
   id="g2588">
			<polygon
   id="polygon2590"
   points="313.033,432.628 251.027,407.402 233.614,401.872 248.423,411.632 308.964,443.855 318.079,442.553 320.031,440.438 313.033,432.628 " />
		</g>
	</g>
	<g
   id="Shape_3">
		<g
   id="g2593">
			<polygon
   id="polygon2595"
   points="317.427,446.948 313.684,447.925 263.071,501.792 261.281,504.394 318.729,455.083 319.869,448.901 317.427,446.948 " />
		</g>
	</g>
	<g
   id="Shape_4">
		<g
   id="g2598">
			<polygon
   id="polygon2600"
   points="360.562,412.804 326.378,441.089 326.867,441.74 363.766,413.166 360.562,412.804 " />
		</g>
	</g>
	<g
   id="Shape_5">
		<g
   id="g2603">
			<path
   id="path2605"
   d="M 318.242,442.716 C 314.498,447.436 321.334,451.342 325.077,447.925 C 328.82,444.506 321.984,437.998 318.242,442.716 z " />
		</g>
	</g>
	<g
   id="Shape_6">
		<g
   id="g2608">
			<polygon
   id="polygon2610"
   points="312.382,321.125 308.476,321.776 311.731,347.475 313.684,346.825 312.382,321.125 " />
		</g>
	</g>
	<g
   id="Shape_8_4_">
		<g
   id="g2613">
			<path
   id="path2615"
   d="M 451.366,468.167 L 417.515,462.962 C 417.515,462.962 416.664,464.339 420.579,465.383 C 430.52,468.033 451.691,472.07 451.691,472.07 L 451.366,468.167 z " />
		</g>
	</g>
	<g
   id="Shape_9_4_">
		<g
   id="g2618">
			<polygon
   id="polygon2620"
   points="226.127,421.972 200.088,413.514 200.74,418.393 226.778,424.9 226.127,421.972 " />
		</g>
	</g>
	<g
   id="Shape_7_5_">
		<g
   id="g2623">
			<polygon
   id="polygon2625"
   points="330.609,520.866 327.355,528.349 330.609,545.59 332.562,544.94 330.609,520.866 " />
		</g>
	</g>
</g></g>
</svg>