<?xml version="1.0" encoding="UTF-8" standalone="no"?>
<!-- Generator: Adobe Illustrator 12.0.0, SVG Export Plug-In . SVG Version: 6.00 Build 51448)  -->
<svg
   xmlns:dc="http://purl.org/dc/elements/1.1/"
   xmlns:cc="http://web.resource.org/cc/"
   xmlns:rdf="http://www.w3.org/1999/02/22-rdf-syntax-ns#"
   xmlns:svg="http://www.w3.org/2000/svg"
   xmlns="http://www.w3.org/2000/svg"
   xmlns:sodipodi="http://inkscape.sourceforge.net/DTD/sodipodi-0.dtd"
   xmlns:inkscape="http://www.inkscape.org/namespaces/inkscape"
   version="1.0"
   id="Layer_1"
   width="50"
   height="50"
   viewBox="0 0 339.6 330.8"
   overflow="visible"
   enable-background="new 0 0 339.6 330.8"
   xml:space="preserve"
   sodipodi:version="0.32"
   inkscape:version="0.42+devel"
   sodipodi:docname="pc2.svg"
   sodipodi:docbase="C:\Documents and Settings\Administrator\My Documents\ikonas\pareizi"><metadata
   id="metadata2247"><rdf:RDF><cc:Work
       rdf:about=""><dc:format>image/svg+xml</dc:format><dc:type
         rdf:resource="http://purl.org/dc/dcmitype/StillImage" /></cc:Work></rdf:RDF></metadata><defs
   id="defs2245" /><sodipodi:namedview
   inkscape:window-height="975"
   inkscape:window-width="1280"
   inkscape:pageshadow="2"
   inkscape:pageopacity="0.0"
   borderopacity="1.0"
   bordercolor="#666666"
   pagecolor="#ffffff"
   id="base"
   inkscape:zoom="11.623124"
   inkscape:cx="38.448613"
   inkscape:cy="23.859416"
   inkscape:window-x="-4"
   inkscape:window-y="-4"
   inkscape:current-layer="Layer_1" />






<g
   id="g2249"
   transform="matrix(5.098820,0.000000,0.000000,5.098820,-740.7457,-710.8908)"><g
     id="keyboard_1_">
	<g
   id="Shape_10">
		<g
   id="g2050">
			<polygon
   style="fill:#bfbfbf"
   id="polygon2052"
   points="145.793,183.1 146.033,183.74 177.474,200.621 177.474,199.9 145.793,183.1 " />
		</g>
	</g>
	<g
   id="Shape_11">
		<g
   id="g2055">
			<polygon
   style="fill:#b7b7b7"
   id="polygon2057"
   points="177.463,199.921 177.474,200.585 179.272,198.761 185.374,192.07 185.708,190.61 177.463,199.921 " />
		</g>
	</g>
	<polyline
   style="fill:#ededed"
   id="polyline2059"
   points="145.793,183.1 177.463,199.921 185.708,190.61 154.052,177.191  " />
</g><g
     id="mouse_1_">
	<g
   id="Shape_12">
		<g
   id="g2063">
			<path
   style="fill:#eeeeee"
   id="path2065"
   d="M 182.192,201.82 L 190.352,193.66 C 182.192,191.259 180.5,199.205 182.192,201.82 z " />
		</g>
	</g>
	<g
   id="Shape_13">
		<g
   id="g2068">
			<path
   style="fill:#eeeeee"
   id="path2070"
   d="M 190.112,193.74 L 182.272,201.82 C 184.353,204.38 194.513,195.179 190.112,193.74 z " />
		</g>
	</g>
	<g
   id="Shape_14">
		<g
   id="g2073">
			<path
   style="fill:#afafaf"
   id="path2075"
   d="M 187.474,192.94 C 184.062,194.078 189.241,196.744 191.713,195.259 C 192.513,194.78 187.713,192.86 187.474,192.94 z " />
		</g>
	</g>
	<g
   id="Shape_15">
		<g
   id="g2078">
			<path
   style="fill:#b7b7b7"
   id="path2080"
   d="M 191.793,195.02 C 191.793,195.02 191.095,196.246 190.244,197.378 C 189.414,198.484 188.432,199.499 188.432,199.499 L 186.432,201.1 L 185.153,201.82 L 183.073,202.3 C 186.033,203.739 191.473,197.739 191.793,196.46 C 192.112,195.179 191.793,195.02 191.793,195.02 z " />
		</g>
	</g>
</g><g
     id="monitor_1_">
	<g
   id="Shape_6">
		<g
   id="g2084">
			<polygon
   style="fill:#cacaca"
   id="polygon2086"
   points="195.687,146.474 195.394,150.94 201.474,148.7 195.687,146.474 " />
		</g>
	</g>
	<g
   id="Layer_8">
		
			<linearGradient
   gradientTransform="matrix(0.200000,0.000000,0.000000,0.200000,-207.9656,-512.2307)"
   y2="3491.5659"
   x2="1962.998"
   y1="3245.269"
   x1="1873.3535"
   gradientUnits="userSpaceOnUse"
   id="XMLID_3_">
			<stop
   id="stop2090"
   style="stop-color:#EAEAEA"
   offset="0" />
			<stop
   id="stop2092"
   style="stop-color:#E7E7E7"
   offset="0.3491" />
			<stop
   id="stop2094"
   style="stop-color:#DFDFDF"
   offset="0.5711" />
			<stop
   id="stop2096"
   style="stop-color:#D0D0D0"
   offset="0.7576" />
			<stop
   id="stop2098"
   style="stop-color:#BBBBBB"
   offset="0.9236" />
			<stop
   id="stop2100"
   style="stop-color:#AFAFAF"
   offset="1" />
		</linearGradient>
		<polyline
   style="fill:url(#XMLID_3_)"
   id="polyline2102"
   points="156.273,140.62 193.394,146.46 188.433,184.7 156.519,172.525 156.273,140.62   " />
	</g>
	<g
   id="Shape_4">
		<g
   id="g2105">
			<polygon
   style="fill:#313735"
   id="polygon2107"
   points="159.873,145.9 159.873,167.259 184.433,175.9 187.153,151.02 159.873,145.9 " />
		</g>
	</g>
	<g
   id="Shape_7">
		<g
   id="g2110">
			<polygon
   style="fill:#c6c6c6"
   id="polygon2112"
   points="160.273,140.22 156.273,140.62 193.394,146.46 195.713,145.9 160.273,140.22 " />
		</g>
	</g>
	<g
   id="Shape_5">
		<g
   id="g2115">
			<polygon
   style="fill:#b3b3b3"
   id="polygon2117"
   points="195.394,150.94 195.713,145.9 193.252,146.458 188.433,184.7 198.433,174.14 201.474,148.7 195.394,150.94 " />
		</g>
	</g>
	<g
   id="Shape_8">
		<g
   id="g2120">
			<path
   style="fill:#d9d9d9"
   id="path2122"
   d="M 167.633,176.78 C 166.673,183.34 180.913,184.94 183.073,182.541 L 167.633,176.78 z " />
		</g>
	</g>
</g><g
     id="Layer_11">
	<polyline
   style="fill:#ededed"
   id="polyline2125"
   points="191.633,163.18 197.952,165.091 196.286,192.058 191.313,189.82 191.633,163.18  " />
</g><g
     id="Layer_9">
	
		<linearGradient
   gradientTransform="matrix(0.200000,0.000000,0.000000,0.200000,-207.9656,-512.2307)"
   y2="3356.5239"
   x2="2097.4229"
   y1="3356.5239"
   x1="1998.3291"
   gradientUnits="userSpaceOnUse"
   id="XMLID_4_">
		<stop
   id="stop2129"
   style="stop-color:#EAEAEA"
   offset="0" />
		<stop
   id="stop2131"
   style="stop-color:#E7E7E7"
   offset="0.3491" />
		<stop
   id="stop2133"
   style="stop-color:#DFDFDF"
   offset="0.5711" />
		<stop
   id="stop2135"
   style="stop-color:#D0D0D0"
   offset="0.7576" />
		<stop
   id="stop2137"
   style="stop-color:#BBBBBB"
   offset="0.9236" />
		<stop
   id="stop2139"
   style="stop-color:#AFAFAF"
   offset="1" />
	</linearGradient>
	<polygon
   style="fill:url(#XMLID_4_)"
   id="polygon2141"
   points="191.7,163.18 198.019,165.091 211.519,154.391 205.919,153.058 191.7,163.18 " />
</g><g
     id="Layer_12">
	<polygon
   style="fill:#bebebe"
   id="polygon2144"
   points="211.519,154.391 208.585,178.491 196.286,192.058 197.952,165.091 211.519,154.391 " />
</g><g
     id="Layer_10">
	<g
   id="g2147">
		<path
   id="path2149"
   d="M 179.603,165.832 C 179.345,166.761 178.04,168.402 177.347,169.078 C 176.654,169.756 176.74,170.647 175.46,169.807 C 174.187,168.967 173.828,168.887 172.511,168.441 C 171.2,167.999 171.484,167.997 170.663,168.033 C 169.846,168.07 167.113,162.253 166.892,161.285 C 166.675,160.319 166.717,160.226 167.139,159.37 C 167.488,158.662 167.902,157.849 168.542,157.163 C 169.32,156.33 170.161,156.058 170.1,155.149 C 169.86,151.77 169.668,150.054 171.162,149.886 C 172.586,149.729 173.774,150.628 174.245,151.061 C 174.447,151.247 174.858,151.615 175.165,152.098 C 175.472,152.572 175.747,153.217 175.901,153.953 C 176.217,155.434 175.768,154.807 176.127,156.503 C 176.481,158.192 177.208,159.239 178.093,160.816 C 178.978,162.391 179.899,164.779 179.603,165.832 z " />
		<g
   id="g2151">
			<path
   id="path2153"
   d="M 176.958,159.696 C 176.994,159.686 176.999,159.65 176.97,159.597 C 176.939,159.543 176.898,159.514 176.865,159.524 C 176.836,159.531 176.833,159.554 176.851,159.611 L 176.863,159.647 C 176.873,159.674 176.871,159.686 176.857,159.689 C 176.84,159.694 176.816,159.676 176.798,159.644 C 176.787,159.624 176.783,159.606 176.785,159.595 C 176.787,159.588 176.791,159.584 176.804,159.578 L 176.783,159.539 C 176.741,159.552 176.736,159.588 176.769,159.648 C 176.802,159.706 176.845,159.737 176.88,159.727 C 176.907,159.72 176.912,159.696 176.896,159.648 L 176.883,159.611 C 176.872,159.58 176.873,159.565 176.886,159.561 C 176.904,159.556 176.925,159.572 176.941,159.602 C 176.958,159.631 176.957,159.65 176.937,159.656 L 176.958,159.696 z " />
			<path
   id="path2155"
   d="M 177.062,159.775 L 177.041,159.738 L 176.856,159.788 L 176.876,159.825 L 177.062,159.775 z M 177.134,159.755 L 177.113,159.718 L 177.077,159.728 L 177.098,159.765 L 177.134,159.755 z " />
			<path
   id="path2157"
   d="M 177.097,159.838 L 176.91,159.888 L 176.931,159.925 L 177.047,159.894 C 177.074,159.886 177.109,159.905 177.125,159.935 C 177.142,159.962 177.136,159.981 177.112,159.988 L 176.983,160.023 L 177.004,160.06 L 177.12,160.028 C 177.146,160.021 177.182,160.039 177.198,160.069 C 177.213,160.096 177.207,160.115 177.183,160.122 L 177.056,160.156 L 177.077,160.193 L 177.216,160.155 C 177.249,160.146 177.255,160.117 177.231,160.074 C 177.214,160.043 177.198,160.027 177.165,160.011 C 177.179,159.992 177.177,159.971 177.16,159.941 C 177.143,159.91 177.123,159.893 177.09,159.879 L 177.116,159.872 L 177.097,159.838 z " />
			<path
   id="path2159"
   d="M 177.351,160.293 C 177.316,160.228 177.257,160.199 177.195,160.216 C 177.133,160.233 177.117,160.282 177.152,160.347 C 177.187,160.412 177.247,160.442 177.308,160.425 C 177.371,160.408 177.388,160.359 177.351,160.293 z M 177.323,160.3 C 177.346,160.342 177.332,160.373 177.286,160.386 C 177.242,160.398 177.201,160.38 177.179,160.339 C 177.158,160.298 177.17,160.266 177.215,160.254 C 177.261,160.242 177.302,160.259 177.323,160.3 z " />
			<path
   id="path2161"
   d="M 177.431,160.45 L 177.246,160.5 L 177.267,160.537 L 177.37,160.51 C 177.408,160.5 177.445,160.517 177.467,160.555 C 177.483,160.584 177.479,160.606 177.457,160.613 L 177.328,160.648 L 177.349,160.685 L 177.488,160.647 C 177.519,160.639 177.523,160.605 177.499,160.56 C 177.48,160.525 177.457,160.506 177.421,160.493 L 177.452,160.485 L 177.431,160.45 z " />
			<path
   id="path2163"
   d="M 177.7,160.96 L 177.671,160.957 C 177.685,160.94 177.687,160.919 177.672,160.894 C 177.64,160.835 177.564,160.794 177.513,160.808 C 177.476,160.818 177.464,160.856 177.488,160.897 C 177.501,160.92 177.519,160.937 177.548,160.953 C 177.532,160.962 177.532,160.981 177.548,161.009 C 177.567,161.041 177.591,161.065 177.625,161.082 C 177.661,161.1 177.697,161.106 177.725,161.099 C 177.797,161.079 177.811,160.978 177.754,160.875 C 177.725,160.823 177.678,160.771 177.628,160.74 C 177.573,160.706 177.512,160.692 177.465,160.704 C 177.387,160.725 177.372,160.831 177.434,160.943 C 177.452,160.976 177.475,161.009 177.502,161.039 L 177.52,161.02 C 177.492,160.986 177.475,160.962 177.461,160.938 C 177.41,160.845 177.423,160.759 177.49,160.74 C 177.564,160.72 177.672,160.783 177.722,160.876 C 177.769,160.96 177.758,161.045 177.7,161.061 C 177.658,161.072 177.597,161.046 177.578,161.009 C 177.57,160.997 177.573,160.985 177.581,160.983 C 177.584,160.982 177.592,160.982 177.602,160.983 L 177.723,160.996 L 177.7,160.96 z M 177.649,160.898 C 177.662,160.923 177.657,160.945 177.637,160.949 C 177.618,160.953 177.582,160.949 177.563,160.941 C 177.542,160.933 177.524,160.919 177.516,160.903 C 177.502,160.879 177.51,160.854 177.534,160.848 C 177.574,160.837 177.628,160.86 177.649,160.898 z " />
			<path
   id="path2165"
   d="M 177.878,161.116 L 177.62,161.186 L 177.638,161.219 L 177.661,161.213 C 177.649,161.236 177.651,161.263 177.67,161.295 C 177.703,161.356 177.765,161.384 177.826,161.368 C 177.886,161.352 177.901,161.304 177.869,161.243 C 177.852,161.212 177.83,161.192 177.8,161.18 L 177.898,161.154 L 177.878,161.116 z M 177.838,161.243 C 177.86,161.284 177.847,161.318 177.802,161.33 C 177.761,161.341 177.716,161.322 177.695,161.282 C 177.674,161.243 177.687,161.21 177.732,161.199 C 177.774,161.186 177.817,161.204 177.838,161.243 z " />
			<path
   id="path2167"
   d="M 177.856,161.62 L 178.043,161.57 L 178.022,161.533 L 177.918,161.561 C 177.88,161.571 177.842,161.553 177.821,161.515 C 177.805,161.486 177.809,161.464 177.831,161.458 L 177.962,161.422 L 177.942,161.386 L 177.798,161.425 C 177.768,161.433 177.764,161.467 177.788,161.512 C 177.807,161.546 177.828,161.565 177.864,161.58 L 177.838,161.587 L 177.856,161.62 z " />
			<path
   id="path2169"
   d="M 178.252,161.8 L 178.231,161.763 L 178.137,161.789 C 178.147,161.768 178.143,161.741 178.126,161.71 C 178.094,161.65 178.033,161.621 177.975,161.637 C 177.912,161.654 177.895,161.703 177.928,161.765 C 177.946,161.797 177.967,161.816 178.001,161.83 L 177.977,161.836 L 177.996,161.869 L 178.252,161.8 z M 178.103,161.725 C 178.124,161.765 178.111,161.797 178.066,161.809 C 178.023,161.821 177.982,161.803 177.96,161.764 C 177.938,161.723 177.952,161.689 177.995,161.678 C 178.037,161.666 178.081,161.685 178.103,161.725 z " />
			<path
   id="path2171"
   d="M 178.231,161.913 L 178.21,161.876 L 178.024,161.926 L 178.044,161.963 L 178.231,161.913 z M 178.304,161.894 L 178.283,161.857 L 178.246,161.867 L 178.267,161.904 L 178.304,161.894 z " />
			<path
   id="path2173"
   d="M 178.349,162.127 L 178.322,162.134 C 178.334,162.11 178.332,162.084 178.316,162.055 C 178.284,161.996 178.22,161.968 178.161,161.984 C 178.131,161.992 178.111,162.009 178.103,162.032 C 178.097,162.053 178.101,162.081 178.116,162.105 C 178.131,162.134 178.152,162.151 178.187,162.166 L 178.177,162.168 C 178.152,162.175 178.136,162.175 178.119,162.168 C 178.102,162.161 178.086,162.144 178.074,162.122 C 178.065,162.105 178.059,162.089 178.061,162.077 C 178.061,162.068 178.065,162.062 178.075,162.056 L 178.054,162.02 C 178.021,162.034 178.019,162.073 178.048,162.127 C 178.068,162.161 178.092,162.189 178.115,162.199 C 178.141,162.212 178.169,162.212 178.212,162.2 L 178.367,162.158 L 178.349,162.127 z M 178.29,162.066 C 178.311,162.106 178.298,162.136 178.251,162.149 C 178.207,162.161 178.167,162.145 178.146,162.106 C 178.125,162.066 178.138,162.034 178.183,162.022 C 178.228,162.009 178.269,162.026 178.29,162.066 z " />
			<path
   id="path2175"
   d="M 178.28,162.315 L 178.255,162.269 L 178.218,162.279 L 178.243,162.325 L 178.28,162.315 z " />
			<path
   id="path2177"
   d="M 178.642,162.511 L 178.622,162.474 L 178.526,162.5 C 178.537,162.479 178.533,162.452 178.516,162.421 C 178.483,162.361 178.422,162.333 178.364,162.348 C 178.301,162.365 178.284,162.414 178.317,162.476 C 178.336,162.508 178.356,162.527 178.391,162.54 L 178.366,162.546 L 178.384,162.579 L 178.642,162.511 z M 178.491,162.436 C 178.512,162.476 178.498,162.508 178.454,162.52 C 178.411,162.532 178.369,162.514 178.349,162.475 C 178.327,162.434 178.34,162.4 178.383,162.388 C 178.427,162.376 178.47,162.395 178.491,162.436 z " />
			<path
   id="path2179"
   d="M 178.604,162.812 C 178.632,162.804 178.647,162.797 178.659,162.787 C 178.68,162.764 178.68,162.724 178.656,162.681 C 178.621,162.617 178.559,162.586 178.498,162.602 C 178.436,162.619 178.421,162.669 178.456,162.733 C 178.485,162.786 178.528,162.816 178.575,162.815 L 178.555,162.778 C 178.524,162.775 178.5,162.757 178.483,162.728 C 178.471,162.705 178.469,162.682 178.477,162.665 C 178.483,162.654 178.493,162.648 178.51,162.642 L 178.604,162.812 z M 178.536,162.636 C 178.573,162.63 178.608,162.65 178.629,162.687 C 178.65,162.723 178.64,162.757 178.608,162.766 L 178.606,162.766 L 178.536,162.636 z " />
		</g>
	</g>
	<g
   id="g2181">
		<path
   style="fill:#ffffff"
   id="path2183"
   d="M 171.864,156.579 C 171.358,156.398 170.694,154.817 170.629,155.3 C 170.567,155.758 170.552,155.747 170.55,156.218 C 170.55,156.533 170.402,156.497 170.083,156.845 C 169.919,157.031 169.791,157.249 169.689,157.483 C 169.626,157.621 169.568,157.769 169.522,157.918 C 169.502,157.994 169.467,158.067 169.447,158.143 C 169.287,158.653 168.718,159.134 168.586,159.654 C 168.453,160.171 168.292,160.471 168.315,161.244 C 168.334,161.848 168.341,161.797 168.578,162.08 C 168.811,162.362 169.052,162.637 169.421,163.101 C 169.809,163.585 170.616,164.482 170.726,164.704 C 170.842,164.932 170.943,165.261 170.767,165.445 C 170.591,165.63 169.894,165.324 169.898,165.325 C 169.894,165.324 170.502,166.27 170.606,166.414 C 170.707,166.553 171.262,167.239 173.035,167.619 C 174.034,167.832 174.807,167.592 175.368,167.287 C 176.092,166.887 176.143,166.692 176.276,166.361 C 176.447,165.941 176.528,165.604 176.583,165.393 C 176.633,165.2 176.702,164.583 176.702,164.28 C 176.703,163.49 176.612,162.649 176.427,161.983 C 176.256,161.361 175.986,160.867 175.752,160.273 C 175.287,159.091 175.312,158.652 174.896,157.85 C 174.423,156.926 174.658,156.529 174.027,156.31 C 173.242,156.042 172.606,156.842 171.864,156.579 z " />
		<path
   id="path2185"
   d="M 173.797,159.504 C 173.819,159.411 174.92,159.671 175.119,159.807 C 175.313,159.941 176.202,161.515 176.046,161.503 C 175.896,161.493 175.558,160.854 175.021,160.398 C 174.481,159.942 173.778,159.599 173.797,159.504 z " />
		<path
   id="path2187"
   d="M 171.345,160.906 C 171.447,160.965 171.283,161.614 171.275,162.344 C 171.267,163.073 171.408,163.444 171.341,163.49 C 171.275,163.536 171.105,163.123 171.112,162.394 C 171.122,161.665 171.243,160.843 171.345,160.906 z " />
		<path
   id="path2189"
   d="M 171.757,158.616 C 171.816,158.643 172.237,158.723 172.254,158.767 C 172.271,158.8 171.99,158.776 171.903,158.826 C 171.883,158.842 171.796,158.882 171.749,158.86 C 171.71,158.84 171.686,158.756 171.632,158.673 C 171.496,158.486 171.411,158.465 171.439,158.425 C 171.457,158.392 171.644,158.568 171.757,158.616 z " />
		<path
   id="path2191"
   d="M 170.37,158.177 C 170.345,158.272 169.975,158.175 169.713,158.217 C 169.553,158.243 169.468,158.343 169.249,158.434 C 169.03,158.524 169.986,156.611 169.931,156.886 C 169.877,157.161 169.773,157.283 169.827,157.483 C 169.923,157.836 170.396,158.082 170.37,158.177 z " />
	</g>
	<g
   id="g2193">
		<path
   style="fill:#ffb80f"
   id="path2195"
   d="M 179.608,166.727 C 179.848,167.164 179.6,167.509 179.774,167.852 C 180.061,168.414 180.639,169.093 180.862,169.308 C 181.02,169.466 181.246,169.645 181.237,169.919 C 181.225,170.231 181.065,170.251 180.977,170.302 C 180.797,170.406 179.895,170.486 179.295,170.647 C 178.541,170.853 178.28,170.974 178.035,171.116 C 177.654,171.338 177.291,171.319 176.712,171.09 C 176.133,170.861 175.873,170.639 175.693,170.414 C 175.515,170.19 175.318,169.726 175.339,169.156 C 175.356,168.59 175.542,168.138 175.633,167.283 C 175.673,166.916 175.669,166.439 175.669,166.018 C 175.67,165.487 175.678,165.039 175.795,165.016 C 176.005,164.971 176.051,164.981 176.301,165.08 C 176.549,165.179 176.661,165.238 176.743,165.35 C 176.821,165.457 176.789,165.619 176.762,165.855 C 176.739,166.091 176.86,166.22 176.979,166.371 C 177.1,166.517 177.208,166.685 177.589,166.866 C 177.971,167.045 178.11,167.039 178.289,167 C 178.468,166.961 178.721,166.862 178.814,166.787 C 178.902,166.713 179.126,166.42 179.168,166.437 C 179.208,166.45 179.466,166.464 179.608,166.727 z " />
		<path
   style="fill:#ffb80f"
   id="path2197"
   d="M 166.051,161.942 C 165.7,162.05 164.815,161.676 164.589,161.875 C 164.367,162.076 164.596,162.584 164.591,163.357 C 164.591,163.687 164.532,163.914 164.493,164.1 C 164.439,164.333 164.403,164.497 164.512,164.723 C 164.71,165.124 165.029,165.33 166.851,166.424 C 167.826,167.008 168.747,167.885 169.365,168.18 C 169.983,168.469 170.115,168.322 170.493,168.145 C 170.867,167.965 170.987,168.116 170.975,167.395 C 170.964,166.676 170.495,166.278 169.963,165.244 C 169.431,164.209 169.346,164.024 168.994,163.338 C 168.641,162.659 167.943,161.403 167.542,161.233 C 167.224,161.1 167.044,161.195 166.846,161.315 C 166.646,161.429 166.4,161.834 166.051,161.942 z " />
	</g>
	<g
   id="g2199">
		<path
   style="fill:#ffffff"
   id="path2201"
   d="M 171.245,154.53 C 171.477,154.531 171.485,154.542 171.641,154.273 C 171.766,154.068 171.829,153.964 171.826,153.575 C 171.826,153.196 171.706,153.019 171.524,152.7 C 171.348,152.395 171.069,152.274 170.895,152.235 C 170.793,152.21 170.662,152.283 170.572,152.433 C 170.514,152.536 170.467,152.676 170.463,152.842 C 170.45,153.285 170.489,153.471 170.593,153.816 C 170.717,154.222 171.021,154.527 171.245,154.53 z " />
		<path
   id="path2203"
   d="M 171.028,152.899 C 171.145,152.945 171.293,153.08 171.362,153.21 C 171.436,153.341 171.491,153.507 171.491,153.67 C 171.491,153.913 171.463,154.171 171.315,154.196 C 171.268,154.204 171.168,154.187 171.108,154.163 C 170.977,154.111 170.964,154.023 170.84,153.849 C 170.798,153.786 170.669,153.516 170.67,153.333 C 170.67,153.219 170.643,153.045 170.745,152.941 C 170.815,152.864 170.905,152.85 171.028,152.899 z " />
		<path
   style="fill:#ffffff"
   id="path2205"
   d="M 173.655,155.533 C 174.237,155.703 174.444,155.565 174.55,155.223 C 174.644,154.919 174.648,154.54 174.388,153.994 C 174.144,153.472 174.004,153.348 173.65,153.181 C 173.107,152.92 172.849,153.19 172.728,153.408 C 172.601,153.645 172.626,153.615 172.633,153.982 C 172.642,154.368 172.761,154.576 172.898,154.868 C 173.033,155.158 173.589,155.511 173.655,155.533 z " />
		<path
   id="path2207"
   d="M 173.61,153.906 C 173.903,154.022 174.073,154.344 174.131,154.693 C 174.153,154.85 174.119,155.007 174.027,155.088 C 173.922,155.183 173.734,155.193 173.584,155.133 C 173.439,155.076 173.277,155.034 173.191,154.886 C 173.105,154.735 173.087,154.465 173.087,154.279 C 173.087,154.071 173.15,153.946 173.258,153.872 C 173.339,153.817 173.485,153.857 173.61,153.906 z " />
		<path
   style="fill:#ffffff"
   id="path2209"
   d="M 173.672,154.109 C 173.703,154.09 173.769,154.147 173.843,154.256 C 173.92,154.371 173.92,154.439 173.859,154.46 C 173.799,154.486 173.777,154.356 173.738,154.294 C 173.668,154.199 173.61,154.141 173.672,154.109 z " />
		<path
   style="fill:#ffffff"
   id="path2211"
   d="M 171.056,153.108 C 171.078,153.075 171.187,153.129 171.234,153.226 C 171.282,153.326 171.29,153.515 171.265,153.513 C 171.198,153.512 171.202,153.403 171.14,153.305 C 171.081,153.207 171.034,153.145 171.056,153.108 z " />
		<path
   style="fill:#ffffff"
   id="path2213"
   d="M 173.877,153.041 C 173.878,153.073 174.048,153.17 174.118,153.223 C 174.188,153.276 174.352,153.48 174.417,153.577 C 174.481,153.675 174.601,153.956 174.64,153.962 C 174.679,153.967 174.593,153.775 174.531,153.663 C 174.468,153.551 174.277,153.275 174.154,153.178 C 174.032,153.081 173.875,153.01 173.877,153.041 z " />
		<path
   style="fill:#ffffff"
   id="path2215"
   d="M 171.216,152.106 C 171.218,152.162 171.4,152.216 171.587,152.449 C 171.778,152.687 171.8,152.839 171.858,152.857 C 171.916,152.875 171.828,152.662 171.631,152.414 C 171.479,152.22 171.214,152.051 171.216,152.106 z " />
	</g>
	<g
   id="g2217">
		<path
   style="fill:#ffb80f"
   id="path2219"
   d="M 172.136,154.082 C 172.42,154.16 172.808,154.382 172.988,154.582 C 173.154,154.77 173.271,154.88 173.423,154.99 C 173.932,155.355 174.6,155.696 174.569,156.131 C 174.534,156.652 174.375,156.828 173.92,156.788 C 173.556,156.754 172.899,157.113 172.396,156.913 C 172.17,156.824 171.855,156.71 171.672,156.574 C 171.497,156.444 171.252,156.058 170.965,155.713 C 170.679,155.372 170.41,155.022 170.402,154.7 C 170.392,154.358 170.617,154.338 170.935,154.194 C 171.103,154.116 171.406,153.997 171.617,153.974 C 171.81,153.956 171.935,154.025 172.136,154.082 z " />
		<path
   id="path2221"
   d="M 171.212,155.552 C 171.122,155.485 171.033,155.399 170.998,155.355 C 170.874,155.23 170.653,154.936 170.579,154.859 C 170.556,154.842 170.491,154.821 170.505,154.871 C 170.544,155.011 170.627,155.118 170.737,155.248 C 170.872,155.407 171.038,155.578 171.184,155.707 C 171.268,155.783 171.483,155.915 171.483,155.915 C 171.688,156.023 171.879,156.091 172.004,156.141 C 172.296,156.256 172.657,156.282 173.038,156.254 C 173.412,156.22 173.5,156.183 173.767,156.14 C 174.023,156.101 174.347,156.047 174.234,155.949 C 174.121,155.847 174.007,155.883 173.638,155.953 C 173.282,156.024 173.035,156.06 172.679,156.07 C 172.515,156.074 172.297,156.071 172.134,156.018 C 171.98,155.967 171.777,155.883 171.655,155.836 C 171.517,155.779 171.358,155.662 171.212,155.552 z " />
		<path
   id="path2223"
   d="M 172.366,154.434 C 172.408,154.535 172.516,154.589 172.591,154.66 C 172.661,154.726 172.7,154.748 172.728,154.744 C 172.79,154.738 172.744,154.61 172.681,154.547 C 172.622,154.487 172.342,154.368 172.366,154.434 z " />
		<path
   id="path2225"
   d="M 171.511,154.221 C 171.498,154.25 171.595,154.353 171.642,154.326 C 171.697,154.305 171.758,154.288 171.783,154.283 C 171.88,154.261 171.842,154.203 171.685,154.164 C 171.524,154.132 171.524,154.192 171.511,154.221 z " />
	</g>
	<g
   id="g2227">
		<path
   style="fill:#ffffff"
   id="path2229"
   d="M 177.84,163.897 C 177.782,164.274 177.751,164.415 177.668,164.649 C 177.599,164.848 177.497,165.036 177.47,165.094 C 177.459,165.117 177.517,165.136 177.541,165.111 C 177.565,165.087 177.584,165.06 177.612,165.008 C 177.731,164.798 178.01,164.078 177.908,163.339 C 177.817,162.689 177.585,162.086 177.084,161.37 C 176.935,161.158 176.437,160.659 176.401,160.704 C 176.375,160.738 176.824,161.014 177.292,161.81 C 177.713,162.528 177.925,163.343 177.84,163.897 z " />
		<path
   style="fill:#ffffff"
   id="path2231"
   d="M 177.13,165.025 C 177.267,164.993 177.579,165.087 177.776,165.175 C 177.973,165.263 178.198,165.385 178.198,165.385 C 178.198,165.385 178.397,165.492 178.578,165.636 C 178.761,165.78 178.991,166.008 179.002,166.145 C 179.013,166.282 178.933,166.201 178.853,166.048 C 178.773,165.898 178.619,165.746 178.427,165.608 C 178.235,165.47 177.959,165.334 177.849,165.283 C 177.738,165.232 177.454,165.119 177.29,165.106 C 177.126,165.093 177.04,165.182 176.963,165.168 C 176.886,165.153 176.995,165.057 177.13,165.025 z " />
		<path
   style="fill:#ffffff"
   id="path2233"
   d="M 167.887,160.082 C 167.847,160.493 167.909,160.87 168.033,161.165 C 168.168,161.486 168.587,162.003 168.559,162.019 C 168.5,162.054 168.028,161.335 167.935,161.098 C 167.809,160.779 167.753,160.437 167.806,160.007 C 167.877,159.419 168.09,159.015 168.339,158.596 C 168.431,158.441 168.703,158.056 168.749,158.126 C 168.807,158.214 168.591,158.282 168.3,158.849 C 168.029,159.376 167.932,159.61 167.887,160.082 z " />
		<path
   style="fill:#ffffff"
   id="path2235"
   d="M 173.847,151.566 C 173.8,151.601 173.744,152.034 173.867,152.128 C 173.984,152.223 174.4,152.191 174.384,152.078 C 174.362,151.913 174.19,151.652 174.12,151.617 C 174.049,151.586 173.89,151.523 173.847,151.566 z " />
		<path
   style="fill:#ffffff"
   id="path2237"
   d="M 175.188,156.874 C 175.153,156.898 175.215,157.257 175.436,157.564 C 175.653,157.863 175.79,157.917 175.879,157.857 C 176.051,157.747 175.914,157.526 175.811,157.367 C 175.707,157.208 175.569,157.196 175.446,157.029 C 175.325,156.863 175.24,156.837 175.188,156.874 z " />
	</g>
	<g
   style="opacity:0.37999998"
   id="Shape_4_2_">
		<g
   id="g2240">
			<polygon
   style="fill:#313735"
   id="polygon2242"
   points="159.74,145.9 159.74,167.259 184.3,175.9 187.021,151.02 159.74,145.9 " />
		</g>
	</g>
</g></g>
</svg>