<?xml version="1.0" encoding="UTF-8" standalone="no"?>
<!-- Generator: Adobe Illustrator 12.0.0, SVG Export Plug-In . SVG Version: 6.00 Build 51448)  -->
<svg
   xmlns:dc="http://purl.org/dc/elements/1.1/"
   xmlns:cc="http://web.resource.org/cc/"
   xmlns:rdf="http://www.w3.org/1999/02/22-rdf-syntax-ns#"
   xmlns:svg="http://www.w3.org/2000/svg"
   xmlns="http://www.w3.org/2000/svg"
   xmlns:xlink="http://www.w3.org/1999/xlink"
   xmlns:sodipodi="http://inkscape.sourceforge.net/DTD/sodipodi-0.dtd"
   xmlns:inkscape="http://www.inkscape.org/namespaces/inkscape"
   version="1.0"
   id="Layer_1"
   width="43"
   height="50"
   viewBox="0 0 384.439 447.4"
   overflow="visible"
   enable-background="new 0 0 384.439 447.4"
   xml:space="preserve"
   sodipodi:version="0.32"
   inkscape:version="0.42+devel"
   sodipodi:docname="printer.svg"
   sodipodi:docbase="C:\Documents and Settings\Administrator\My Documents\ikonas\pareizi"><metadata
   id="metadata1528"><rdf:RDF><cc:Work
       rdf:about=""><dc:format>image/svg+xml</dc:format><dc:type
         rdf:resource="http://purl.org/dc/dcmitype/StillImage" /></cc:Work></rdf:RDF></metadata><defs
   id="defs1526" /><sodipodi:namedview
   inkscape:window-height="975"
   inkscape:window-width="1280"
   inkscape:pageshadow="2"
   inkscape:pageopacity="0.0"
   borderopacity="1.0"
   bordercolor="#666666"
   pagecolor="#ffffff"
   id="base"
   inkscape:zoom="5.9780103"
   inkscape:cx="48.471315"
   inkscape:cy="11.71119"
   inkscape:window-x="-4"
   inkscape:window-y="-4"
   inkscape:current-layer="Layer_1" />









<g
   id="g1530"
   transform="matrix(9.404200,0.000000,0.000000,9.404200,-1613.281,-1879.683)"><g
     id="g1437">
	<g
   id="g1439">
		<polygon
   style="fill:#434745"
   points="203.074,240.855 208.555,235.991 208.445,235.067 203.249,239.645 203.074,240.855 "
   id="XMLID_1_" />
	</g>
</g><g
     id="g1442">
	<g
   id="g1444">
		<path
   style="fill:#aeadad"
   d="M 194.084,247.137 C 194.104,245.889 194.375,241.767 194.269,242.878 C 194.281,243.322 191.075,242.172 191.075,242.172 L 172.348,231.532 L 172.043,231.114 C 172.043,231.114 172.246,234.161 172.31,234.77 C 172.373,235.378 172.805,235.532 172.805,235.532 L 175.953,237.398 L 191.202,246.451 C 191.202,246.451 194.071,247.923 194.084,247.137 L 194.084,247.137 z "
   id="XMLID_3_" />
	</g>
</g><g
     id="g1447">
	<g
   id="g1449">
		<path
   style="fill:#bababa"
   d="M 212.43,212.844 C 212.43,212.844 212.151,208.908 211.593,209.112 C 211.617,209.112 211.541,209.619 211.541,209.619 C 211.541,209.619 205.041,213.377 204.33,213.86 C 203.619,214.343 201.182,214.368 201.182,214.368 C 201.182,214.368 198.642,214.267 198.109,213.886 C 197.576,213.505 179.065,207.335 178.811,207.157 C 178.379,206.954 178.557,205.811 178.354,206.014 C 178.15,206.218 176.652,208.401 176.576,208.757 C 176.5,209.112 177.465,209.594 177.465,209.594 L 197.271,216.831 C 197.271,216.831 199.76,217.339 199.988,217.466 C 200.217,217.593 200.547,217.695 200.395,217.974 C 200.243,218.253 199.912,218.938 199.76,219.345 C 199.608,219.752 203.01,218.634 203.01,218.634 L 212.43,212.844 L 212.43,212.844 z "
   id="XMLID_5_" />
	</g>
</g><g
     id="g1452">
	<g
   id="g1454">
		<path
   style="fill:#8c8c8c"
   d="M 206.94,207.736 L 207.487,207.359 L 210.675,208.359 L 211.561,208.793 C 211.561,208.793 211.977,209.264 211.467,209.698 C 210.958,210.133 207.863,211.906 205.034,213.567 C 202.204,215.227 198.884,214.208 198.884,214.208 C 198.884,214.208 180.905,207.925 179.49,207.453 C 178.075,206.982 178.188,206.302 178.358,206 C 178.528,205.698 179.32,205.283 179.32,205.283 C 179.32,205.283 185.828,202.792 187.262,202.396 C 188.695,202 191.167,202.623 191.167,202.623 L 190.563,202.925 C 190.563,202.925 188.355,202.566 187.28,202.925 C 185.696,203.471 180.205,205.434 179.753,205.641 C 179.3,205.849 178.584,206.641 179.828,207.057 C 181.752,207.68 198.242,213.321 199.034,213.623 C 199.826,213.925 202.938,214.113 204.353,213.151 C 205.768,212.189 210.673,209.566 210.673,209.566 C 210.673,209.566 210.975,209.019 210.427,208.811 C 209.884,208.604 206.94,207.736 206.94,207.736 L 206.94,207.736 z "
   id="XMLID_7_" />
	</g>
</g><g
     id="g1457">
	<g
   id="g1459">
		<g
   id="g1461">
			<path
   style="fill:#a6a6a6"
   d="M 199.971,219.268 C 199.971,219.268 200.165,218.684 200.395,218.126 C 200.623,217.567 200.064,217.338 200.064,217.338 C 200.064,217.338 197.652,216.839 197.22,216.703 C 196.789,216.568 188.104,213.301 188.104,213.301 L 177.668,209.569 C 177.668,209.569 176.602,208.747 176.686,208.578 C 176.77,208.409 175.839,210.127 175.839,210.127 L 175.843,210.254 L 181.615,212.642 L 192.178,216.451 L 199.971,219.268 L 199.971,219.268 z "
   id="XMLID_9_" />
		</g>
	</g>
</g><g
     id="g1464">
	<g
   id="g1466">
		
			<linearGradient
   gradientTransform="matrix(1.000000,0.000000,0.000000,-1.000000,-1.022500,446.2778)"
   y2="219.6506"
   x2="201.1113"
   y1="219.6506"
   x1="172.9053"
   gradientUnits="userSpaceOnUse"
   id="XMLID_13_">
			<stop
   id="stop1469"
   style="stop-color:#BABABA"
   offset="0" />
			<stop
   id="stop1471"
   style="stop-color:#B1B1B1"
   offset="0.2812" />
			<stop
   id="stop1473"
   style="stop-color:#9A9A9A"
   offset="0.7295" />
			<stop
   id="stop1475"
   style="stop-color:#898989"
   offset="1" />
		</linearGradient>
		<path
   style="fill:url(#XMLID_13_)"
   d="M 194.49,242.909 C 194.579,242.413 195.113,234.808 195.913,231.558 C 196.713,228.307 200.089,219.09 200.089,219.09 L 192.421,216.347 L 182.036,212.602 C 182.036,212.602 176.196,210.087 176.095,210.139 C 174.916,210.747 172.705,219.966 172.476,221.375 C 172.247,222.784 171.458,229.551 172.184,231.341 C 172.543,232.226 182.214,237.22 182.214,237.22 C 182.214,237.22 190.391,241.993 191.508,242.45 C 192.624,242.909 194.401,243.404 194.49,242.909 L 194.49,242.909 z "
   id="XMLID_11_" />
	</g>
</g><g
     id="g1478">
	<g
   id="g1480">
		<path
   style="fill:#808080"
   d="M 199.911,219.141 C 200.496,219.395 203.136,218.405 203.136,218.405 L 212.558,212.615 C 212.558,212.615 211.568,222.798 211.568,222.696 C 211.568,222.595 210.907,223.23 210.907,223.23 L 210.248,230.009 C 210.248,230.009 210.781,230.441 210.781,230.873 C 210.781,231.305 210.45,234.477 210.45,234.477 L 208.444,236.28 L 208.368,235.367 C 208.368,235.367 203.798,239.226 203.569,239.606 C 203.34,239.988 203.238,240.852 203.238,240.852 L 197.043,246.438 C 197.043,246.438 193.996,247.758 193.971,247.225 C 193.946,246.692 194.174,243.391 194.174,243.391 C 194.174,243.391 194.047,238.973 195.494,232.319 C 196.94,225.667 199.48,219.243 199.911,219.141 L 199.911,219.141 z "
   id="XMLID_14_" />
	</g>
</g><g
     id="g1483">
	<g
   id="g1485">
		<path
   style="fill:#676364"
   d="M 207.53,207.409 L 208.367,207.613 C 208.367,207.613 209.89,205.633 210.399,204.972 C 210.906,204.312 209.738,203.55 209.738,203.55 L 196.229,200.097 C 196.229,200.097 195.213,199.792 194.097,200.503 C 192.979,201.214 190.668,202.864 190.668,202.864 C 190.668,202.864 188.611,202.432 187.189,202.89 C 185.767,203.347 181.907,204.82 179.977,205.531 C 178.047,206.241 179.673,207.003 179.673,207.003 L 198.667,213.631 C 198.667,213.631 201.663,214.672 203.644,213.555 C 205.625,212.438 210.602,209.645 210.602,209.645 C 210.602,209.645 211.694,209.035 210.728,208.781 C 209.764,208.527 207.123,207.714 207.123,207.714 L 207.53,207.409 L 207.53,207.409 z "
   id="XMLID_17_" />
	</g>
</g><g
     id="g1488">
	<g
   id="g1490">
		<polygon
   points="185.159,205.582 191.303,203.246 195.163,200.554 189.323,206.851 185.159,205.582 "
   id="XMLID_20_" />
	</g>
	<g
   id="g1493">
		<defs
   id="defs1495">
			<path
   d="M 207.53,207.409 L 208.367,207.613 C 208.367,207.613 209.89,205.633 210.399,204.972 C 210.906,204.312 209.738,203.55 209.738,203.55 L 196.229,200.097 C 196.229,200.097 195.213,199.792 194.097,200.503 C 192.979,201.214 190.668,202.864 190.668,202.864 C 190.668,202.864 188.611,202.432 187.189,202.89 C 185.767,203.347 181.907,204.82 179.977,205.531 C 178.047,206.241 179.673,207.003 179.673,207.003 L 198.667,213.631 C 198.667,213.631 201.663,214.672 203.644,213.555 C 205.625,212.438 210.602,209.645 210.602,209.645 C 210.602,209.645 211.694,209.035 210.728,208.781 C 209.764,208.527 207.123,207.714 207.123,207.714 L 207.53,207.409 L 207.53,207.409 z "
   id="XMLID_4_" />
		</defs>
		<clipPath
   id="XMLID_15_">
			<use
   height="447.39999"
   width="384.439"
   y="0"
   x="0"
   id="use1499"
   xlink:href="#XMLID_4_" />
		</clipPath>
	</g>
</g><g
     id="g1501">
	
		<linearGradient
   gradientTransform="matrix(1.000000,0.000000,0.000000,-1.000000,-1.022500,446.2778)"
   y2="240.925"
   x2="210.60941"
   y1="240.925"
   x1="190.2944"
   gradientUnits="userSpaceOnUse"
   id="XMLID_16_">
		<stop
   id="stop1504"
   style="stop-color:#020202"
   offset="0" />
		<stop
   id="stop1506"
   style="stop-color:#2C2C2C"
   offset="0.1966" />
		<stop
   id="stop1508"
   style="stop-color:#5E5E5E"
   offset="0.4606" />
		<stop
   id="stop1510"
   style="stop-color:#828282"
   offset="0.6922" />
		<stop
   id="stop1512"
   style="stop-color:#989898"
   offset="0.8798" />
		<stop
   id="stop1514"
   style="stop-color:#A0A0A0"
   offset="1" />
	</linearGradient>
	<polygon
   style="fill:url(#XMLID_16_)"
   points="189.272,206.851 200.089,210.304 206.031,207.308 209.587,204.16 195.367,200.402 189.272,206.851 "
   id="XMLID_24_" />
</g></g>
<g
   id="g1517">
	<defs
   id="defs1519">
		<path
   id="XMLID_10_"
   d="M 207.53,207.409 L 208.367,207.613 C 208.367,207.613 209.89,205.633 210.399,204.972 C 210.906,204.312 209.738,203.55 209.738,203.55 L 196.229,200.097 C 196.229,200.097 195.213,199.792 194.097,200.503 C 192.979,201.214 190.668,202.864 190.668,202.864 C 190.668,202.864 188.611,202.432 187.189,202.89 C 185.767,203.347 181.907,204.82 179.977,205.531 C 178.047,206.241 179.673,207.003 179.673,207.003 L 198.667,213.631 C 198.667,213.631 201.663,214.672 203.644,213.555 C 205.625,212.438 210.602,209.645 210.602,209.645 C 210.602,209.645 211.694,209.035 210.728,208.781 C 209.764,208.527 207.123,207.714 207.123,207.714 L 207.53,207.409 L 207.53,207.409 z " />
	</defs>
	<clipPath
   id="XMLID_18_">
		<use
   xlink:href="#XMLID_10_"
   id="use1523"
   x="0"
   y="0"
   width="384.439"
   height="447.39999" />
	</clipPath>
</g>
</svg>