<?xml version="1.0" encoding="UTF-8" standalone="no"?>
<!-- Generator: Adobe Illustrator 12.0.0, SVG Export Plug-In . SVG Version: 6.00 Build 51448)  -->
<svg
   xmlns:dc="http://purl.org/dc/elements/1.1/"
   xmlns:cc="http://web.resource.org/cc/"
   xmlns:rdf="http://www.w3.org/1999/02/22-rdf-syntax-ns#"
   xmlns:svg="http://www.w3.org/2000/svg"
   xmlns="http://www.w3.org/2000/svg"
   xmlns:xlink="http://www.w3.org/1999/xlink"
   xmlns:sodipodi="http://sodipodi.sourceforge.net/DTD/sodipodi-0.dtd"
   xmlns:inkscape="http://www.inkscape.org/namespaces/inkscape"
   version="1.0"
   id="Layer_1"
   width="29"
   height="60"
   viewBox="0 0 160 319"
   overflow="visible"
   enable-background="new 0 0 160 319"
   xml:space="preserve"
   sodipodi:version="0.32"
   inkscape:version="0.44"
   sodipodi:docname="_rack.svg"
   sodipodi:docbase="Z:\docs\Vectors\Dude\ikonas\svg"><metadata
   id="metadata1954"><rdf:RDF><cc:Work
       rdf:about=""><dc:format>image/svg+xml</dc:format><dc:type
         rdf:resource="http://purl.org/dc/dcmitype/StillImage" /></cc:Work></rdf:RDF></metadata><defs
   id="defs1952" /><sodipodi:namedview
   inkscape:window-height="573"
   inkscape:window-width="853"
   inkscape:pageshadow="2"
   inkscape:pageopacity="0.0"
   guidetolerance="10.0"
   gridtolerance="10.0"
   objecttolerance="10.0"
   borderopacity="1.0"
   bordercolor="#666666"
   pagecolor="#ffffff"
   id="base"
   width="29px"
   showguides="true"
   inkscape:guide-bbox="true"
   height="60px"
   inkscape:zoom="4.3701517"
   inkscape:cx="41.084293"
   inkscape:cy="34.271912"
   inkscape:window-x="176"
   inkscape:window-y="232"
   inkscape:current-layer="Layer_1" />
<g
   id="Layer_1_3_"
   display="none"
   style="display:none">
	
		<image
   display="inline"
   enable-background="new    "
   width="161"
   height="320"
   transform="matrix(0.9938,0,0,0.9969,4.882813e-4,-4.882813e-4)"
   id="image1925"
   style="display:inline">
	</image>
</g>
<g
   id="Layer_2"
   transform="matrix(1.662865,0,0,1.656983,-46.65525,-105.2031)">
	<polygon
   points="33.253,69.322 88.986,61.791 89.589,258.512 36.869,248.873 33.253,69.322 "
   id="polygon1928"
   style="fill:#666" />
</g>
<g
   id="Layer_3"
   transform="matrix(1.656983,0,0,1.656983,-46.62532,-105.2031)">
	<polygon
   points="88.986,61.791 120.016,76.548 119.714,232.3 89.589,258.512 88.986,61.791 "
   id="polygon1931"
   style="fill:#3f3f3f" />
</g>
<g
   id="Layer_4"
   transform="matrix(1.656983,0,0,1.656983,-46.62532,-105.2031)">
	<polygon
   points="94.108,74.745 117.605,84.084 117.806,154.48 94.409,160.001 94.108,74.745 "
   id="polygon1934" />
</g>
<g
   id="Layer_5"
   transform="matrix(1.656983,0,0,1.656983,-46.62532,-105.2031)">
	<polygon
   points="94.409,165.122 117.691,158.43 117.541,226.85 94.409,245.558 94.409,165.122 "
   id="polygon1937" />
</g>
<g
   id="Layer_6"
   transform="matrix(1.656983,0,0,1.656983,-46.62532,-105.2031)">
	<polygon
   points="85.069,72.934 36.869,77.754 41.689,241.638 85.673,250.072 85.069,72.934 "
   id="polygon1940"
   style="fill:#3f3f3f" />
</g>
<g
   id="Layer_7"
   transform="matrix(1.656983,0,0,1.656983,-46.62532,-105.2031)">
	<polygon
   points="40.557,201.509 85.491,206.204 85.409,186.934 39.99,184.183 40.557,201.509 "
   id="polygon1943"
   style="fill:#303030" />
	<polygon
   points="41.689,241.638 85.491,249.924 85.491,230.088 41.448,223.611 41.689,241.638 "
   id="polygon1945"
   style="fill:#303030" />
	<polygon
   points="41.232,221.237 85.409,227.578 85.491,209.119 40.584,203.748 41.232,221.237 "
   id="polygon1947"
   style="fill:#303030" />
	<polygon
   points="37.745,107.469 85.167,104.322 85.061,86.19 37.218,90.083 37.745,107.469 "
   id="polygon1949"
   style="fill:#303030" />
</g>
</svg>