<?xml version="1.0" encoding="UTF-8" standalone="no"?>
<!-- Generator: Adobe Illustrator 12.0.0, SVG Export Plug-In . SVG Version: 6.00 Build 51448)  -->
<svg
   xmlns:dc="http://purl.org/dc/elements/1.1/"
   xmlns:cc="http://web.resource.org/cc/"
   xmlns:rdf="http://www.w3.org/1999/02/22-rdf-syntax-ns#"
   xmlns:svg="http://www.w3.org/2000/svg"
   xmlns="http://www.w3.org/2000/svg"
   xmlns:sodipodi="http://inkscape.sourceforge.net/DTD/sodipodi-0.dtd"
   xmlns:inkscape="http://www.inkscape.org/namespaces/inkscape"
   version="1.0"
   width="50"
   height="35pt"
   viewBox="0 0 507.84 433.919"
   overflow="visible"
   enable-background="new 0 0 507.84 433.919"
   xml:space="preserve"
   id="svg2602"
   sodipodi:version="0.32"
   inkscape:version="0.42+devel"
   sodipodi:docname="rb.svg"
   sodipodi:docbase="C:\Documents and Settings\Administrator\My Documents\ikonas\pareizi"><metadata
   id="metadata2751"><rdf:RDF><cc:Work
       rdf:about=""><dc:format>image/svg+xml</dc:format><dc:type
         rdf:resource="http://purl.org/dc/dcmitype/StillImage" /></cc:Work></rdf:RDF></metadata><defs
   id="defs2749" /><sodipodi:namedview
   inkscape:window-height="540"
   inkscape:window-width="742"
   inkscape:pageshadow="2"
   inkscape:pageopacity="0.0"
   borderopacity="1.0"
   bordercolor="#666666"
   pagecolor="#ffffff"
   id="base"
   inkscape:zoom="2.4378553"
   inkscape:cx="59.352258"
   inkscape:cy="17.99242"
   inkscape:window-x="198"
   inkscape:window-y="198"
   inkscape:current-layer="svg2602" />
























<g
   id="g2753"
   transform="matrix(1.077347,0.000000,0.000000,1.077347,-12.07822,-17.59116)"><g
     enable-background="new    "
     id="Shape_2_1_">
	<g
   id="Shape_2">
		<g
   id="g2606">
			<polygon
   style="fill:#353535"
   id="polygon2608"
   points="310.747,320.046 303.548,413.687 472.594,205.254 489.857,112.257 310.747,320.046 " />
		</g>
	</g>
</g><g
     id="Layer_27">
	<polyline
   style="fill:#444444"
   id="polyline2611"
   points="303.563,413.64 310.747,320.046 16.073,168.792 32.885,272.603  " />
</g><g
     id="Layer_26">
	<polyline
   style="fill:#5b5b5b"
   id="polyline2614"
   points="16.073,168.792 310.747,320.046 489.857,112.257 227.035,12.454  " />
</g><g
     enable-background="new    "
     id="Shape_4_1_">
	<g
   id="Shape_4">
		<g
   id="g2618">
			<polygon
   style="fill:#e4e5da"
   id="polygon2620"
   points="104.804,223.474 103.229,222.758 102.942,221.327 76.169,207.583 75.882,208.728 74.88,208.442 76.885,228.914 78.03,230.489 105.376,244.232 105.376,243.086 106.665,243.516 104.804,223.474 " />
		</g>
	</g>
</g><g
     enable-background="new    "
     id="Shape_5_1_">
	<g
   id="Shape_5">
		<g
   id="g2624">
			<polygon
   style="fill:#e4e5da"
   id="polygon2626"
   points="140.168,240.653 138.736,239.937 138.736,239.078 110.244,224.762 110.244,225.908 109.529,225.764 111.104,246.093 111.962,246.666 112.105,247.667 140.168,261.698 140.454,260.696 141.6,261.125 140.168,240.653 " />
		</g>
	</g>
</g><g
     enable-background="new    "
     id="Shape_6_1_">
	<g
   id="Shape_6">
		<g
   id="g2630">
			<polygon
   style="fill:#e4e5da"
   id="polygon2632"
   points="176.964,259.407 175.389,258.405 175.103,256.973 146.324,242.8 146.038,243.802 145.179,243.516 146.038,263.416 147.183,265.707 175.961,280.308 176.104,279.164 177.393,279.736 176.964,259.407 " />
		</g>
	</g>
</g><g
     enable-background="new    "
     id="Shape_6_copy_1_">
	<g
   id="Shape_6_copy">
		<g
   id="g2636">
			<polygon
   style="fill:#e4e5da"
   id="polygon2638"
   points="151.043,290.607 149.469,289.605 149.183,288.173 120.404,274 120.118,275.002 119.259,274.716 120.118,294.616 121.263,296.906 150.042,311.508 150.185,310.363 151.473,310.936 151.043,290.607 " />
		</g>
	</g>
</g><g
     enable-background="new    "
     id="Shape_7_1_">
	<g
   id="Shape_7">
		<g
   id="g2642">
			<polygon
   style="fill:#e4e5da"
   id="polygon2644"
   points="213.043,277.302 213.187,276.014 183.264,260.838 182.977,261.554 181.975,261.841 182.261,281.74 182.977,282.313 182.977,283.458 212.757,298.633 213.043,297.63 214.619,298.204 214.762,278.018 213.043,277.302 " />
		</g>
	</g>
</g><g
     enable-background="new    "
     id="Shape_8_1_">
	<g
   id="Shape_8">
		<g
   id="g2648">
			<polygon
   style="fill:#e4e5da"
   id="polygon2650"
   points="252.273,296.628 252.273,295.34 221.205,280.166 220.775,281.024 219.773,280.881 219.916,301.067 220.775,301.783 220.632,302.785 251.415,318.389 251.558,317.101 253.419,317.817 253.705,297.344 252.273,296.628 " />
		</g>
	</g>
</g><g
     enable-background="new    "
     id="Shape_8_copy_1_">
	<g
   id="Shape_8_copy">
		<g
   id="g2654">
			<polygon
   style="fill:#e4e5da"
   id="polygon2656"
   points="249.394,341.749 249.394,340.46 218.325,325.286 217.895,326.144 216.893,326.001 217.036,346.187 217.895,346.903 217.752,347.905 248.535,363.509 248.678,362.221 250.539,362.937 250.825,342.464 249.394,341.749 " />
		</g>
	</g>
</g><g
     enable-background="new    "
     id="Shape_9_1_">
	<g
   id="Shape_9">
		<g
   id="g2660">
			<polygon
   style="fill:#e4e5da"
   id="polygon2662"
   points="292.935,316.958 292.792,315.669 260.005,299.921 260.005,300.923 258.859,300.923 258.287,320.537 259.719,321.396 259.433,322.684 291.074,338.718 291.504,337.287 293.222,338.002 294.08,317.673 292.935,316.958 " />
		</g>
	</g>
</g><g
     enable-background="new    "
     id="Shape_9_copy_1_">
	<g
   id="Shape_9_copy">
		<g
   id="g2666">
			<polygon
   style="fill:#e4e5da"
   id="polygon2668"
   points="288.615,361.118 288.472,359.829 255.685,344.082 255.685,345.083 254.539,345.083 253.967,364.697 255.398,365.555 255.112,366.844 286.754,382.877 287.184,381.447 288.901,382.163 289.761,361.833 288.615,361.118 " />
		</g>
	</g>
</g><g
     enable-background="new    "
     id="Shape_10_1_">
	<g
   id="Shape_10">
		<g
   id="g2672">
			<polygon
   style="fill:#636365"
   id="polygon2674"
   points="49.931,239.438 34.141,232.751 35.849,251.164 51.495,258.929 49.931,239.438 " />
		</g>
	</g>
</g><g
     enable-background="new    "
     id="Shape_11_1_">
	<g
   id="Shape_11">
		<g
   id="g2678">
			<polygon
   style="fill:#636365"
   id="polygon2680"
   points="101.291,223.229 77.616,211.225 79.438,227.753 102.497,239.861 101.291,223.229 " />
		</g>
	</g>
</g><g
     enable-background="new    "
     id="Shape_12_1_">
	<g
   id="Shape_12">
		<g
   id="g2684">
			<polygon
   style="fill:#636365"
   id="polygon2686"
   points="136.8,240.24 112.56,228.24 114.24,244.08 137.28,256.08 136.8,240.24 " />
		</g>
	</g>
</g><g
     enable-background="new    "
     id="Shape_13_1_">
	<g
   id="Shape_13">
		<g
   id="g2690">
			<polygon
   style="fill:#636365"
   id="polygon2692"
   points="148.08,246 149.04,261.84 173.28,274.32 173.28,258.72 148.08,246 " />
		</g>
	</g>
</g><g
     enable-background="new    "
     id="Shape_13_copy_1_">
	<g
   id="Shape_13_copy">
		<g
   id="g2696">
			<polygon
   style="fill:#636365"
   id="polygon2698"
   points="122.4,278.4 123.36,294.24 147.6,306.72 147.6,291.12 122.4,278.4 " />
		</g>
	</g>
</g><g
     enable-background="new    "
     id="Shape_14_1_">
	<g
   id="Shape_14">
		<g
   id="g2702">
			<polygon
   style="fill:#636365"
   id="polygon2704"
   points="210.48,277.44 185.28,264.72 185.52,280.32 210.72,293.04 210.48,277.44 " />
		</g>
	</g>
</g><g
     enable-background="new    "
     id="Shape_15_1_">
	<g
   id="Shape_15">
		<g
   id="g2708">
			<polygon
   style="fill:#636365"
   id="polygon2710"
   points="222.72,283.44 222.96,299.52 248.64,312.72 249.36,296.64 222.72,283.44 " />
		</g>
	</g>
</g><g
     enable-background="new    "
     id="Shape_15_copy_1_">
	<g
   id="Shape_15_copy">
		<g
   id="g2714">
			<polygon
   style="fill:#636365"
   id="polygon2716"
   points="220.56,329.52 220.8,345.6 246.48,358.8 247.2,342.72 220.56,329.52 " />
		</g>
	</g>
</g><g
     enable-background="new    "
     id="Shape_16_1_">
	<g
   id="Shape_16">
		<g
   id="g2720">
			<polygon
   style="fill:#636365"
   id="polygon2722"
   points="262.32,303.36 262.08,319.2 288.72,332.16 289.92,316.8 262.32,303.36 " />
		</g>
	</g>
</g><g
     enable-background="new    "
     id="Shape_16_copy_1_">
	<g
   id="Shape_16_copy">
		<g
   id="g2726">
			<polygon
   style="fill:#636365"
   id="polygon2728"
   points="258.24,348.72 258,364.56 284.64,377.52 285.84,362.16 258.24,348.72 " />
		</g>
	</g>
</g><g
     enable-background="new    "
     id="Shape_17_1_">
	<g
   id="Shape_17">
		<g
   id="g2732">
			<polygon
   style="fill:#e4e5da"
   id="polygon2734"
   points="154.56,292.8 154.56,313.919 214.2,344.64 214.44,323.4 154.56,292.8 " />
		</g>
	</g>
</g><g
     enable-background="new    "
     id="Shape_18_1_">
	<g
   id="Shape_18">
		<g
   id="g2738">
			<polygon
   style="fill:#949494"
   id="polygon2740"
   points="190.8,324.12 166.2,310.919 163.08,311.88 162.96,314.28 164.04,321.36 167.04,324.959 185.76,335.16 189.48,336.84 192.6,336.6 193.68,332.88 194.4,328.44 190.8,324.12 " />
		</g>
	</g>
</g><g
     enable-background="new    "
     id="Shape_19_1_">
	<g
   id="Shape_19">
		<g
   id="g2744">
			<polygon
   style="fill:#7e7e7e"
   id="polygon2746"
   points="202.32,318.959 200.04,316.44 172.92,302.64 170.52,303 163.2,310.44 162.72,311.64 165.48,310.8 168.6,312.12 173.64,314.76 189.36,323.04 192.72,325.68 193.8,327.48 194.16,331.2 193.68,334.56 192.24,337.2 202.08,329.28 203.28,324.6 202.32,318.959 " />
		</g>
	</g>
</g></g>
</svg>