<?xml version="1.0" encoding="UTF-8" standalone="no"?>
<!-- Created with Inkscape (http://www.inkscape.org/) -->
<svg
   xmlns:dc="http://purl.org/dc/elements/1.1/"
   xmlns:cc="http://web.resource.org/cc/"
   xmlns:rdf="http://www.w3.org/1999/02/22-rdf-syntax-ns#"
   xmlns:svg="http://www.w3.org/2000/svg"
   xmlns="http://www.w3.org/2000/svg"
   xmlns:sodipodi="http://inkscape.sourceforge.net/DTD/sodipodi-0.dtd"
   xmlns:inkscape="http://www.inkscape.org/namespaces/inkscape"
   version="1.0"
   width="36"
   height="40pt"
   viewBox="0 0 420.48 564.48"
   id="svg4119"
   xml:space="preserve"
   sodipodi:version="0.32"
   inkscape:version="0.42+devel"
   sodipodi:docname="router.svg"
   sodipodi:docbase="C:\Documents and Settings\Administrator\My Documents\ikonas\pareizi"><metadata
   id="metadata2010"><rdf:RDF><cc:Work
       rdf:about=""><dc:format>image/svg+xml</dc:format><dc:type
         rdf:resource="http://purl.org/dc/dcmitype/StillImage" /></cc:Work></rdf:RDF></metadata><sodipodi:namedview
   inkscape:window-height="975"
   inkscape:window-width="1280"
   inkscape:pageshadow="2"
   inkscape:pageopacity="0.0"
   borderopacity="1.0"
   bordercolor="#666666"
   pagecolor="#ffffff"
   id="base"
   inkscape:zoom="7.48"
   inkscape:cx="25"
   inkscape:cy="25"
   inkscape:window-x="-4"
   inkscape:window-y="-4"
   inkscape:current-layer="svg4119" /><defs
   id="defs4180" />







<g
   transform="matrix(1.127444,0.000000,0.000000,1.127444,-27.61895,-43.01536)"
   id="g4184"><g
     id="Kaja">
	<g
   id="Shape_14">
		<g
   id="g4123">
			<path
   d="M 353.67,381.636 L 117.87,537.155 C 117.87,537.155 115.381,541.821 141.201,543.998 C 167.021,546.176 189.419,531.246 189.419,531.246 C 189.419,531.246 334.383,437.623 341.849,428.292 C 349.315,418.961 347.449,419.272 351.182,411.186 C 354.915,403.097 353.67,381.636 353.67,381.636 z "
   style="fill:#a0a0a0"
   id="path4125" />
		</g>
	</g>
</g><g
     id="Ena">
	<g
   id="Shape_13">
		<g
   id="g4129">
			<path
   d="M 350.871,382.258 L 141.823,523.781 C 141.823,523.781 138.401,524.092 154.267,526.891 C 170.132,529.69 177.287,530.312 194.085,518.804 C 210.883,507.295 320.073,439.8 332.827,429.225 C 345.582,418.65 349.919,405.273 350.87,397.188 C 352.737,381.325 350.871,382.258 350.871,382.258 z "
   style="fill:#777777"
   id="path4131" />
		</g>
	</g>
</g><g
     id="Prieksha">
	<g
   id="Shape_12">
		<g
   id="g4135">
			<path
   d="M 122.864,177.164 L 378.321,59.964 L 377.915,55.895 L 322.868,38.127 C 322.868,38.127 312.656,33.751 305.101,36.769 C 297.546,39.787 226.186,70.545 226.186,70.545 C 226.186,70.545 53.086,142.026 48.358,143.891 C 43.63,145.756 25.65,161.574 26.05,180.419 C 26.45,199.264 28.491,278.086 28.491,278.086 C 28.491,278.086 31.612,484.059 31.745,490.918 C 31.878,497.776 34.999,499.464 34.999,499.464 L 42.728,505.568 L 98.863,538.53 L 111.473,542.599 L 99.677,520.217 L 100.084,211.346 L 122.864,177.164 z "
   style="fill:#545454"
   id="path4137" />
		</g>
	</g>
</g><g
     id="Sans_Mala">
	<g
   id="Shape_10">
		<g
   id="g4141">
			<path
   d="M 374.253,55.081 C 369.778,56.302 270.931,100.252 270.931,100.252 C 270.931,100.252 109.44,169.84 102.118,178.385 C 94.796,186.931 87.881,195.477 87.474,214.196 C 87.067,232.916 87.474,503.534 87.474,519.405 C 87.474,535.276 91.135,534.869 91.135,534.869 C 91.135,534.869 100.898,542.6 112.695,543.008 C 124.491,543.415 364.426,377.924 367.786,371.684 C 371.146,365.445 393.779,70.139 394.186,67.29 C 394.592,64.44 378.728,53.86 374.253,55.081 z "
   style="fill:#545454"
   id="path4143" />
		</g>
	</g>
</g><g
     id="Sans">
	<g
   id="Sans_Liels">
		<g
   id="g4147">
			<path
   d="M 382.08,59.04 C 371.52,59.52 136.8,169.92 120.48,177.6 C 104.16,185.28 99.36,204 99.84,213.6 C 100.32,223.2 101.28,375.84 101.28,375.84 C 101.28,375.84 99.84,519.84 99.84,529.44 C 99.84,539.041 112.32,545.76 117.12,542.88 C 121.92,540 367.68,372 367.68,372 C 367.68,372 395.519,78.843 396,73.92 C 396.481,68.997 392.64,58.56 382.08,59.04 z "
   style="fill:#3e3e3e"
   id="path4149" />
		</g>
	</g>
	<g
   id="Sans_Mazs">
		<g
   id="g4152">
			<linearGradient
   x1="122.8643"
   y1="309.7886"
   x2="395.24081"
   y2="309.7886"
   id="XMLID_8_"
   gradientUnits="userSpaceOnUse">
				<stop
   style="stop-color:#606060;stop-opacity:1"
   offset="0"
   id="stop4155" />
				<stop
   style="stop-color:#5b5b5b;stop-opacity:1"
   offset="1"
   id="stop4157" />
			</linearGradient>
			<path
   d="M 382.416,87.039 C 372.707,87.48 156.879,188.995 141.873,196.056 C 126.867,203.118 122.453,220.331 122.894,229.158 C 123.335,237.986 124.218,378.339 124.218,378.339 C 124.218,378.339 122.894,510.749 122.894,519.575 C 122.894,528.403 134.369,534.582 138.782,531.934 C 143.197,529.286 363.906,379.209 364.296,378.689 C 364.686,378.169 369.371,375.957 370.933,362.162 C 372.495,348.367 394.852,105.42 395.215,100.721 C 395.578,96.022 392.126,86.598 382.416,87.039 z "
   style="fill:url(#XMLID_8_)"
   id="path4159" />
		</g>
	</g>
</g><g
     id="Faceplate">
	<g
   id="Shape_7">
		<g
   id="g4163">
			<polygon
   points="35.04,189.12 40.32,492 87.84,520.32 87.84,214.08 35.04,189.12 "
   style="fill:#eaeaea"
   id="polygon4165" />
		</g>
	</g>
</g><g
     id="Apaksha">
	<g
   id="Shape_8">
		<g
   id="g4169">
			<path
   d="M 87.783,519.624 L 40.446,491.372 C 40.446,491.372 39.667,503.279 44.24,506.024 C 48.813,508.768 78.565,526.886 94.572,536.674 C 88.535,533.381 87.783,519.624 87.783,519.624 z "
   style="fill:#a0a0a0"
   id="path4171" />
		</g>
	</g>
</g><g
     id="Jumts">
	<g
   id="Shape_9">
		<g
   id="g4175">
			<path
   d="M 88.139,214.932 L 87.706,214.723 C 87.846,215.379 88.139,214.932 88.139,214.932 z M 331.737,50.107 C 321.726,46.098 311.227,42.909 295.395,49.387 C 279.563,55.865 109.368,125.681 109.368,125.681 C 109.368,125.681 69.788,141.876 59.353,146.194 C 48.918,150.513 41.002,161.669 37.404,171.026 C 33.806,180.382 35.245,189.38 35.245,189.38 L 87.705,214.723 C 87.524,213.879 87.594,211.209 88.858,203.416 C 91.017,190.1 103.251,175.705 115.844,170.307 C 128.438,164.909 297.913,88.614 297.913,88.614 C 297.913,88.614 337.85,71.106 352.602,64.628 C 367.356,58.151 341.748,54.116 331.737,50.107 z "
   style="fill:#a0a0a0"
   id="path4177" />
		</g>
	</g>
</g></g>
</svg>