<?xml version="1.0" encoding="UTF-8" standalone="no"?>
<!-- Generator: Adobe Illustrator 12.0.0, SVG Export Plug-In . SVG Version: 6.00 Build 51448)  -->
<svg
   xmlns:dc="http://purl.org/dc/elements/1.1/"
   xmlns:cc="http://web.resource.org/cc/"
   xmlns:rdf="http://www.w3.org/1999/02/22-rdf-syntax-ns#"
   xmlns:svg="http://www.w3.org/2000/svg"
   xmlns="http://www.w3.org/2000/svg"
   xmlns:xlink="http://www.w3.org/1999/xlink"
   xmlns:sodipodi="http://sodipodi.sourceforge.net/DTD/sodipodi-0.dtd"
   xmlns:inkscape="http://www.inkscape.org/namespaces/inkscape"
   version="1.0"
   width="55"
   height="55"
   viewBox="0 0 339.6 330.8"
   overflow="visible"
   enable-background="new 0 0 339.6 330.8"
   xml:space="preserve"
   id="svg1953"
   sodipodi:version="0.32"
   inkscape:version="0.44"
   sodipodi:docname="sql.svg"
   sodipodi:docbase="Z:\docs\Vectors\Dude\ikonas\svg"><metadata
   id="metadata1981"><rdf:RDF><cc:Work
       rdf:about=""><dc:format>image/svg+xml</dc:format><dc:type
         rdf:resource="http://purl.org/dc/dcmitype/StillImage" /></cc:Work></rdf:RDF></metadata><defs
   id="defs1979"><linearGradient
   id="linearGradient3330"><stop
     id="stop3332"
     offset="0"
     style="stop-color:#3c3c3c;stop-opacity:1;" /><stop
     id="stop3334"
     offset="1"
     style="stop-color:#c5c5c5;stop-opacity:1;" /></linearGradient><linearGradient
   id="linearGradient3296"><stop
     style="stop-color:#999;stop-opacity:1;"
     offset="0"
     id="stop3298" /><stop
     style="stop-color:#c5c5c5;stop-opacity:1;"
     offset="1"
     id="stop3300" /></linearGradient><linearGradient
   id="linearGradient3225"><stop
     style="stop-color:#ababab;stop-opacity:1;"
     offset="0"
     id="stop3227" /><stop
     style="stop-color:#666;stop-opacity:1;"
     offset="1"
     id="stop3229" /></linearGradient><linearGradient
   inkscape:collect="always"
   xlink:href="#linearGradient3225"
   id="linearGradient3223"
   x1="172.87604"
   y1="146.93999"
   x2="149.77278"
   y2="141.71841"
   gradientUnits="userSpaceOnUse" />
	
<linearGradient
   inkscape:collect="always"
   xlink:href="#linearGradient3225"
   id="linearGradient3352"
   gradientUnits="userSpaceOnUse"
   x1="60.130196"
   y1="44.655518"
   x2="93.438499"
   y2="71.066666" /><linearGradient
   inkscape:collect="always"
   xlink:href="#linearGradient3225"
   id="linearGradient3354"
   gradientUnits="userSpaceOnUse"
   x1="128.618"
   y1="148.09586"
   x2="143.30106"
   y2="139.20915" /><linearGradient
   inkscape:collect="always"
   xlink:href="#linearGradient3225"
   id="linearGradient3356"
   gradientUnits="userSpaceOnUse"
   x1="128.618"
   y1="148.09586"
   x2="143.30106"
   y2="139.20915" /><linearGradient
   inkscape:collect="always"
   xlink:href="#linearGradient3296"
   id="linearGradient3358"
   gradientUnits="userSpaceOnUse"
   x1="179.48685"
   y1="136.8237"
   x2="128.96593"
   y2="155.85335" /><linearGradient
   inkscape:collect="always"
   xlink:href="#linearGradient3296"
   id="linearGradient3360"
   gradientUnits="userSpaceOnUse"
   x1="179.48685"
   y1="136.8237"
   x2="128.96593"
   y2="155.85335" /></defs><sodipodi:namedview
   inkscape:window-height="809"
   inkscape:window-width="1123"
   inkscape:pageshadow="2"
   inkscape:pageopacity="0.0"
   guidetolerance="10.0"
   gridtolerance="10.0"
   objecttolerance="10.0"
   borderopacity="1.0"
   bordercolor="#666666"
   pagecolor="#ffffff"
   id="base"
   width="55px"
   inkscape:zoom="5.6568542"
   inkscape:cx="31.652532"
   inkscape:cy="19.727505"
   inkscape:window-x="340"
   inkscape:window-y="137"
   inkscape:current-layer="layer2"
   height="55px" />



<g
   inkscape:groupmode="layer"
   id="layer1"
   inkscape:label="bottom"
   style="opacity:1" />

<g
   inkscape:groupmode="layer"
   id="layer3"
   inkscape:label="middle" /><g
   inkscape:groupmode="layer"
   id="layer2"
   inkscape:label="top"><g
     id="g3336"
     transform="matrix(2.718994,0,0,2.694925,-198.7786,-189.9758)"><path
       sodipodi:type="arc"
       style="fill:gray"
       id="path1922"
       sodipodi:cx="130.65167"
       sodipodi:cy="56.916668"
       sodipodi:rx="58.958332"
       sodipodi:ry="14.15"
       d="M 189.61 56.916668 A 58.958332 14.15 0 1 1  71.69334,56.916668 A 58.958332 14.15 0 1 1  189.61 56.916668 z"
       transform="matrix(0.914421,0,0,1.703695,16.41943,71.29329)" /><rect
       y="153.4476"
       x="81.88427"
       height="15.872543"
       width="107.77583"
       id="rect1924"
       style="fill:gray" /><g
       style="fill:url(#linearGradient3223);fill-opacity:1"
       transform="matrix(3.705979,0,0,5.542833,-456.0242,-631.9359)"
       id="g1926">
	
<path
   transform="matrix(0.246742,0,0,0.307369,127.4544,124.224)"
   d="M 189.61 56.916668 A 58.958332 14.15 0 1 1  71.69334,56.916668 A 58.958332 14.15 0 1 1  189.61 56.916668 z"
   sodipodi:ry="14.15"
   sodipodi:rx="58.958332"
   sodipodi:cy="56.916668"
   sodipodi:cx="130.65167"
   id="path1928"
   style="fill:url(#linearGradient3352);fill-opacity:1"
   sodipodi:type="arc" /></g><g
       style="fill:gray"
       transform="matrix(3.705983,0,0,5.542818,-455.9244,-646.1008)"
       id="g1932">
	
<path
   transform="matrix(0.246742,0,0,0.307369,127.4544,124.224)"
   d="M 189.61 56.916668 A 58.958332 14.15 0 1 1  71.69334,56.916668 A 58.958332 14.15 0 1 1  189.61 56.916668 z"
   sodipodi:ry="14.15"
   sodipodi:rx="58.958332"
   sodipodi:cy="56.916668"
   sodipodi:cx="130.65167"
   id="path1934"
   style="fill:gray"
   sodipodi:type="arc" /></g><rect
       y="124.60432"
       x="81.884338"
       height="15.872501"
       width="107.77594"
       id="rect1936"
       style="fill:gray" /><g
       style="fill:url(#linearGradient3354);fill-opacity:1"
       transform="matrix(3.705983,0,0,5.542818,-456.0247,-660.7771)"
       id="g1938">
	
<path
   transform="matrix(0.246742,0,0,0.307369,127.4544,124.224)"
   d="M 189.61 56.916668 A 58.958332 14.15 0 1 1  71.69334,56.916668 A 58.958332 14.15 0 1 1  189.61 56.916668 z"
   sodipodi:ry="14.15"
   sodipodi:rx="58.958332"
   sodipodi:cy="56.916668"
   sodipodi:cx="130.65167"
   id="path1940"
   style="fill:url(#linearGradient3356);fill-opacity:1"
   sodipodi:type="arc" /></g><g
       style="fill:gray"
       transform="matrix(3.705983,0,0,5.542818,-455.9244,-674.3993)"
       id="g2304">
	
<path
   transform="matrix(0.246742,0,0,0.307369,127.4544,124.224)"
   d="M 189.61 56.916668 A 58.958332 14.15 0 1 1  71.69334,56.916668 A 58.958332 14.15 0 1 1  189.61 56.916668 z"
   sodipodi:ry="14.15"
   sodipodi:rx="58.958332"
   sodipodi:cy="56.916668"
   sodipodi:cx="130.65167"
   id="path2306"
   style="fill:gray"
   sodipodi:type="arc" /></g><rect
       y="96.305779"
       x="81.884338"
       height="15.872501"
       width="107.77594"
       id="rect2308"
       style="fill:gray" /><g
       style="fill:url(#linearGradient3358);fill-opacity:1"
       transform="matrix(3.705983,0,0,5.542818,-456.0247,-689.0756)"
       id="g2310">
	
<path
   transform="matrix(0.246742,0,0,0.307369,127.4544,124.224)"
   d="M 189.61 56.916668 A 58.958332 14.15 0 1 1  71.69334,56.916668 A 58.958332 14.15 0 1 1  189.61 56.916668 z"
   sodipodi:ry="14.15"
   sodipodi:rx="58.958332"
   sodipodi:cy="56.916668"
   sodipodi:cx="130.65167"
   id="path2312"
   style="fill:url(#linearGradient3360);fill-opacity:1"
   sodipodi:type="arc" /></g></g></g><g
   inkscape:groupmode="layer"
   id="layer4"
   inkscape:label="aa" /></svg>